<svg xmlns="http://www.w3.org/2000/svg" xmlns:xlink="http://www.w3.org/1999/xlink" width="0" height="0" style="position:absolute">
	
		<symbol id="alert-attention" viewBox="0 0 286.054 286.054">
			<path d="M143.027 0C64.04 0 0 64.04 0 143.027c0 78.996 64.04 143.027 143.027 143.027 78.996 0 143.027-64.022 143.027-143.027C286.054 64.04 222.022 0 143.027 0zm0 259.236c-64.183 0-116.209-52.026-116.209-116.209S78.844 26.818 143.027 26.818s116.209 52.026 116.209 116.209-52.026 116.209-116.209 116.209zm.009-196.51c-10.244 0-17.995 5.346-17.995 13.981v79.201c0 8.644 7.75 13.972 17.995 13.972 9.994 0 17.995-5.551 17.995-13.972V76.707c-.001-8.43-8.001-13.981-17.995-13.981zm0 124.997c-9.842 0-17.852 8.01-17.852 17.86 0 9.833 8.01 17.843 17.852 17.843s17.843-8.01 17.843-17.843c-.001-9.851-8.001-17.86-17.843-17.86z" fill="#ffe03f"></path>
		</symbol>
	
		<symbol id="alert-info" viewBox="0 0 330 330">
			<g fill="#e5e5e5"><path d="M165 0C74.019 0 0 74.02 0 165.001 0 255.982 74.019 330 165 330s165-74.018 165-164.999S255.981 0 165 0zm0 300c-74.44 0-135-60.56-135-134.999S90.56 30 165 30s135 60.562 135 135.001C300 239.44 239.439 300 165 300z"></path><path d="M164.998 70c-11.026 0-19.996 8.976-19.996 20.009 0 11.023 8.97 19.991 19.996 19.991 11.026 0 19.996-8.968 19.996-19.991 0-11.033-8.97-20.009-19.996-20.009zM165 140c-8.284 0-15 6.716-15 15v90c0 8.284 6.716 15 15 15 8.284 0 15-6.716 15-15v-90c0-8.284-6.716-15-15-15z"></path></g>
		</symbol>
	
		<symbol id="alert-invalid" viewBox="0 0 286.054 286.054">
			<path d="M168.352 142.924l25.28-25.28c3.495-3.504 3.495-9.154 0-12.64l-12.64-12.649c-3.495-3.486-9.145-3.495-12.64 0l-25.289 25.289-25.271-25.271c-3.504-3.504-9.163-3.504-12.658-.018l-12.64 12.649c-3.495 3.486-3.486 9.154.018 12.649l25.271 25.271-25.227 25.226a8.93 8.93 0 0 0 0 12.64l12.64 12.649c3.495 3.486 9.145 3.495 12.64 0l25.226-25.226 25.405 25.414c3.504 3.504 9.163 3.504 12.658.009l12.64-12.64c3.495-3.495 3.486-9.154-.009-12.658l-25.404-25.414zM143.027.004C64.031.004 0 64.036 0 143.022c0 78.996 64.031 143.027 143.027 143.027s143.027-64.031 143.027-143.027C286.054 64.045 222.022.004 143.027.004zm0 259.228c-64.183 0-116.209-52.026-116.209-116.209s52.026-116.21 116.209-116.21 116.209 52.026 116.209 116.209-52.026 116.21-116.209 116.21z" fill="#e2574c"></path>
		</symbol>
	
		<symbol id="alert-valid" viewBox="0 0 286.054 286.054">
			<path d="M143.031 0C64.027 0 .004 64.04.004 143.027c0 78.996 64.031 143.027 143.027 143.027 78.987 0 143.018-64.031 143.018-143.027C286.049 64.049 222.018 0 143.031 0zm0 259.236c-64.183 0-116.209-52.026-116.209-116.209S78.857 26.818 143.031 26.818s116.2 52.026 116.2 116.209-52.025 116.209-116.2 116.209zm56.21-177.049c-6.079-3.629-13.847-1.475-17.342 4.827l-47.959 86.147-26.71-32.512c-4.836-5.569-11.263-8.456-17.333-4.827-6.079 3.638-8.591 12.39-4.657 18.004l37.169 45.241c2.78 3.611 5.953 5.775 9.27 6.392l.027.054.34.018c.751.116 11.979 2.19 16.815-6.463l55.048-98.876c3.493-6.313 1.411-14.367-4.668-18.005z" fill="#3db39e"></path>
		</symbol>
	
		<symbol id="arrow-left" viewBox="0 0 49.656 49.656">
			<path d="M35.121 1.414l2.828 2.828-20.585 20.586 20.585 20.586-2.828 2.828-23.414-23.414z"></path><path d="M35.122 49.656l-24.83-24.828L35.121 0l4.242 4.242-20.585 20.586 20.586 20.586-4.242 4.242zM13.121 24.828l22.001 22 1.414-1.414L15.95 24.828 36.535 4.242l-1.414-1.414-22 22z"></path>
		</symbol>
	
		<symbol id="arrow-next" viewBox="0 0 78 16">
			<path d="M77.707 8.707a1 1 0 0 0 0-1.414L71.343.929a1 1 0 1 0-1.414 1.414L75.586 8l-5.657 5.657a1 1 0 0 0 1.414 1.414l6.364-6.364zM0 9h77V7H0v2z"></path>
		</symbol>
	
		<symbol id="arrow-prev" viewBox="0 0 78 16">
			<path d="M.293 7.293a1 1 0 0 0 0 1.414l6.364 6.364a1 1 0 0 0 1.414-1.414L2.414 8l5.657-5.657A1 1 0 0 0 6.657.93L.293 7.293zM78 7H1v2h77V7z"></path>
		</symbol>
	
		<symbol id="arrow-right" viewBox="0 0 49.656 49.656">
			<path d="M14.535 48.242l-2.828-2.828 20.585-20.586L11.707 4.242l2.828-2.828 23.414 23.414z"></path><path d="M14.535 49.656l-4.242-4.242 20.585-20.586L10.293 4.242 14.535 0l24.829 24.828-24.829 24.828zm-1.414-4.242l1.414 1.414 22-22-22-22-1.414 1.414 20.585 20.586-20.585 20.586z"></path>
		</symbol>
	
		<symbol id="btn-arrow" viewBox="0 0 33 8">
			<path d="M32.354 4.354a.5.5 0 0 0 0-.708L29.172.464a.5.5 0 1 0-.707.708L31.293 4l-2.828 2.828a.5.5 0 1 0 .707.708l3.182-3.182zM0 4.5h32v-1H0v1z" fill="#fff"></path>
		</symbol>
	
		<symbol id="cat-1" viewBox="0 0 41 38">
			<path d="M20.432 15H2.568A2.571 2.571 0 0 0 0 17.568v17.864A2.571 2.571 0 0 0 2.568 38h17.864A2.571 2.571 0 0 0 23 35.432V17.568A2.571 2.571 0 0 0 20.432 15zm1.834 20.432a1.836 1.836 0 0 1-1.834 1.834H2.568a1.836 1.836 0 0 1-1.834-1.834V17.568c0-1.011.823-1.834 1.834-1.834h17.864c1.011 0 1.834.823 1.834 1.834v17.864z" fill="#F15E27"></path><path d="M19.599 18.034H3.4a.367.367 0 0 0-.367.367V34.6c0 .203.164.367.367.367H5.36a.367.367 0 0 0 0-.734h-1.59V18.768h15.463v.612a.367.367 0 1 0 .734 0V18.4a.367.367 0 0 0-.367-.367zM19.599 20.48a.367.367 0 0 0-.367.368v13.384H6.827a.367.367 0 1 0 0 .734h12.772a.367.367 0 0 0 .367-.367V20.848a.367.367 0 0 0-.367-.367z" fill="#F15E27"></path><path d="M11.5 33.351a6.859 6.859 0 0 0 6.851-6.851 6.859 6.859 0 0 0-6.851-6.851A6.859 6.859 0 0 0 4.649 26.5a6.859 6.859 0 0 0 6.851 6.851zm-.367-12.957v1.09a.367.367 0 1 0 .734 0v-1.09a6.125 6.125 0 0 1 5.75 6.106 6.125 6.125 0 0 1-5.75 6.106v-1.09a.367.367 0 1 0-.734 0v1.09a6.125 6.125 0 0 1-5.75-6.106 6.125 6.125 0 0 1 5.75-6.106z" fill="#F15E27"></path><path d="M8.517 27.601a1.102 1.102 0 0 0 0-2.202c-.607 0-1.101.494-1.101 1.101s.494 1.101 1.1 1.101zm0-1.468a.367.367 0 1 1-.001.735.367.367 0 0 1 0-.735zM14.483 27.601a1.102 1.102 0 0 0 0-2.202 1.102 1.102 0 0 0 0 2.202zm0-1.468a.367.367 0 1 1 0 .735.367.367 0 0 1 0-.735zM40.544 14.678a.46.46 0 0 1-.295-.808.459.459 0 0 1 .536-.04.461.461 0 0 1-.24.848zM24.963 23.422h13.475A2.565 2.565 0 0 0 41 20.86v-5.457a.567.567 0 0 0-1.133 0v5.457a1.43 1.43 0 0 1-1.43 1.43H24.964v1.132zM18.1 12.537V3.215A2.565 2.565 0 0 1 20.663.653h17.775A2.565 2.565 0 0 1 41 3.215v7.066a.567.567 0 0 1-1.133 0V3.215a1.43 1.43 0 0 0-1.43-1.429H20.664a1.43 1.43 0 0 0-1.43 1.43v9.32H18.1z" fill="#F15E27"></path><path fill-rule="evenodd" clip-rule="evenodd" d="M23.445 4.289h12.332c.87 0 1.578.714 1.578 1.592v12.305c0 .878-.708 1.592-1.578 1.592H24.6v-1.11h4.46v-1.57H24.6v-1.11h4.46V5.4h-5.615a.48.48 0 0 0-.477.482v6.608h-1.101V5.88c0-.878.708-1.592 1.578-1.592zm12.81 11.218V5.88a.48.48 0 0 0-.478-.482h-5.615v10.59h5.615a.48.48 0 0 0 .477-.482zm-6.093 3.16h5.615a.48.48 0 0 0 .477-.482v-1.16a1.56 1.56 0 0 1-.477.074h-5.615v1.568z" fill="#F15E27"></path>
		</symbol>
	
		<symbol id="cat-2" viewBox="0 0 36 36">
			<g clip-path="url(#a)" fill="#F15E27"><path d="M5.876 13.873h-1.75a.527.527 0 1 0 0 1.055h1.75a.527.527 0 1 0 0-1.055zM31.873 13.873h-1.75a.527.527 0 1 0 0 1.055h1.75a.527.527 0 1 0 0-1.055zM9.8 22.6a.528.528 0 0 0-.746 0l-1.237 1.237a.527.527 0 1 0 .746.746L9.8 23.346a.527.527 0 0 0 0-.746zM18 0a.527.527 0 0 0-.527.527v1.75a.527.527 0 0 0 1.054 0V.527A.527.527 0 0 0 18 0zM28.183 23.837L26.946 22.6a.528.528 0 0 0-.746.746l1.237 1.237a.527.527 0 1 0 .746-.745zM9.8 5.455L8.563 4.218a.527.527 0 0 0-.746.746L9.054 6.2a.527.527 0 0 0 .746-.746zM30.557 3.345H27.51a1.29 1.29 0 0 0-1.288 1.288c0 .71.578 1.288 1.288 1.288h.008L26.025 7.44a10.653 10.653 0 0 0-6.73-3.601.528.528 0 0 0-.128 1.047 9.591 9.591 0 0 1 6.116 3.308l-5.505 5.599-1.686-1.197a1.286 1.286 0 0 0-1.708.194l-4.377 4.92a1.288 1.288 0 1 0 1.925 1.712l3.61-4.058 1.64 1.165a1.283 1.283 0 0 0 1.663-.147l5.852-5.952c.363.804.611 1.653.74 2.534a.527.527 0 1 0 1.044-.153 10.506 10.506 0 0 0-.997-3.18l1.785-1.816v.016c0 .71.578 1.288 1.288 1.288a1.29 1.29 0 0 0 1.288-1.288V4.633a1.29 1.29 0 0 0-1.288-1.288zm.233 4.487c0 .308-.466.308-.466 0V6.526a.528.528 0 0 0-.904-.37l-9.326 9.486a.232.232 0 0 1-.302.027l-2.025-1.438a.528.528 0 0 0-.7.079l-3.923 4.41a.233.233 0 0 1-.348-.31l4.376-4.92a.236.236 0 0 1 .31-.034l2.052 1.457a.528.528 0 0 0 .681-.06l8.938-9.09a.528.528 0 0 0-.376-.897H27.51c-.308 0-.308-.466 0-.466h3.047c.129 0 .234.104.234.233v3.199z"></path><path d="M28.07 14.823a.527.527 0 0 0-.577.474 9.6 9.6 0 0 1-4.428 7.142 3.548 3.548 0 0 0-1.677 3.018v2.17h-6.776V25.41a3.472 3.472 0 0 0-1.625-2.937 9.49 9.49 0 0 1-4.526-8.118c0-4.806 3.6-8.876 8.373-9.467a.527.527 0 1 0-.13-1.047A10.607 10.607 0 0 0 10.1 7.32a10.559 10.559 0 0 0-1.312 12.27 10.665 10.665 0 0 0 3.643 3.779 2.41 2.41 0 0 1 1.126 2.04v2.295a1.373 1.373 0 0 0-.923 1.294v.752c0 .319.11.611.293.844a1.363 1.363 0 0 0-.293.844v.752c0 .756.615 1.37 1.371 1.37h1.658v1.193c0 .688.56 1.247 1.247 1.247h2.18c.687 0 1.247-.56 1.247-1.247v-1.192h1.658c.756 0 1.37-.615 1.37-1.371v-.752c0-.318-.11-.61-.292-.844.183-.233.293-.525.293-.844v-.752c0-.598-.387-1.108-.923-1.294v-2.247c0-.865.442-1.66 1.183-2.124a10.7 10.7 0 0 0 3.35-3.349 10.602 10.602 0 0 0 1.567-4.584.527.527 0 0 0-.473-.577zm-8.788 19.93a.195.195 0 0 1-.192.192h-2.18a.195.195 0 0 1-.192-.192V33.56h2.564v1.192zm3.03-2.564a.32.32 0 0 1-.317.317h-7.99a.32.32 0 0 1-.316-.317v-.751a.32.32 0 0 1 .316-.317h7.99a.32.32 0 0 1 .316.317v.751zm0-2.439a.32.32 0 0 1-.317.317h-7.99a.32.32 0 0 1-.316-.317v-.752a.32.32 0 0 1 .316-.316h7.99a.32.32 0 0 1 .316.316v.752z"></path></g><defs><clipPath id="a"><path fill="#fff" d="M0 0h36v36H0z"></path></clipPath></defs>
		</symbol>
	
		<symbol id="cat-3" viewBox="0 0 41 29">
			<g clip-path="url(#a)"><path d="M.071 28.64a.622.622 0 0 0 .813.303l21.702-10.008c.414-.06.814-.194 1.18-.396 1.577-.877 2.199-1.974 2.086-3.65l8.03-4.095c.153-.052.3-.121.439-.206.657-.41.99-1.223.925-2.235l5.062-2.829-.014-.028c.848-.722.954-2.165.212-3.353-.552-.898-1.442-1.45-2.319-1.45a1.837 1.837 0 0 0-1.576.877l-.043-.07C36.031.587 35.112 0 34.236 0c-.311 0-.601.07-.87.212h-.007l-.07.043-.1.05v.013l-.12.1-4.934 3.578a2.501 2.501 0 0 0-2.12.142l-.029.014a2.185 2.185 0 0 0-.466.368l-3.888 3.126a4.883 4.883 0 0 0-2.255-.594 3.533 3.533 0 0 0-1.74.438l-.07.043c-.127.07-.269.177-.403.283L.276 19.437a.623.623 0 0 0-.162.863.621.621 0 0 0 .516.262.6.6 0 0 0 .353-.106l14.774-10.172a7.728 7.728 0 0 0 .94 4.959 7.707 7.707 0 0 0 3.606 3.38L.368 27.82a.613.613 0 0 0-.304.82h.007zM39.46 2.8c.424.679.424 1.514-.008 1.782a.683.683 0 0 1-.332.085c-.445 0-.947-.34-1.272-.863-.424-.679-.424-1.513.007-1.782a.615.615 0 0 1 .332-.092c.446 0 .94.34 1.273.87zM27.42 7.943a2.63 2.63 0 0 0 1.994.913h.07l.113-.007a1.393 1.393 0 0 1-1.06.445c-.615 0-1.534-.325-2.078-1.238-.566-.962-.608-2.072-.085-2.638l.283-.226a.975.975 0 0 1 .29-.1 2.072 2.072 0 0 0-.198.602 2.831 2.831 0 0 0 .671 2.25zm-8.963 4.35c.02-.389.176-.693.424-.849a.596.596 0 0 0 .056-.042l5.846-4.704c.037.706.249 1.391.615 1.995a3.839 3.839 0 0 0 2.015 1.648l-6.482 4.3c-.24.156-.587.17-.947.029-.432-.163-.834-.495-1.124-.955-.29-.453-.439-.962-.403-1.415v-.007zm9.508-6.387c.035-.212.134-.368.261-.446a.52.52 0 0 0 .05-.028l4.092-2.978a3.305 3.305 0 0 0 1.577 2.434l-3.62 2.327a.616.616 0 0 0-.402.24c-.05.07-.212.149-.467.156h-.05c-.395 0-.805-.177-1.032-.453-.332-.403-.48-.856-.41-1.252zm4.736 2.058a1.617 1.617 0 0 1-.601-.424l4.008-2.568c.253-.156.464-.372.615-.63.26.473.635.871 1.089 1.16l-4.37 2.441c-.211.135-.459.142-.734.021h-.007zm1.258 1.11c-.057.213-.163.376-.297.46-.304.192-.785.227-1.223.093a2.658 2.658 0 0 1-1.378-1.09c.015-.084.027-.169.035-.254.325.382.721.665 1.152.834.283.113.566.17.841.17.311 0 .608-.07.87-.212zm-2.418 1.522l-8.44 4.3a1.5 1.5 0 0 1-.424.07l7.231-4.795c.213-.127.39-.269.538-.424.325.354.7.643 1.095.849zm-6.927 4.922c-.07.977-.594 1.458-1.45 1.939-.742.41-1.703.367-2.686-.114a6.463 6.463 0 0 1-2.7-2.694 6.482 6.482 0 0 1-.87-3.728 3.049 3.049 0 0 1 1.011-2.122l.347-.24a2.755 2.755 0 0 1 2.276-.036l-2.368 1.896c-.559.375-.905 1.011-.954 1.796a3.63 3.63 0 0 0 .6 2.172 3.62 3.62 0 0 0 1.725 1.45c.58.212 1.174.233 1.69.035a2.832 2.832 0 0 0 2.375.156l.035-.014.969-.495zM33.84 1.38l.07-.042.107.141-.078-.162.007-.007a.608.608 0 0 1 .29-.071c.445 0 .954.36 1.272.898.22.375.325.778.283 1.146-.028.297-.142.523-.332.637a.654.654 0 0 1-.312.077c-.445 0-.954-.353-1.272-.89-.374-.637-.389-1.415-.035-1.727z" fill="#F15E27"></path></g><defs><clipPath id="a"><path fill="#fff" transform="matrix(-1 0 0 1 41 0)" d="M0 0h41v29H0z"></path></clipPath></defs>
		</symbol>
	
		<symbol id="cat-4" viewBox="0 0 28 40">
			<g clip-path="url(#a)" fill="#F15E27"><path d="M.001 24.021l.518.308c.084-.329.274-.636.58-.912.253-.233.348-.455.348-.868l.01-.901c.022-2.077.054-4.217.138-6.326.01-.381.01-.678.01-.932 0-1.219.117-1.293 1.373-1.738.2-.074.443-.159.717-.265.349-.127.444-.276.444-.636-.022-.975-.011-1.97-.011-2.935 0-.826.01-1.685 0-2.522-.01-.847.338-1.377 1.13-1.695l1.224-.509C9.3 2.925 12.223 1.727 15.052.445c1.33-.604 2.385-.593 3.535.021.813.435 1.689.795 2.533 1.134.285.117.58.233.876.36.18-.519.465-.879.834-1.06.433-.211.981-.19 1.625.075.18.074.36.159.539.233.369.16.749.329 1.129.456.56.19.812.561.77 1.134-.01.084 0 .18 0 .275 0 .138.01.276-.01.424-.043.36.074.55.443.742.296.159.633.604.644.985.031 2.374.031 4.864 0 7.64 0 .318-.264.805-.591.911-.38.127-.444.318-.444.784.022 3.889.022 7.428 0 10.84 0 .487.095.657.454.805.296.117.58.562.58.9.032 2.364.032 4.77 0 7.164 0 .318-.253.784-.57.922a687.64 687.64 0 0 1-11.06 4.672 2.039 2.039 0 0 1-.739.128 2.33 2.33 0 0 1-.897-.17c-1.847-.742-3.715-1.526-5.53-2.278-1.351-.562-2.744-1.144-4.116-1.706-.665-.276-.96-.72-.94-1.452.011-.445 0-.9 0-1.345-.01-.636-.01-1.293.022-1.94.02-.487-.106-.677-.591-.89-.338-.148-.634-.264-.855-.36-1.203-.487-1.277-.593-1.267-2.002v-.795-.096-.031c-.042-.106-.074-.212-.105-.318-.085-.244-.159-.477-.285-.636-.412-.477-.602-.975-.56-1.44l-.475-.51zm5.172 10.162c0 .286-.01.487.032.551.042.064.232.138.496.244.158.063.358.148.612.254.02.01.053.021.074.032a2.319 2.319 0 0 1-.56-1.568c0-.965.56-1.643 1.351-1.643.348 0 .707.16 1.003.456.411.413.644 1.017.644 1.632 0 .89-.507 1.557-1.214 1.631.359.149.718.297 1.087.456.264.106.528.223.792.329V36.1v-1.674c0-.858 0-1.293-.17-1.547-.168-.255-.559-.424-1.35-.753-.686-.286-1.362-.582-2.09-.89l-.707-.296V33.569c.01.233.01.444 0 .614zm7.62 2.066c.084.233.243.424.475.551a1.17 1.17 0 0 0 .053-.9.972.972 0 0 0-.486-.54c-.127.317-.148.624-.042.89zm-1.087 1.102c-.222-.243-.317-.582-.401-.9a3.574 3.574 0 0 0-.106-.36l-.02-.064.01-.064c.116-.911.58-1.515 1.224-1.6.707-.106 1.267.265 1.594 1.028.18.424.264.922.232 1.367-.053.646-.465 1.293-1.15 1.293h-.032c.359.148.728.307 1.097.466.233.095.465.19.697.296v-5.181c-.148.042-.296.085-.433.117-.59.17-1.203.339-1.794.275-.601-.063-1.16-.339-1.762-.636-.159-.074-.306-.148-.475-.233V34.787c0 .583 0 1.197.02 1.78.011.148.075.34.117.382.475.212.96.423 1.435.625a1.36 1.36 0 0 1-.253-.223zm4.169-5.383V35.2c.19-.18.506-.275 1.034-.402a1.134 1.134 0 0 1-.116-.064h-.01v-.01c-.328-.223-.539-.647-.539-1.166 0-.487.19-.954.507-1.261.232-.223.506-.328.791-.318.127.01.243.043.36.085l.03-.085.033.117c.38.212.622.688.622 1.25-.01.816-.56 1.515-1.214 1.536V37.107c0 1.081-.295 1.272-1.435 1.463l-.042.01v.371c.127-.053.253-.106.37-.148.474-.19.875-.35 1.287-.53 1.92-.805 3.831-1.621 5.752-2.437 1.098-.466 2.206-.932 3.303-1.399.327-.137.412-.19.412-.455a198.61 198.61 0 0 1-.01-4.334v-1.865-.042c-.391.106-.634.127-.824-.021-.232-.18-.232-.499-.232-1.018V23.47c0-3.009 0-6.113-.01-9.176 0-.35.042-.71.274-.996a.92.92 0 0 1-.17.021h-.02c-.58-.01-1.098-.646-1.098-1.345 0-.806.57-1.537 1.235-1.558a.998.998 0 0 1 .728.276c.042.042.085.084.127.137V5.66l-1.235.508c-1.076.445-2.153.9-3.23 1.346l-.274.116c-1.815.763-3.694 1.547-5.54 2.332.094 0 .168.02.253.063.295.18.295.604.295 1.325 0 .095 0 .19-.01.286-.011.201-.011.381.01.561.042.308.063.753-.222 1.092-.221.265-.601.413-1.16.455v.636c0 .7-.011 1.43.01 2.14.01.276.042 1.102-.897 1.272-.971.18-1.34.71-1.214 1.77.053.508.032 1.017 0 1.515l-.031.636v.254c0 .519 0 1.102-.486 1.579-.021.053-.021.18-.021.243V32.943c0 .022 0 .053.01.096l2.597-1.07zm.549 4.483c-.032.275-.053.476.052.635v-1.155l-.031.032c.02.16 0 .329-.021.488zM5.9 6.538a21.325 21.325 0 0 1-.728-.307V9.198c0 .88 0 1.79-.01 2.691 0 .329.073.456.348.562 1.023.413 2.015.837 3.081 1.292l.898.382c.01-.106.02-.191.02-.276v-.339c.011-1.674.011-3.401 0-5.097a.784.784 0 0 0-.105-.381c-1.13-.498-2.28-.985-3.504-1.494zm4.56 22.675c.031 0 .063.011.095.011-.011-.01-.011-.01-.022-.01-.02-.011-.042-.011-.074 0zm.116-5.435v-.01a10.06 10.06 0 0 0-1.161-.51h-.01v.011c.316.149.643.286.991.435.053.031.116.052.18.074zm-.328.826c-.105-.106-.348-.244-.833-.36.137.138.411.254.833.36zm1.657-.784l-.253-.116a4.525 4.525 0 0 0-.4 1.684c.105-.55.316-1.07.653-1.568zm.275 3.19v-1.728a2.85 2.85 0 0 0-.116.7c-.01.36.031.71.116 1.027zm-3.958-4.78c-.042-.063-.2-.116-.475-.148v.615c0 .89-.01 1.801.032 2.691l.084.085.01-.222c.043-.657.085-1.283.138-1.897.01-.19.063-.371.116-.53.106-.328.137-.53.095-.593zm-2.385.88c.084-.445.253-.858.433-1.293.042-.105.095-.222.137-.339l-.19-.074c-.275.572-.433 1.346-.422 2.035.01-.106.031-.223.042-.329zm-1.879-1.165c.253.148.549.286.918.392h.01a11.568 11.568 0 0 0-.928-.392c-.01-.011-.01-.011 0 0-.01-.011-.01 0 0 0zm.116-.89c.021.01.064.031.095.042l.042.021c.264.106.539.212.876.35a6.6 6.6 0 0 0-1.044-.445c.01 0 .02.01.031.032zm2.734 3.687v-1.96c-.127.328-.2.73-.18 1.144.01.307.074.583.18.816zm-4.064-4.334c.117-.35.106-.445.106-.455-.021-.022-.084-.053-.317-.075-.168.816-.126 1.78-.01 2.48 0-.34 0-.678.01-1.017.01-.308.106-.583.19-.859l.021-.074zm-.01-1.875c3.103 1.324 6.269 2.66 9.32 3.941l.19.085c.01-.17.02-.339.02-.498.01-.318.021-.625.021-.943l.032-1.24c.021-.773.042-1.197-.105-1.43-.138-.223-.528-.381-1.225-.678L2.64 14.262l-.032.668a128.64 128.64 0 0 0-.116 3.37c.032.053.148.19.243.233zm7.683-5.828c0 .954 0 1.43.18 1.716.18.276.622.456 1.488.816.696.286 1.382.572 2.121.89l.686.287v-.636-1.208c0-1.282.01-2.596-.01-3.9 0-.137-.106-.35-.159-.381-1.192-.54-2.417-1.06-3.61-1.558l-.696-.296V12.705zm3.63 4.323c-.347-.159-.717-.328-1.076-.477-.285-.116-.58-.243-.865-.35-.56-.222-1.15-.455-1.7-.73-.443-.223-.78-.107-1.234.127.274.116.538.233.802.35 1.077.465 2.1.91 3.135 1.26.242.085.59-.01.939-.095.032-.01.074-.021.105-.032a.201.201 0 0 0-.105-.053zm-8.39 9.452c1.098.487 2.227.996 3.378 1.398.464.16 1.002.191 1.53.212.106 0 .2.01.306.01.032 0 .106-.052.158-.094l-.886-.371c-.802-.34-1.594-.679-2.396-1.018-.454-.19-.897-.381-1.35-.572a273.463 273.463 0 0 0-4.275-1.79c-.042-.022-.17.01-.275.042a.795.795 0 0 0 .116.212c.697.742 1.605 1.112 2.565 1.494.275.106.549.222.823.35l.306.127zm6.523 3.655c-1.604.636-3.05.085-4.433-.561v.106c0 .402-.01.752.01 1.091a.35.35 0 0 0 .075.138c1.234.54 2.459 1.06 3.757 1.621l.601.254v-2.649h-.01zm-7.8-16.582c.75.317 1.457.625 2.153.921l.475.191c.138.053.264.106.401.16.57.232.813.275 1.351-.043-.052-.032-.116-.053-.169-.075-.327-.137-.654-.275-.981-.402-.686-.276-1.404-.562-2.08-.911-.516-.265-.97-.276-1.55-.011l.4.17zM6.05 5.468c.39.18.77.339 1.14.498.295.127.601.275.886.424.676.35 1.32.678 1.942.678h.01c.623 0 1.267-.329 1.953-.668.285-.148.58-.296.876-.413 2.734-1.144 5.457-2.289 7.99-3.359.01 0 .01-.01.02-.01l-.57-.255c-1.15-.508-2.236-.975-3.345-1.44a.604.604 0 0 0-.359.02c-3.408 1.43-6.87 2.893-10.226 4.313l-.402.17c.043.02.064.031.085.042zm15.926-2.3c0-.031 0-.053-.01-.063a1.15 1.15 0 0 0-.243.095 154.254 154.254 0 0 0-2.765 1.155l-1.267.54-2.945 1.24-3.482 1.463c-.021.01-.053.02-.085.031.074.032.137.064.211.096.507.222.982.434 1.457.636.264.105.527.243.77.36.612.307 1.193.593 1.752.593.57 0 1.15-.286 1.773-.593a9.97 9.97 0 0 1 .76-.36c2.195-.922 4.433-1.865 6.596-2.777l1.446-.614h-.18c-.094 0-.189 0-.295.01-.263.011-.538.032-.802-.053a11.345 11.345 0 0 1-1.224-.487c-.2-.085-.412-.18-.612-.265-.359-.127-.802-.318-.855-1.007zm3.873.244c0-.053-.01-.095-.01-.148-.01.01-.021.021-.021.032-.064.116-.064.317 0 .625.063-.117.052-.276.031-.509zM7.315 33.802c.064.264.243.508.507.72.127-.297.158-.593.074-.858-.074-.255-.243-.456-.496-.604-.116.254-.148.498-.085.742zm-.485-4.26c-.032-.19-.19-.424-.306-.487-1.077-.509-2.164-.986-3.304-1.494-.253-.106-.496-.223-.749-.329v.053c0 .403-.01.826.021 1.23.01.052.095.148.137.169 1.15.508 2.322 1.006 3.557 1.525l.686.287v-.106c0-.308.01-.594-.042-.848z"></path><path d="M15.346 19.72c.285 0 .527.095.728.285.243.233.37.594.37 1.028 0 .477-.201.975-.518 1.282a1.048 1.048 0 0 1-.728.329h-.032c-.59-.021-1.055-.625-1.045-1.378 0-.847.55-1.536 1.225-1.547zM16.496 29.118c.274-.774.612-1.568 1.003-2.363.126-.265.475-.583.812-.615.264-.02.433.212.58.414.033.042.064.095.085.116l.095.096-.02.137c-.233 1.282-.54 2.3-1.288 3.105-.159.18-.412.201-.634.212-.074.01-.148.01-.21.021l-.275.053-.021-.117-.148.064.116-.275c-.01-.053-.032-.117-.042-.18-.074-.191-.137-.435-.053-.668zM13.045 2.797l.222-.095c.168-.064.327-.148.495-.223.38-.18.781-.381 1.214-.445.465-.074 1.035.011 1.678.234.306.106.55.37.591.656.021.149.021.424-.295.668-.507.392-1.15.816-1.668.689-.527-.138-.918.042-1.361.254-.116.053-.243.117-.37.159-.179.074-.358.117-.517.117-.337 0-.644-.17-.97-.509l-.243-.265 1.372-.689-.148-.55zm1.361.382l.064.17c.665.052 1.256.084 1.773-.308-.443-.36-.866-.37-1.837.138zM7.704 4.906c.085-.01.18-.032.285-.064.254-.063.539-.137.813-.042.401.138.739.117 1.15-.085.486-.233.908-.148 1.204.233h.042l-.021.022a.834.834 0 0 1 .116.19l.095.18-.412.392.665.732-.454.106a3.224 3.224 0 0 0-.38.116c-.2.064-.39.127-.58.127a.6.6 0 0 1-.232-.042c-.591-.212-1.161-.477-1.71-.731-.211-.096-.422-.202-.644-.297l-.169-.074.021-.731.211-.032zm1.869.763h.01-.01zM22.259 5.902l-.095.064c-.444.296-.982.657-1.489.582-.58-.084-1.023.106-1.54.318-.106.043-.201.085-.307.127-.179.075-.337.106-.495.106-.36 0-.676-.19-.93-.561l-.179-.255 1.203-.614-.052-.053.126-.19a.679.679 0 0 0 .085-.15c.084-.148.18-.317.348-.423.285-.18.633-.34.992-.445.591-.17 1.457-.34 2.248.265.264.201.412.466.401.71 0 .138-.063.35-.316.519zm-2.512-.254H20.032c.58 0 1.087 0 1.53-.329-.486-.37-1.108-.318-1.858.16l.043.169zM16.602 7.491l.084.191-.412.36.665.562-.411.17c-.106.042-.211.105-.317.158-.2.106-.39.212-.58.212a.422.422 0 0 1-.159-.031c-.654-.234-1.287-.52-1.9-.795-.221-.095-.443-.201-.675-.297l-.19-.085.116-.752.2-.021c.106-.01.201-.021.307-.042.232-.032.464-.064.707-.075.169-.01.327-.01.485-.01.254 0 .486 0 .708-.043a.615.615 0 0 1 .137-.02c.306-.064.75-.15 1.066.232l.56-.084-.434.275c.021.032.032.064.043.095zM12.591 9.981c.348 0 .707.16 1.003.456.411.413.665 1.028.654 1.621 0 .933-.591 1.643-1.372 1.643h-.01c-.349 0-.708-.16-.993-.445-.4-.403-.643-1.018-.643-1.643.01-.943.559-1.62 1.361-1.632zm.2.986c-.126.286-.158.572-.084.837s.253.487.507.657c.126-.254.169-.509.105-.752-.053-.265-.232-.52-.527-.742zM7.652 11.401c-.085.021-.17.021-.254.021-.496 0-.939-.286-1.234-.837-.127-.233-.211-.487-.296-.73a3.525 3.525 0 0 0-.105-.308l-.022-.053v-.053c.032-.9.454-1.568 1.098-1.748.665-.18 1.435.307 1.73 1.091.117.307.244.784.212 1.23-.074.762-.485 1.27-1.13 1.387zM7.377 8.7c-.147.244-.18.52-.116.795.074.286.264.53.528.678.127-.286.158-.561.084-.816-.063-.265-.242-.487-.496-.657z"></path></g><defs><clipPath id="a"><path fill="#fff" transform="matrix(-1 0 0 1 28 0)" d="M0 0h28v40H0z"></path></clipPath></defs>
		</symbol>
	
		<symbol id="cat-5" viewBox="0 0 28 28">
			<path d="M15.64 22.203c4.976 0 9.024-4.048 9.024-9.023 0-4.976-4.048-9.024-9.023-9.024-4.976 0-9.024 4.048-9.024 9.024 0 4.975 4.048 9.023 9.024 9.023zm4.922-9.566c.908 0 1.767.316 2.453.894a7.335 7.335 0 0 1-1.098 3.532 5.435 5.435 0 0 0-1.255-1.948 5.416 5.416 0 0 0-2.608-1.454l.017-.096a3.782 3.782 0 0 1 2.491-.928zM15.641 14a.821.821 0 0 1 0-1.64.821.821 0 0 1 0 1.64zm-.485 1.593l.098.017c.598.692.925 1.564.925 2.487 0 .91-.317 1.77-.898 2.457a7.334 7.334 0 0 1-3.533-1.104 5.483 5.483 0 0 0 3.408-3.857zm1.849-.366c.027-.018.054-.038.08-.057a3.781 3.781 0 0 1 2.416 1.105 3.781 3.781 0 0 1 1.102 2.366 7.374 7.374 0 0 1-3.276 1.727 5.434 5.434 0 0 0 .493-2.27c0-1.031-.285-2.017-.815-2.871zm-.88-4.46a2.367 2.367 0 0 0-.097-.018 3.825 3.825 0 0 1-.034-4.944 7.336 7.336 0 0 1 3.527 1.097c-.72.27-1.381.692-1.941 1.252a5.416 5.416 0 0 0-1.455 2.613zm-1.847.365a1.91 1.91 0 0 0-.078.054 3.825 3.825 0 0 1-3.52-3.47 7.377 7.377 0 0 1 3.274-1.725 5.483 5.483 0 0 0 .324 5.14zm-1.05 1.56a2.167 2.167 0 0 0-.017.1 3.825 3.825 0 0 1-4.944.027 7.33 7.33 0 0 1 1.102-3.53 5.482 5.482 0 0 0 3.86 3.404zm-2.505 2.66a5.46 5.46 0 0 0 2.869-.811l.058.084a3.825 3.825 0 0 1-3.476 3.512 7.376 7.376 0 0 1-1.723-3.277c.719.328 1.495.492 2.272.492zm12.104-3.866a5.435 5.435 0 0 0-2.265-.49c-1.032 0-2.02.285-2.875.818a2.402 2.402 0 0 0-.053-.075 3.78 3.78 0 0 1 1.106-2.425 3.78 3.78 0 0 1 2.359-1.1 7.372 7.372 0 0 1 1.728 3.272z" fill="#F15E27"></path><path d="M0 .875v24.61h3.336v1.64h4.922v-1.64h11.484v1.64h4.922v-1.64H28V.874H0zm26.36 22.969h-3.337v1.64h-1.64v-1.64H6.617v1.64h-1.64v-1.64H1.64V2.516h24.718v21.328z" fill="#F15E27"></path><path d="M3.336 15.64h1.64v1.641h-1.64v-1.64zM3.336 12.36h1.64V14h-1.64v-1.64zM3.336 18.922h1.64v1.64h-1.64v-1.64zM3.336 3.992h1.64v6.563h-1.64V3.992z" fill="#F15E27"></path>
		</symbol>
	
		<symbol id="cat-all" viewBox="0 0 36 36">
			<g clip-path="url(#a)" fill="#F15E27"><path d="M13.352 15.135a.474.474 0 0 0 .626.183v2.354c0 .169.09.325.237.41l4.143 2.392a.474.474 0 0 0 .71-.41v-1.557c.143.074.313.07.452-.01l1.036-.589a.474.474 0 0 0 .175-.65l-3.805-6.553a.473.473 0 0 0-.645-.173l-3.79 2.168a.474.474 0 0 0-.175.649l1.036 1.786zm2.99-3.547l3.33 5.733-.212.12-.455-.783a.474.474 0 0 0-.884.237v2.348l-3.195-1.845v-2.894a.474.474 0 0 0-.709-.412l-.281.16-.561-.967 2.968-1.697zM11.453 20.447l3.453 1.994a.474.474 0 0 0 .473-.821l-3.452-1.993a.474.474 0 1 0-.474.82zM19.178 24.634a.474.474 0 0 0 0-.821l-2.418-1.396a.474.474 0 1 0-.473.82l2.417 1.396a.474.474 0 0 0 .474 0zM20.199 24.562a.473.473 0 0 0-.114.868l1.035.599a.474.474 0 1 0 .474-.821l-1.036-.598a.474.474 0 0 0-.36-.048zM21.594 27.584l-2.417-1.395a.474.474 0 1 0-.473.82l2.416 1.395a.474.474 0 1 0 .474-.82zM15.034 23.797a.473.473 0 1 0-.474.82l2.762 1.595a.474.474 0 0 0 .474-.82l-2.762-1.595zM11.453 22.823l1.726.997a.474.474 0 0 0 .474-.82l-1.726-.997a.474.474 0 1 0-.474.82zM14.344 25.774l-2.417-1.395a.474.474 0 1 0-.474.82l2.417 1.396a.474.474 0 1 0 .474-.82zM18.832 28.365l-3.107-1.794a.474.474 0 1 0-.474.82l3.107 1.795a.474.474 0 0 0 .474-.82zM21.594 29.96l-1.38-.797a.474.474 0 1 0-.475.82l1.381.797a.474.474 0 1 0 .474-.82z"></path><path d="M28.523 9.847a.467.467 0 0 0-.197-.344c-.012-.009-.022-.02-.035-.027l-13.81-7.971h-.001L12.807.538a4.044 4.044 0 0 0-4.034 0l-.174.1a2.228 2.228 0 0 0-1.121 1.864c0 .01-.005.017-.005.026v22.966a2.375 2.375 0 0 0 1.184 2.052l.726.419.008.003 13.8 7.968h.003a.472.472 0 0 0 .082.034c.01.004.02.01.032.013.027.006.054.01.081.01.014.002.027.006.04.006a.472.472 0 0 0 .237-.063l4.625-2.67a.442.442 0 0 0 .042-.038.425.425 0 0 0 .183-.313c.005-.02.01-.04.012-.06V9.886c0-.013-.004-.026-.005-.039zM9.145 26.734l-.014-.008a1.425 1.425 0 0 1-.711-1.23V4.423c.058.041.116.083.18.12l.545.314v21.876zM9.073 3.723a1.292 1.292 0 0 1-.653-1.128v-.007a1.292 1.292 0 0 1 .653-1.128l.174-.1a3.095 3.095 0 0 1 3.087 0l.962.555L9.62 4.039l-.547-.316zm1.02 23.557V5.406l12.862 7.426v21.874L10.092 27.28zm13.336-15.269L10.567 4.586l.705-.407 3.941 2.274a.474.474 0 1 0 .474-.82L12.22 3.632l.398-.23 6.95 4.013a.474.474 0 1 0 .473-.82l-6.476-3.74.68-.393 12.864 7.425-3.68 2.124zm4.152 20.57l-.681.394v-4.507a.474.474 0 1 0-.948 0v5.054l-.412.238v-3.383a.474.474 0 1 0-.947 0v3.93l-.69.399V12.832l.69-.399v3.487a.474.474 0 0 0 .947 0v-4.034l.417-.24v2.37a.474.474 0 1 0 .947 0v-2.918l.677-.39v21.874z"></path><path d="M25.723 19.42a.473.473 0 0 0-.474.474v4.737a.474.474 0 1 0 .947 0v-4.737a.473.473 0 0 0-.473-.474z"></path></g><defs><clipPath id="a"><path fill="#fff" d="M0 0h36v36H0z"></path></clipPath></defs>
		</symbol>
	
		<symbol id="close" viewBox="0 0 60 60">
			<title>Монтажная область 2 копия 14</title><path d="M27.55 30.33L4.89 53A1.61 1.61 0 0 0 6 55.74a1.64 1.64 0 0 0 1.14-.47L30 32.44l22.83 22.83a1.64 1.64 0 0 0 1.14.47A1.61 1.61 0 0 0 55.11 53L32.45 30.33 55.13 7.65a1.61 1.61 0 1 0-2.28-2.28L30 28.22 7.15 5.37a1.61 1.61 0 1 0-2.28 2.28zm0 0"></path>
		</symbol>
	
		<symbol id="contact-mail" viewBox="0 0 21 16">
			<path d="M21 14.938v-12.9l-7.166 6.45L21 14.938zM10.608 11.392L8.562 9.55 1.396 16H19.82l-7.166-6.45-2.046 1.841zM19.82.976H1.396l9.212 8.292L19.82.976zM.217 2.038v12.9l7.166-6.45-7.166-6.45z" fill="#4483CE"></path>
		</symbol>
	
		<symbol id="contact-phone" viewBox="0 0 22 21">
			<path d="M15.966 13.892c-.686-.678-1.543-.678-2.225 0-.52.516-1.04 1.031-1.55 1.556-.14.144-.259.174-.43.078-.336-.183-.694-.332-1.017-.533-1.508-.948-2.771-2.167-3.89-3.54-.555-.681-1.049-1.411-1.394-2.233-.07-.166-.057-.275.079-.41.52-.503 1.027-1.019 1.538-1.534.712-.717.712-1.556-.004-2.277-.407-.41-.813-.813-1.22-1.224-.419-.42-.834-.843-1.258-1.258-.686-.669-1.543-.669-2.224.004-.525.516-1.027 1.045-1.56 1.551-.494.468-.743 1.04-.796 1.71-.083 1.087.184 2.114.56 3.115.769 2.071 1.94 3.911 3.36 5.598 1.919 2.281 4.208 4.086 6.887 5.388 1.206.586 2.456 1.036 3.815 1.11.935.053 1.748-.183 2.4-.913.445-.498.948-.953 1.42-1.43.699-.707.703-1.564.008-2.263-.83-.835-1.665-1.665-2.5-2.495zM15.132 10.409l1.612-.275a7.208 7.208 0 0 0-2.014-3.89 7.168 7.168 0 0 0-4.108-2.05l-.227 1.622c1.21.17 2.311.717 3.18 1.586a5.56 5.56 0 0 1 1.557 3.007zM17.654 3.4A11.89 11.89 0 0 0 10.837 0l-.228 1.62A10.31 10.31 0 0 1 16.5 4.558a10.301 10.301 0 0 1 2.889 5.572L21 9.854a11.977 11.977 0 0 0-3.347-6.455z" fill="#4483CE"></path>
		</symbol>
	
		<symbol id="contact-pin" viewBox="0 0 17 24">
			<path d="M8.5.53C3.813.53 0 4.343 0 9.03c0 5.816 7.607 14.355 7.93 14.716a.766.766 0 0 0 1.14 0c.323-.36 7.93-8.9 7.93-14.716 0-4.687-3.813-8.5-8.5-8.5zm0 12.776A4.281 4.281 0 0 1 4.223 9.03 4.281 4.281 0 0 1 8.5 4.753a4.281 4.281 0 0 1 4.277 4.277A4.281 4.281 0 0 1 8.5 13.306z" fill="#4483CE"></path>
		</symbol>
	
		<symbol id="delivery-moscow" viewBox="0 0 32 32">
			<path d="M30.064 13.385h-6.34a.581.581 0 1 0 0 1.164h5.294l1.687 15.704H1.319L3.3 14.549h5.303a.581.581 0 1 0 0-1.164h-6.33L0 31.416h32l-1.936-18.03z"></path><path d="M15.503 22.665c-.086.05-.177.096-.259.149-.128.082-.253.169-.376.258a.582.582 0 0 0 .689.939 6.282 6.282 0 0 1 .908-.559.578.578 0 0 0 .27-.738l.014-.013c1.052-1.114 4.598-5.29 6.066-12.248.297-1.41.364-2.765.199-4.024-.5-3.824-2.877-5.846-6.871-5.846-3.994 0-6.37 2.022-6.871 5.846-.165 1.26-.098 2.614.2 4.024 1.453 6.89 4.943 11.05 6.03 12.212zM10.425 6.581c.427-3.253 2.297-4.834 5.718-4.834 3.422 0 5.292 1.581 5.718 4.834.148 1.128.086 2.351-.184 3.633-1.32 6.254-4.466 10.223-5.534 11.427-1.068-1.205-4.214-5.175-5.533-11.427-.27-1.282-.332-2.504-.185-3.633z"></path><path d="M16.144 11.59a4.277 4.277 0 0 0 4.273-4.274 4.277 4.277 0 0 0-4.273-4.272 4.277 4.277 0 0 0-4.273 4.272 4.277 4.277 0 0 0 4.273 4.273zm0-7.382a3.113 3.113 0 0 1 3.11 3.109 3.113 3.113 0 0 1-3.11 3.11 3.113 3.113 0 0 1-3.11-3.11 3.113 3.113 0 0 1 3.11-3.11zM18.28 21.62a.581.581 0 1 0 .244 1.137c.34-.072.71-.133 1.097-.182a.58.58 0 0 0 .505-.648.576.576 0 0 0-.649-.506c-.42.052-.823.119-1.197.198zM21.288 21.856a.581.581 0 0 0 .58.556h.026l1.164-.049a.581.581 0 0 0 .554-.607.596.596 0 0 0-.607-.555l-1.161.049a.58.58 0 0 0-.556.606zM13.047 24.532a15.56 15.56 0 0 1-.919.644.582.582 0 0 0 .634.976c.333-.217.666-.45.986-.691a.583.583 0 0 0-.7-.93zM26.01 20.696c-.196.138-.451.238-.782.306a.581.581 0 1 0 .235 1.14c.49-.101.888-.263 1.22-.496l.077-.057a.582.582 0 0 0-.702-.928l-.047.035zM5.153 25.244a.581.581 0 1 0-1.123-.303 3.89 3.89 0 0 0-.119 1.364.582.582 0 0 0 1.158-.12 2.325 2.325 0 0 1-.007-.37c.01-.189.04-.381.09-.57zM25.999 16.175a3.42 3.42 0 0 0-1.388.105.581.581 0 1 0 .316 1.12c.302-.085.614-.112.916-.071a.582.582 0 1 0 .156-1.153zM27.155 19.057a.582.582 0 0 0 1.11.343 2.479 2.479 0 0 0 .112-.705c0-.273-.05-.546-.148-.81a.582.582 0 0 0-1.09.404c.05.135.075.272.075.405l-.002.068a1.302 1.302 0 0 1-.057.295zM10.167 26.27c-.34.16-.688.307-1.031.44a.581.581 0 1 0 .419 1.086c.37-.143.742-.302 1.107-.473a.581.581 0 1 0-.495-1.054zM5.934 23.848a.581.581 0 0 0 .278-.071c.168-.092.346-.149.53-.168a.942.942 0 0 1 .236 0 .581.581 0 1 0 .152-1.153 2.152 2.152 0 0 0-.518-.004 2.585 2.585 0 0 0-.957.303.58.58 0 0 0 .28 1.093zM5.812 28.408c.126.033.254.057.38.072.15.018.299.028.448.028.182 0 .365-.013.547-.036a.581.581 0 1 0-.146-1.154c-.235.03-.472.037-.707.008a1.94 1.94 0 0 1-.229-.043.582.582 0 0 0-.293 1.125z"></path>
		</symbol>
	
		<symbol id="delivery-region" viewBox="0 0 46 37">
			<path d="M33.063 30.219a2.156 2.156 0 1 0 0 4.312 2.156 2.156 0 0 0 0-4.312zm0 2.875a.718.718 0 1 1 0-1.437.718.718 0 0 1 0 1.437zM7.906 30.219a2.156 2.156 0 1 0 0 4.313 2.156 2.156 0 0 0 0-4.313zm0 2.875a.719.719 0 1 1 0-1.437.719.719 0 0 1 0 1.437z"></path><path d="M41.688 35.25H36.27a4.29 4.29 0 0 0 1.107-2.875h1.438a.719.719 0 0 0 .718-.719v-14A9.338 9.338 0 1 0 26.137 7.219H11.5a.719.719 0 0 0-.719.718v6.47H4.313a.72.72 0 0 0-.697.543l-.718 2.875a.719.719 0 0 0 .697.894h.517L3.034 23.03h-.877a.719.719 0 0 0-.719.654L.72 31.592a.719.719 0 0 0 .718.783h2.157a4.29 4.29 0 0 0 1.107 2.875H1.438a.719.719 0 1 0 0 1.438h40.25a.719.719 0 0 0 0-1.438zM12.22 32.375H28.75a4.29 4.29 0 0 0 1.107 2.875H11.113a4.29 4.29 0 0 0 1.107-2.875zm17.968 0a2.875 2.875 0 1 1 5.75 0 2.875 2.875 0 0 1-5.75 0zm7.907-1.438h-.97a4.306 4.306 0 0 0-8.122 0H12.22V24.47h25.875v6.468zM35.22 1.47a7.906 7.906 0 1 1-7.906 7.906 7.915 7.915 0 0 1 7.906-7.906zm-23 7.187h13.693a9.123 9.123 0 0 0-.037.719 9.334 9.334 0 0 0 12.219 8.887v4.77H12.22V8.655zm-7.345 7.188h5.907v1.437H4.515l.36-1.437zm.719 2.875h5.188v4.312H4.515l1.079-4.312zM2.229 30.937l.588-6.468h7.965v4.7a4.299 4.299 0 0 0-6.936 1.768H2.23zm2.803 1.438a2.875 2.875 0 1 1 5.75 0 2.875 2.875 0 0 1-5.75 0zM44.563 35.25h-.72a.719.719 0 1 0 0 1.438h.72a.719.719 0 1 0 0-1.438z"></path><path d="M14.375 27.344H28.75a.719.719 0 0 0 0-1.438H14.375a.719.719 0 0 0 0 1.438zM34.818 9.972l3.593 2.411a.72.72 0 0 0 .803-1.194l-3.276-2.197V3.625a.719.719 0 1 0-1.438 0v5.75a.72.72 0 0 0 .318.597z"></path>
		</symbol>
	
		<symbol id="delivery-samo" viewBox="0 0 34 34">
			<path d="M28.08 0H5.92L0 9.47V34h34V9.47L28.08 0zm4.331 9.067H17.567V1.133h9.886l4.958 7.934zM6.547 1.133h9.886v7.934H1.59l4.958-7.934zM1.133 32.867V10.2h31.734v22.667H1.133z"></path><path d="M20.4 13.033h-6.8c-.937 0-1.7.763-1.7 1.7 0 .938.763 1.7 1.7 1.7h6.8c.938 0 1.7-.762 1.7-1.7 0-.937-.762-1.7-1.7-1.7zm0 2.267h-6.8a.567.567 0 0 1 0-1.133h6.8a.567.567 0 0 1 0 1.133zM21.534 29.467h-9.067a.567.567 0 1 0 0 1.133h9.067a.567.567 0 1 0 0-1.133zM14.167 28.333a.567.567 0 0 0 .567-.566v-3.732l.733.732a.565.565 0 0 0 .8 0 .566.566 0 0 0 0-.801l-1.699-1.7a.568.568 0 0 0-.802 0l-1.7 1.7a.566.566 0 1 0 .802.801l.732-.732v3.732c0 .313.254.566.567.566zM20.234 22.267a.568.568 0 0 0-.802 0l-1.7 1.699a.566.566 0 1 0 .802.801l.733-.732v3.732a.567.567 0 1 0 1.133 0v-3.732l.733.732a.565.565 0 0 0 .8 0 .566.566 0 0 0 0-.801l-1.699-1.7z"></path>
		</symbol>
	
		<symbol id="footer-fb" viewBox="0 0 27 26">
			<path d="M13.592.25C6.5.25.75 6 .75 13.092c0 7.093 5.75 12.842 12.842 12.842 7.093 0 12.842-5.75 12.842-12.842C26.434 6 20.684.25 13.592.25zm4.9 6.54h-1.777c-1.393 0-1.662.663-1.662 1.634v2.141h3.322l-.002 3.354h-3.32v8.608H11.59v-8.608H8.693v-3.354h2.896V8.092c0-2.87 1.754-4.434 4.314-4.434l2.589.004V6.79z" fill="#fff"></path>
		</symbol>
	
		<symbol id="footer-insta" viewBox="0 0 26 26">
			<path d="M15 13a2 2 0 1 1-4 0 2 2 0 0 1 4 0z" fill="#fff"></path><path d="M18.705 8.684a2.268 2.268 0 0 0-.547-.842 2.266 2.266 0 0 0-.842-.547c-.258-.1-.645-.22-1.358-.252C15.186 7.008 14.954 7 13 7c-1.954 0-2.186.007-2.957.043-.714.032-1.102.151-1.36.252a2.264 2.264 0 0 0-.84.547c-.244.236-.43.524-.548.842-.1.257-.22.645-.252 1.359C7.008 10.814 7 11.046 7 13s.008 2.186.043 2.958c.032.713.151 1.1.252 1.358.117.318.304.606.547.842.236.243.524.43.842.547.257.1.645.22 1.359.252.771.036 1.003.043 2.957.043s2.186-.007 2.957-.043c.714-.032 1.101-.151 1.36-.252a2.424 2.424 0 0 0 1.388-1.389c.1-.258.22-.645.252-1.358.036-.772.043-1.004.043-2.958 0-1.954-.007-2.186-.043-2.957-.032-.714-.151-1.102-.252-1.36zM13 16.758a3.758 3.758 0 1 1 0-7.516 3.758 3.758 0 0 1 0 7.516zm3.907-6.787a.878.878 0 1 1 0-1.756.878.878 0 0 1 0 1.756z" fill="#fff"></path><path d="M13 0C5.821 0 0 5.821 0 13s5.821 13 13 13 13-5.821 13-13S20.179 0 13 0zm7.42 16.078c-.036.794-.163 1.337-.347 1.812a3.817 3.817 0 0 1-2.183 2.183c-.475.184-1.018.31-1.812.347-.796.036-1.05.045-3.078.045-2.027 0-2.281-.009-3.078-.045-.794-.037-1.337-.163-1.811-.347a3.659 3.659 0 0 1-1.323-.861 3.658 3.658 0 0 1-.86-1.322c-.185-.475-.312-1.018-.348-1.812-.036-.796-.045-1.05-.045-3.078 0-2.027.009-2.282.045-3.078.036-.794.162-1.337.347-1.812.187-.498.481-.949.861-1.322.373-.38.824-.673 1.322-.86.475-.185 1.018-.312 1.812-.348.796-.036 1.05-.045 3.078-.045 2.027 0 2.282.009 3.078.045.794.036 1.337.163 1.812.347.498.187.95.481 1.322.861.38.373.674.824.86 1.322.186.475.312 1.018.348 1.812.036.796.045 1.05.045 3.078 0 2.027-.009 2.282-.045 3.078z" fill="#fff"></path>
		</symbol>
	
		<symbol id="footer-vk" viewBox="0 0 26 26">
			<path d="M12.842.25C5.75.25 0 6 0 13.092c0 7.093 5.75 12.842 12.842 12.842 7.092 0 12.842-5.75 12.842-12.842C25.684 6 19.934.25 12.842.25zm6.514 14.231c.599.585 1.232 1.135 1.77 1.78.238.285.462.58.633.912.244.474.023.992-.4 1.02h-2.631c-.68.056-1.22-.218-1.676-.682-.364-.37-.702-.766-1.052-1.149a2.459 2.459 0 0 0-.474-.421c-.359-.234-.67-.162-.876.213-.21.38-.257.803-.277 1.228-.029.62-.216.782-.838.811-1.33.063-2.592-.14-3.765-.81-1.035-.591-1.836-1.426-2.534-2.371-1.359-1.843-2.4-3.865-3.335-5.945-.21-.468-.056-.72.46-.729a73.203 73.203 0 0 1 2.577 0c.35.005.58.205.715.535a15.987 15.987 0 0 0 1.745 3.235c.19.268.384.536.66.725.305.21.538.14.681-.2.092-.216.132-.448.152-.68.068-.793.076-1.587-.042-2.377-.073-.495-.352-.815-.845-.908-.251-.048-.214-.14-.092-.284.212-.248.41-.402.808-.402h2.972c.469.092.574.302.637.774l.003 3.303c-.006.183.092.724.42.844.262.086.436-.124.593-.29.713-.757 1.22-1.65 1.675-2.574.201-.408.374-.83.543-1.252.125-.312.32-.466.672-.46l2.862.003c.084 0 .17 0 .254.015.482.082.614.29.465.76-.235.74-.691 1.356-1.137 1.973-.479.662-.989 1.3-1.462 1.963-.435.607-.4.913.14 1.44z" fill="#fff"></path>
		</symbol>
	
		<symbol id="footer-youtube" viewBox="0 0 27 26">
			<path d="M7.247 14.04h1.018v5.51h.963v-5.51h1.037v-.902H7.247v.902zM15.391 14.714c-.318 0-.615.174-.895.518v-2.095h-.865v6.414h.865v-.463c.29.357.587.529.895.529.345 0 .577-.182.692-.537.058-.203.088-.521.088-.963v-1.903c0-.453-.03-.768-.088-.96-.115-.359-.347-.54-.692-.54zm-.086 3.47c0 .432-.127.645-.377.645-.142 0-.287-.068-.432-.213v-2.912c.145-.143.29-.211.432-.211.25 0 .377.221.377.652v2.04zM12.015 18.424c-.192.271-.374.405-.548.405-.115 0-.181-.068-.202-.202-.008-.028-.008-.134-.008-.337v-3.518h-.866v3.778c0 .338.03.566.076.71.087.243.28.357.558.357.319 0 .646-.193.99-.587v.521h.867v-4.779h-.867v3.652zM12.758 10.357c.282 0 .418-.224.418-.67V7.655c0-.447-.136-.67-.418-.67s-.417.224-.417.67v2.032c0 .447.135.67.417.67z" fill="#fff"></path><path d="M13.342.25C6.25.25.5 6 .5 13.092c0 7.093 5.75 12.842 12.842 12.842 7.093 0 12.842-5.75 12.842-12.842C26.184 6 20.434.25 13.342.25zm1.428 6.007h.873v3.555c0 .205 0 .312.01.34.02.136.089.205.206.205.175 0 .359-.135.553-.41v-3.69h.875v4.829h-.875v-.527c-.349.4-.68.593-1 .593-.282 0-.476-.114-.564-.358-.048-.147-.078-.378-.078-.719V6.258zM11.466 7.83c0-.516.087-.893.273-1.137.242-.33.583-.496 1.02-.496.438 0 .778.165 1.02.496.184.243.271.621.271 1.137v1.691c0 .514-.088.894-.27 1.136-.243.33-.583.494-1.022.494-.436 0-.777-.164-1.019-.494-.186-.242-.273-.622-.273-1.136v-1.69zm-2.34-3.226l.688 2.545.662-2.545h.982L10.29 8.461v2.625h-.97V8.461c-.088-.465-.282-1.146-.593-2.05-.205-.601-.418-1.205-.622-1.806h1.02zm11.13 15.368a1.81 1.81 0 0 1-1.55 1.408c-1.776.198-3.574.199-5.365.198-1.79 0-3.588 0-5.365-.198a1.81 1.81 0 0 1-1.548-1.408c-.25-1.085-.25-2.27-.25-3.387s.003-2.302.253-3.387a1.809 1.809 0 0 1 1.548-1.408c1.777-.198 3.575-.2 5.365-.198 1.79-.001 3.589 0 5.366.198a1.81 1.81 0 0 1 1.549 1.408c.249 1.085.247 2.27.247 3.387s0 2.302-.25 3.387z" fill="#fff"></path><path d="M18.15 14.714c-.444 0-.788.162-1.038.49-.183.241-.267.615-.267 1.125v1.674c0 .508.094.884.278 1.124.25.326.595.49 1.048.49.452 0 .807-.172 1.047-.519.105-.153.173-.327.202-.519a6.72 6.72 0 0 0 .018-.558v-.126h-.883c0 .347-.011.54-.019.587-.049.231-.174.347-.387.347-.297 0-.443-.22-.443-.663v-.847h1.732v-.99c0-.51-.086-.884-.268-1.126-.242-.326-.586-.49-1.02-.49zm.423 1.884h-.866v-.442c0-.442.145-.663.434-.663.287 0 .432.221.432.663v.442z" fill="#fff"></path>
		</symbol>
	
		<symbol id="i-arrow-left" viewBox="0 0 21 16">
			<path d="M.293 7.293a1 1 0 0 0 0 1.414l6.364 6.364a1 1 0 0 0 1.414-1.414L2.414 8l5.657-5.657A1 1 0 0 0 6.657.93L.293 7.293zM21 7H1v2h20V7z"></path>
		</symbol>
	
		<symbol id="i-availability" viewBox="0 0 13 13">
			<path d="M6.5 0A6.481 6.481 0 0 0 0 6.5C0 10.104 2.895 13 6.5 13c3.604 0 6.5-2.896 6.5-6.5C13 2.895 10.104 0 6.5 0zm3.752 4.461L5.525 9.366a.268.268 0 0 1-.207.089c-.088 0-.177-.03-.207-.09l-2.304-2.48-.06-.06a.32.32 0 0 1-.088-.207c0-.059.03-.148.089-.207l.413-.413a.286.286 0 0 1 .414 0l.03.03L5.23 7.77c.059.06.147.06.206 0l3.96-4.106h.029a.286.286 0 0 1 .414 0l.413.413c.118.089.118.266 0 .384z" fill="#2C9"></path>
		</symbol>
	
		<symbol id="i-cancel" viewBox="0 0 19 19">
			<path d="M10.914 9.5l7.793-7.793A1 1 0 0 0 17.293.293L9.5 8.086 1.707.293A1 1 0 1 0 .293 1.707L8.086 9.5.293 17.293a1 1 0 1 0 1.414 1.414L9.5 10.914l7.793 7.793a1 1 0 0 0 1.414-1.414L10.914 9.5z"></path>
		</symbol>
	
		<symbol id="i-checkbox" viewBox="0 0 16 16">
			<path d="M4.356 6.311L3.11 7.556l4 4L16 2.666l-1.244-1.244L7.11 9.067 4.356 6.31zm9.866 7.911H1.778V1.778h8.889V0h-8.89C.8 0 0 .8 0 1.778v12.444C0 15.2.8 16 1.778 16h12.444C15.2 16 16 15.2 16 14.222v-7.11h-1.778v7.11z" fill="#F15E27"></path>
		</symbol>
	
		<symbol id="i-checklist" viewBox="0 0 32 32">
			<path d="M25 9.5h-9a.625.625 0 1 0 0 1.25h9a.625.625 0 1 0 0-1.25zM22.813 12.683a.63.63 0 0 0-.442-.183.63.63 0 0 0-.442.183.63.63 0 0 0-.183.442.63.63 0 0 0 .183.442.63.63 0 0 0 .442.183.63.63 0 0 0 .442-.183.63.63 0 0 0 .183-.442.63.63 0 0 0-.183-.442zM16.441 2.87A.63.63 0 0 0 16 2.689a.63.63 0 0 0-.442.183.63.63 0 0 0-.183.442.63.63 0 0 0 .183.441.63.63 0 0 0 .442.184.63.63 0 0 0 .442-.184.63.63 0 0 0 .183-.441.63.63 0 0 0-.183-.442zM19.742 12.5H16a.625.625 0 1 0 0 1.25h3.742a.625.625 0 1 0 0-1.25zM25 16.25h-9a.625.625 0 1 0 0 1.25h9a.625.625 0 1 0 0-1.25zM22.813 19.433a.63.63 0 0 0-.442-.183.63.63 0 0 0-.442.183.63.63 0 0 0-.183.442.63.63 0 0 0 .183.442.63.63 0 0 0 .442.183.63.63 0 0 0 .442-.183.63.63 0 0 0 .183-.442.63.63 0 0 0-.183-.442zM19.742 19.25H16a.625.625 0 1 0 0 1.25h3.742a.625.625 0 1 0 0-1.25zM25 23h-9a.625.625 0 1 0 0 1.25h9A.625.625 0 1 0 25 23zM22.813 26.183a.63.63 0 0 0-.442-.183.63.63 0 0 0-.442.183.63.63 0 0 0-.183.442.63.63 0 0 0 .183.442.63.63 0 0 0 .442.183.63.63 0 0 0 .442-.183.63.63 0 0 0 .183-.442.63.63 0 0 0-.183-.442zM19.742 26H16a.625.625 0 0 0 0 1.25h3.742a.625.625 0 1 0 0-1.25z"></path><path d="M26.203 2.438h-4.774a3.83 3.83 0 0 0-2.65-1.063h-.547A2.508 2.508 0 0 0 16 0c-.954 0-1.814.546-2.232 1.375h-.55a3.83 3.83 0 0 0-2.648 1.063H5.797A3.05 3.05 0 0 0 2.75 5.485v23.468A3.05 3.05 0 0 0 5.797 32h20.406a3.05 3.05 0 0 0 3.047-3.047V5.485a3.05 3.05 0 0 0-3.047-3.047zm-12.984.187h.974a.625.625 0 0 0 .602-.459c.15-.54.645-.916 1.205-.916s1.056.377 1.205.916c.075.271.321.459.602.459h.973A2.597 2.597 0 0 1 21.364 5h-10.73a2.597 2.597 0 0 1 2.585-2.375zM28 28.953a1.8 1.8 0 0 1-1.797 1.797H5.797A1.8 1.8 0 0 1 4 28.953V5.485a1.8 1.8 0 0 1 1.797-1.797h3.897a3.82 3.82 0 0 0-.319 1.53v.407c0 .345.28.625.625.625h11.999c.345 0 .625-.28.625-.625V5.22a3.82 3.82 0 0 0-.32-1.531h3.899A1.8 1.8 0 0 1 28 5.485v23.468z"></path><path d="M12.026 9.35a.625.625 0 0 0-.884 0l-2.673 2.672-.823-.823a.625.625 0 0 0-.884.884l1.265 1.265a.623.623 0 0 0 .884 0l3.115-3.114a.625.625 0 0 0 0-.884zM10.5 23h-3a.625.625 0 0 0-.625.625v3c0 .345.28.625.625.625h3c.345 0 .625-.28.625-.625v-3A.625.625 0 0 0 10.5 23zm-.625 3h-1.75v-1.75h1.75V26zM10.5 16.25h-3a.625.625 0 0 0-.625.625v3c0 .345.28.625.625.625h3c.345 0 .625-.28.625-.625v-3a.625.625 0 0 0-.625-.625zm-.625 3h-1.75V17.5h1.75v1.75z"></path>
		</symbol>
	
		<symbol id="i-close" viewBox="0 0 9 9">
			<path d="M6.024 4.5l2.66-2.66A1.078 1.078 0 1 0 7.162.318L4.5 2.977 1.84.317A1.078 1.078 0 0 0 .316 1.84l2.66 2.66-2.66 2.66A1.078 1.078 0 1 0 1.84 8.685l2.66-2.66 2.66 2.66a1.073 1.073 0 0 0 1.525 0c.42-.42.42-1.103 0-1.524l-2.66-2.66z"></path>
		</symbol>
	
		<symbol id="i-compare" viewBox="0 0 17 22">
			<path d="M1 22V11M6 22V0M11 22V7M16 22V11"></path>
		</symbol>
	
		<symbol id="i-eye" viewBox="0 0 19 10">
			<path d="M18.821 4.63C18.652 4.44 14.581 0 9.481 0 4.383 0 .312 4.44.142 4.63a.556.556 0 0 0 0 .74c.17.19 4.241 4.63 9.34 4.63 5.1 0 9.171-4.44 9.34-4.63a.556.556 0 0 0 0-.74zm-9.34 4.259A3.894 3.894 0 0 1 5.594 5a3.894 3.894 0 0 1 3.889-3.889A3.894 3.894 0 0 1 13.37 5a3.894 3.894 0 0 1-3.888 3.889z" fill="#4483CE"></path><path d="M10.037 3.889c0-.559.278-1.05.7-1.353a2.742 2.742 0 0 0-1.255-.314A2.781 2.781 0 0 0 6.704 5a2.781 2.781 0 0 0 2.778 2.778 2.777 2.777 0 0 0 2.73-2.31 1.657 1.657 0 0 1-2.175-1.58z" fill="#4483CE"></path>
		</symbol>
	
		<symbol id="i-gear" viewBox="0 0 28 28">
			<path d="M14.001 16.413a2.413 2.413 0 1 0 0-4.826 2.413 2.413 0 0 0 0 4.826z" fill="#4483CE"></path><path d="M27.432 11.608l-3.373-.632a10.372 10.372 0 0 0-.807-1.952l1.952-2.853a.724.724 0 0 0-.084-.887l-2.406-2.407a.723.723 0 0 0-.886-.083l-2.855 1.953a10.425 10.425 0 0 0-2.011-.823L16.332.57A.724.724 0 0 0 15.648 0h-3.403a.725.725 0 0 0-.686.57l-.636 3.387c-.674.207-1.321.475-1.93.807L6.174 2.836a.724.724 0 0 0-.887.083L2.88 5.325a.725.725 0 0 0-.083.887l1.94 2.836c-.326.609-.591 1.255-.794 1.929l-3.372.631a.725.725 0 0 0-.569.687v3.402c0 .32.255.627.569.687l3.37.632c.205.688.476 1.348.811 1.968l-1.918 2.804a.723.723 0 0 0 .083.887l2.406 2.406a.726.726 0 0 0 .887.084l2.803-1.919c.603.326 1.243.591 1.91.797l.636 3.389c.06.314.366.568.686.568h3.403c.321 0 .626-.254.686-.568l.63-3.356a10.538 10.538 0 0 0 1.99-.811l2.839 1.942c.264.18.661.144.887-.084l2.405-2.405a.724.724 0 0 0 .084-.887l-1.931-2.822c.34-.628.615-1.295.824-1.992l3.37-.632a.726.726 0 0 0 .567-.687v-3.402a.722.722 0 0 0-.567-.688zm-13.43 8.232a5.84 5.84 0 1 1 .002-11.68 5.84 5.84 0 0 1-.002 11.68z" fill="#4483CE"></path>
		</symbol>
	
		<symbol id="i-glass" viewBox="0 0 25 25">
			<path d="M24.694 23.224l-6.01-6.01a10.498 10.498 0 0 0 2.387-6.678C21.071 4.719 16.352 0 10.536 0 4.714 0 0 4.72 0 10.536S4.714 21.07 10.536 21.07a10.48 10.48 0 0 0 6.673-2.382l6.01 6.005a1.041 1.041 0 0 0 1.475-1.47zm-14.158-4.25c-4.658 0-8.444-3.785-8.444-8.438 0-4.653 3.786-8.444 8.444-8.444 4.653 0 8.444 3.79 8.444 8.444 0 4.653-3.791 8.438-8.444 8.438z"></path>
		</symbol>
	
		<symbol id="i-newspaper" viewBox="0 0 34 34">
			<path d="M17.567 9.067H9.633V17h7.934V9.067zm-1.134 6.8h-5.666V10.2h5.666v5.667zM29.467 9.067H20.4a.566.566 0 1 0 0 1.133h9.067a.566.566 0 1 0 0-1.133zM29.467 12.467H20.4a.566.566 0 1 0 0 1.133h9.067a.566.566 0 1 0 0-1.133zM29.467 15.867H20.4a.566.566 0 1 0 0 1.133h9.067a.566.566 0 1 0 0-1.133zM29.467 19.267h-18.7a.566.566 0 1 0 0 1.133h18.7a.566.566 0 1 0 0-1.133zM19.267 22.667h-8.5a.566.566 0 1 0 0 1.133h8.5a.566.566 0 1 0 0-1.133zM19.267 26.067h-8.5a.566.566 0 1 0 0 1.133h8.5a.566.566 0 1 0 0-1.133zM19.267 29.467h-8.5a.566.566 0 1 0 0 1.133h8.5a.566.566 0 1 0 0-1.133zM22.1 30.6h7.933v-7.933H22.1V30.6zm1.133-6.8H28.9v5.667h-5.667V23.8z" fill="#000"></path><path d="M33.433 7.367c0-.01-.005-.018-.005-.028V0H6.233v17H.567v13.6c0 1.875 1.525 3.4 3.4 3.4h26.066a3.399 3.399 0 0 0 3.395-3.394V7.394c0-.01.005-.018.005-.027zm-1.139-6.234V6.8H7.367V1.133h24.927zM1.7 30.6V18.133h4.533V30.6a2.269 2.269 0 0 1-2.266 2.267A2.269 2.269 0 0 1 1.7 30.6zm28.333 2.267H6.5c.01-.01.015-.022.024-.033a3.386 3.386 0 0 0 .599-.975l.025-.07c.066-.173.119-.352.155-.537l.008-.051c.035-.195.057-.396.057-.601V7.933h24.927v22.673a2.264 2.264 0 0 1-2.26 2.26z" fill="#000"></path><path d="M26.633 2.267h-13.6v3.4h13.6v-3.4zM25.5 4.533H14.167V3.4H25.5v1.133z" fill="#000"></path>
		</symbol>
	
		<symbol id="i-not-availability" viewBox="0 0 16 13">
			<path d="M7.293 12.707a1 1 0 0 0 1.414 0l6.364-6.364a1 1 0 0 0-1.414-1.414L8 10.586 2.343 4.929A1 1 0 0 0 .93 6.343l6.364 6.364zM7 0v12h2V0H7z" fill="#005594"></path>
		</symbol>
	
		<symbol id="i-ok" viewBox="0 0 286.054 286.054">
			<path d="M143.031 0C64.027 0 .004 64.04.004 143.027c0 78.996 64.031 143.027 143.027 143.027 78.987 0 143.018-64.031 143.018-143.027C286.049 64.049 222.018 0 143.031 0zm0 259.236c-64.183 0-116.209-52.026-116.209-116.209S78.857 26.818 143.031 26.818s116.2 52.026 116.2 116.209-52.025 116.209-116.2 116.209zm56.21-177.049c-6.079-3.629-13.847-1.475-17.342 4.827l-47.959 86.147-26.71-32.512c-4.836-5.569-11.263-8.456-17.333-4.827-6.079 3.638-8.591 12.39-4.657 18.004l37.169 45.241c2.78 3.611 5.953 5.775 9.27 6.392l.027.054.34.018c.751.116 11.979 2.19 16.815-6.463l55.048-98.876c3.493-6.313 1.411-14.367-4.668-18.005z" fill="#f15e27"></path>
		</symbol>
	
		<symbol id="i-pdf" viewBox="0 0 19 19">
			<g opacity=".5" fill="#fff"><path d="M5.532 9.735c0-.511-.355-.817-.982-.817-.256 0-.429.025-.52.05v1.643c.108.024.24.032.42.032.67 0 1.082-.338 1.082-.908zM9.413 8.935a2.62 2.62 0 0 0-.57.05v3.64c.108.025.28.025.438.025 1.139.008 1.882-.62 1.882-1.949.008-1.156-.669-1.766-1.75-1.766z"></path><path d="M16.848 6.796h-.456V4.595c0-.014-.002-.028-.004-.042a.366.366 0 0 0-.088-.24L12.636.126l-.002-.002a.369.369 0 0 0-.075-.062l-.024-.015a.385.385 0 0 0-.074-.03.372.372 0 0 0-.106-.017H3.354a.746.746 0 0 0-.745.744v6.051h-.456c-.588 0-1.065.477-1.065 1.065v5.538c0 .588.477 1.065 1.065 1.065h.456v3.79c0 .412.334.746.745.746h12.294c.41 0 .745-.334.745-.745v-3.791h.456c.588 0 1.065-.477 1.065-1.065V7.861c0-.588-.477-1.065-1.065-1.065zM3.353.746h8.63v3.811c0 .206.167.373.373.373h3.291v1.866H3.353V.746zM12.5 10.66c0 1.065-.388 1.8-.925 2.254-.586.486-1.478.718-2.567.718a10.94 10.94 0 0 1-1.428-.083V8.084a11.257 11.257 0 0 1 1.7-.115c1.057 0 1.742.19 2.279.594.577.43.94 1.115.94 2.097zm-9.716 2.914v-5.49c.388-.065.933-.115 1.7-.115.776 0 1.33.149 1.7.446.356.28.594.743.594 1.288s-.18 1.007-.511 1.32c-.43.405-1.065.587-1.808.587-.165 0-.314-.009-.429-.025v1.989H2.784zm12.863 4.48H3.353v-3.59h12.294v3.59zm1.08-9.012h-2.139v1.271h1.998v1.024h-1.998v2.237h-1.262V8.01h3.4v1.032z"></path></g>
		</symbol>
	
		<symbol id="i-pdf-red" viewBox="0 0 19 19">
			<path d="M5.532 9.735c0-.511-.355-.817-.982-.817-.256 0-.429.025-.52.05v1.643c.108.024.24.032.42.032.67 0 1.082-.338 1.082-.908zM9.413 8.935a2.62 2.62 0 0 0-.57.05v3.64c.108.025.28.025.438.025 1.139.008 1.882-.62 1.882-1.949.008-1.156-.669-1.766-1.75-1.766z"></path><path d="M16.848 6.796h-.456V4.595c0-.014-.002-.028-.004-.042a.366.366 0 0 0-.088-.24L12.636.126l-.002-.002a.369.369 0 0 0-.075-.062l-.024-.015a.385.385 0 0 0-.074-.03.372.372 0 0 0-.106-.017H3.354a.746.746 0 0 0-.745.744v6.051h-.456c-.588 0-1.065.477-1.065 1.065v5.538c0 .588.477 1.065 1.065 1.065h.456v3.79c0 .412.334.746.745.746h12.294c.41 0 .745-.334.745-.745v-3.791h.456c.588 0 1.065-.477 1.065-1.065V7.861c0-.588-.477-1.065-1.065-1.065zM3.353.746h8.63v3.811c0 .206.167.373.373.373h3.291v1.866H3.353V.746zM12.5 10.66c0 1.065-.388 1.8-.925 2.254-.586.486-1.478.718-2.567.718a10.94 10.94 0 0 1-1.428-.083V8.084a11.257 11.257 0 0 1 1.7-.115c1.057 0 1.742.19 2.279.594.577.43.94 1.115.94 2.097zm-9.716 2.914v-5.49c.388-.065.933-.115 1.7-.115.776 0 1.33.149 1.7.446.356.28.594.743.594 1.288s-.18 1.007-.511 1.32c-.43.405-1.065.587-1.808.587-.165 0-.314-.009-.429-.025v1.989H2.784zm12.863 4.48H3.353v-3.59h12.294v3.59zm1.08-9.012h-2.139v1.271h1.998v1.024h-1.998v2.237h-1.262V8.01h3.4v1.032z"></path>
		</symbol>
	
		<symbol id="i-pencil" viewBox="0 0 18 18">
			<g clip-path="url(#a)"><path d="M9 0a9 9 0 1 0 0 18A9 9 0 0 0 9 0zm4.278 6.477l-.855.855-1.74-1.74-.66.66 1.74 1.74-4.268 4.267-1.74-1.74-.66.66 1.74 1.74-.425.426-.008-.008a.337.337 0 0 1-.215.154l-1.623.362a.333.333 0 0 1-.312-.09.337.337 0 0 1-.09-.313l.361-1.622a.338.338 0 0 1 .155-.215l-.008-.008 6.868-6.869c.1-.1.264-.1.365 0l1.375 1.376c.1.1.1.264 0 .365z" fill="#C4C4C4"></path></g><defs><clipPath id="a"><path fill="#fff" d="M0 0h18v18H0z"></path></clipPath></defs>
		</symbol>
	
		<symbol id="i-phone" viewBox="0 0 17 17">
			<path d="M12.925 11.246c-.556-.549-1.25-.549-1.801 0-.421.417-.842.835-1.256 1.26-.113.116-.209.14-.347.063-.272-.149-.562-.269-.824-.432-1.22-.767-2.243-1.754-3.148-2.865-.45-.552-.85-1.143-1.129-1.808-.056-.134-.046-.223.064-.332.42-.407.831-.825 1.245-1.242.577-.58.577-1.26-.003-1.843-.33-.333-.658-.658-.987-.99-.34-.34-.676-.683-1.02-1.02-.555-.54-1.248-.54-1.8.004-.424.418-.831.846-1.263 1.256-.4.379-.601.842-.643 1.383-.068.881.148 1.712.452 2.522.623 1.677 1.571 3.166 2.72 4.532a16.835 16.835 0 0 0 5.576 4.362c.976.474 1.988.838 3.088.898.757.043 1.415-.148 1.942-.739.361-.403.768-.771 1.15-1.157.566-.573.57-1.266.007-1.832-.672-.676-1.348-1.348-2.024-2.02zM12.249 8.426l1.305-.222a5.833 5.833 0 0 0-1.63-3.149 5.802 5.802 0 0 0-3.326-1.659l-.184 1.312c.98.138 1.872.58 2.575 1.285a4.501 4.501 0 0 1 1.26 2.433zM14.29 2.752A9.625 9.625 0 0 0 8.771 0l-.183 1.312a8.346 8.346 0 0 1 4.768 2.378 8.34 8.34 0 0 1 2.338 4.51L17 7.977a9.695 9.695 0 0 0-2.71-5.225z"></path>
		</symbol>
	
		<symbol id="i-retry" viewBox="0 0 13 14">
			<path d="M12.5 6.5a.5.5 0 0 0-.5.5 5.5 5.5 0 0 1-9.557 3.713l2.215-.739a.5.5 0 0 0-.316-.95l-3 1A.5.5 0 0 0 1 10.5v3a.5.5 0 1 0 1 0v-1.826A6.487 6.487 0 0 0 13 7a.5.5 0 0 0-.5-.5zM11.5 0a.5.5 0 0 0-.5.5v1.826A6.488 6.488 0 0 0 0 7a.5.5 0 1 0 1 0 5.5 5.5 0 0 1 9.557-3.713l-2.215.739a.5.5 0 1 0 .316.95l3-1A.5.5 0 0 0 12 3.5v-3a.5.5 0 0 0-.5-.5z" fill="#000"></path>
		</symbol>
	
		<symbol id="i-sales" viewBox="0 0 33 33">
			<path d="M32.511 19.83l-1.593-1.594c-.631-.63-1.73-.63-2.362 0l-8.608 8.609-1.186 4.35-.29.291a.558.558 0 0 0-.004.786l-.003.011.01-.003a.556.556 0 0 0 .787-.003l.291-.29 4.35-1.187 8.609-8.608a1.671 1.671 0 0 0 0-2.362zM21.24 27.136l5.73-5.73 2.373 2.373-5.73 5.73-2.372-2.373zm-.505 1.077l1.801 1.8-2.476.676.675-2.476zM31.72 21.4l-1.587 1.588-2.373-2.374 1.588-1.588a.563.563 0 0 1 .779 0l1.594 1.595a.551.551 0 0 1 0 .779zM20.136 18.457h5.034v-6.152H3.915v16.22h11.187V18.457h5.034zm0-5.034h3.915v3.916h-3.915v-3.916zm-10.068 0h3.915v3.916h-3.915v-3.916zm-5.034 0h3.915v3.916H5.034v-3.916zm0 5.034h3.915v3.916H5.034v-3.916zm3.915 8.95H5.034V23.49h3.915v3.916zm5.034 0h-3.915V23.49h3.915v3.916zm0-5.034h-3.915v-3.916h3.915v3.916zm1.119-5.034v-3.916h3.915v3.916h-3.915z" fill="#000"></path><path d="M14.543 31.322H1.119V9.508h26.848v7.271a.56.56 0 1 0 1.118 0V3.356a.56.56 0 0 0-.56-.56H25.73V1.118a.56.56 0 0 0-.56-.56h-3.914a.56.56 0 0 0-.56.56v1.678H8.39V1.118a.56.56 0 0 0-.56-.56H3.916a.56.56 0 0 0-.559.56v1.678H.559a.56.56 0 0 0-.559.56V31.88c0 .31.25.56.56.56h13.983a.56.56 0 1 0 0-1.119zm7.27-29.645h2.798v3.356h-2.797V1.678zm-17.338 0H7.27v3.356H4.475V1.678zM1.119 3.915h2.237v1.678c0 .31.25.56.56.56H7.83a.56.56 0 0 0 .559-.56V3.915h12.305v1.678c0 .31.25.56.56.56h3.915a.56.56 0 0 0 .56-.56V3.915h2.237v4.474H1.119V3.915z" fill="#000"></path>
		</symbol>
	
		<symbol id="i-toggle-arrow" viewBox="0 0 6 12">
			<path d="M5.784 6.594l-4.526 5.16a.675.675 0 0 1-1.042 0 .926.926 0 0 1 0-1.189L4.22 6 .216 1.435a.926.926 0 0 1 0-1.189.675.675 0 0 1 1.042 0l4.526 5.16A.9.9 0 0 1 6 6c0 .215-.072.43-.216.594z" fill="#000"></path>
		</symbol>
	
		<symbol id="i-up" viewBox="0 0 20 25">
			<path d="M8.608 1.303L.377 9.616a1.308 1.308 0 0 0 0 1.836 1.277 1.277 0 0 0 1.819 0L8.23 5.357v18.044c0 .717.576 1.298 1.286 1.298.71 0 1.286-.581 1.286-1.299V5.358l6.036 6.095a1.277 1.277 0 0 0 1.819 0c.25-.253.376-.586.376-.918 0-.333-.125-.665-.376-.919l-8.231-8.312a1.277 1.277 0 0 0-1.82 0z"></path>
		</symbol>
	
		<symbol id="i-user" viewBox="0 0 23 23">
			<path d="M11.5 0C5.149 0 0 5.149 0 11.5 0 17.85 5.149 23 11.5 23 17.85 23 23 17.85 23 11.5 23 5.149 17.85 0 11.5 0zm.035 16.925H6.552c0-3.592 3.155-3.591 3.856-4.53l.08-.429c-.984-.498-1.678-1.7-1.678-3.106 0-1.852 1.204-3.353 2.69-3.353 1.485 0 2.69 1.501 2.69 3.353 0 1.394-.682 2.588-1.653 3.094l.092.487c.768.894 3.818.952 3.818 4.484h-4.912z" fill="#4483CE"></path>
		</symbol>
	
		<symbol id="insta" viewBox="0 0 18 18">
			<path d="M13.127 0H4.872A4.878 4.878 0 0 0 0 4.872v8.256A4.878 4.878 0 0 0 4.872 18h8.256A4.878 4.878 0 0 0 18 13.128V4.872A4.878 4.878 0 0 0 13.127 0zM9 13.922A4.927 4.927 0 0 1 4.078 9 4.927 4.927 0 0 1 9 4.078 4.927 4.927 0 0 1 13.922 9 4.927 4.927 0 0 1 9 13.922zm5.04-8.683a1.456 1.456 0 0 1-1.455-1.454c0-.802.652-1.455 1.454-1.455.802 0 1.455.653 1.455 1.455s-.653 1.454-1.455 1.454z"></path><path d="M9 5.133A3.87 3.87 0 0 0 5.134 9 3.871 3.871 0 0 0 9 12.867 3.87 3.87 0 0 0 12.867 9 3.87 3.87 0 0 0 9 5.133zM14.04 3.386a.4.4 0 1 0 0 .799.4.4 0 0 0 0-.8z"></path>
		</symbol>
	
		<symbol id="pgn-next" viewBox="0 0 7 7">
			<g clip-path="url(#a)"><path d="M5.353 3.847l-3.01 3.01a.49.49 0 1 1-.694-.694L4.313 3.5 1.649.837a.49.49 0 0 1 .694-.693l3.01 3.01a.489.489 0 0 1 0 .693z"></path></g><defs><clipPath id="a"><path fill="#fff" d="M0 0h7v7H0z"></path></clipPath></defs>
		</symbol>
	
		<symbol id="pgn-prev" viewBox="0 0 5 7">
			<path d="M.647 3.153l3.01-3.01a.49.49 0 1 1 .694.694L1.687 3.5l2.664 2.663a.49.49 0 0 1-.694.693l-3.01-3.01a.488.488 0 0 1 0-.693z"></path>
		</symbol>
	
		<symbol id="pr-cart" viewBox="0 0 18 18">
			<path d="M15.831 5.941v-2.87h-2.74V2.18H8.443v1.3H5.703v2.461H4.469L3.195 0H.01v1.055h2.334L5.066 13.76h11.25l1.675-7.819h-2.16zm-2.74-1.816h1.686v1.816H13.09V4.125zm-3.592-.89h2.537V5.94H9.498V3.234zm-2.742 1.3h1.687v1.406H6.757V4.535zm8.707 8.17H5.918L4.695 6.997h11.992l-1.223 5.71zM7.731 14.49c-.968 0-1.755.787-1.755 1.755 0 .968.787 1.755 1.755 1.755.968 0 1.756-.787 1.756-1.755 0-.968-.788-1.756-1.756-1.756zm0 2.455a.701.701 0 1 1 .002-1.402.701.701 0 0 1-.002 1.402zM13.852 14.49c-.968 0-1.755.787-1.755 1.755 0 .968.787 1.755 1.755 1.755.968 0 1.755-.787 1.755-1.755 0-.968-.787-1.756-1.755-1.756zm0 2.455a.701.701 0 1 1 .002-1.402.701.701 0 0 1-.002 1.402z"></path><path d="M8.587 8.138H7.532v3.497h1.055V8.138zM11.294 8.138h-1.055v3.497h1.055V8.138zM14.001 8.138h-1.055v3.497h1.055V8.138z"></path>
		</symbol>
	
		<symbol id="pr-compare" viewBox="0 0 17 22">
			<path d="M1 22V11M6 22V0M11 22V7M16 22V11"></path>
		</symbol>
	
		<symbol id="pr-heart" viewBox="0 0 18 16">
			<path d="M9 16c-.256 0-.503-.093-.696-.261a208.07 208.07 0 0 0-2.047-1.76l-.003-.002c-1.813-1.544-3.38-2.877-4.469-4.19C.567 8.316 0 6.925 0 5.404c0-1.478.507-2.841 1.428-3.84A4.842 4.842 0 0 1 5.028 0a4.53 4.53 0 0 1 2.829.975c.422.327.805.727 1.143 1.193.338-.466.72-.866 1.143-1.193A4.53 4.53 0 0 1 12.973 0c1.39 0 2.668.556 3.6 1.566C17.493 2.564 18 3.927 18 5.405c0 1.52-.567 2.913-1.785 4.381-1.09 1.314-2.655 2.647-4.469 4.19-.62.528-1.322 1.126-2.05 1.763-.193.168-.44.261-.696.261zM5.028 1.053A3.799 3.799 0 0 0 2.203 2.28c-.74.803-1.149 1.912-1.149 3.125 0 1.279.476 2.423 1.543 3.71 1.031 1.242 2.565 2.548 4.341 4.06l.003.003c.621.529 1.325 1.128 2.057 1.768a245.81 245.81 0 0 1 2.064-1.77c1.776-1.513 3.31-2.819 4.341-4.062 1.067-1.286 1.543-2.43 1.543-3.71 0-1.212-.408-2.321-1.149-3.124a3.799 3.799 0 0 0-2.825-1.227c-.8 0-1.535.255-2.184.756-.578.446-.98 1.011-1.216 1.406A.66.66 0 0 1 9 3.54a.66.66 0 0 1-.572-.325c-.236-.395-.638-.96-1.216-1.406a3.499 3.499 0 0 0-2.184-.756z"></path>
		</symbol>
	
		<symbol id="pr-sorting" viewBox="0 0 14 13">
			<path d="M6.941 4.337a.56.56 0 0 1-.773-.055L4.123 1.976v9.215c0 .303-.25.552-.553.552a.556.556 0 0 1-.553-.552V1.976L.972 4.282c-.22.22-.552.25-.773.055-.22-.22-.25-.552-.056-.773L3.156.194a.512.512 0 0 1 .802 0l3.039 3.37a.558.558 0 0 1-.056.773zM13.857 9.422l-2.986 3.37c-.266.269-.598.285-.829 0l-3.039-3.37a.56.56 0 0 1 .056-.773c.34-.271.683-.085.773.056l2.045 2.305V1.822c0-.303.25-.553.553-.553.303 0 .552.22.552.526v9.213l2.046-2.306c.22-.22.552-.25.773-.056.22.223.25.555.056.776z"></path>
		</symbol>
	
		<symbol id="s-fb" viewBox="0 0 96.124 96.123">
			<path d="M72.089.02L59.624 0C45.62 0 36.57 9.285 36.57 23.656v10.907H24.037a1.96 1.96 0 0 0-1.96 1.961v15.803a1.96 1.96 0 0 0 1.96 1.96H36.57v39.876a1.96 1.96 0 0 0 1.96 1.96h16.352a1.96 1.96 0 0 0 1.96-1.96V54.287h14.654a1.96 1.96 0 0 0 1.96-1.96l.006-15.803a1.963 1.963 0 0 0-1.961-1.961H56.842v-9.246c0-4.444 1.059-6.7 6.848-6.7l8.397-.003a1.96 1.96 0 0 0 1.959-1.96V1.98A1.96 1.96 0 0 0 72.089.02z"></path>
		</symbol>
	
		<symbol id="s-insta" viewBox="0 0 60 60">
			<title>Монтажная область 2 копия 10</title><path d="M40.72 6.08H19.28a13.22 13.22 0 0 0-13.2 13.2v21.44a13.21 13.21 0 0 0 13.2 13.2h21.44a13.22 13.22 0 0 0 13.2-13.2V19.28a13.22 13.22 0 0 0-13.2-13.2zm9 34.64a9 9 0 0 1-9 9H19.28a9 9 0 0 1-9-9V19.28a9 9 0 0 1 9-9h21.44a9 9 0 0 1 9 9zm0 0"></path><path d="M30 17.68A12.33 12.33 0 1 0 42.33 30 12.33 12.33 0 0 0 30 17.68zm0 20.4A8.08 8.08 0 1 1 38.08 30 8.08 8.08 0 0 1 30 38.08zm0 0M42.84 14.08A3.11 3.11 0 1 0 45 15a3.13 3.13 0 0 0-2.2-.91zm0 0"></path>
		</symbol>
	
		<symbol id="s-ok" viewBox="0 0 60 60">
			<title>Монтажная область 2 копия 12</title><path d="M27.46 40.56c-4-.42-7.62-1.41-10.71-3.82a12.69 12.69 0 0 1-1.13-.93 3 3 0 0 1-.42-4.32 3 3 0 0 1 4.05-.91 6.09 6.09 0 0 1 .89.52 17.55 17.55 0 0 0 19.46.18 5.3 5.3 0 0 1 1.9-1 3 3 0 0 1 3.41 1.36 2.9 2.9 0 0 1-.21 3.8 15.83 15.83 0 0 1-5.7 3.68 26.66 26.66 0 0 1-6.43 1.43c.33.36.49.54.7.75 3 3 6 6 8.92 9a3 3 0 0 1 .67 3.48 3.53 3.53 0 0 1-3.31 2.06 3.25 3.25 0 0 1-2.09-1.07c-2.2-2.3-4.46-4.52-6.69-6.77-.64-.67-.95-.54-1.51 0-2.26 2.33-4.56 4.62-6.87 6.89a2.88 2.88 0 0 1-3.47.63 3.52 3.52 0 0 1-2-3.24A3.19 3.19 0 0 1 18 50.1l8.82-8.83c.19-.2.37-.41.66-.71zm0 0" fill-rule="evenodd"></path><path d="M29.9 30.32a13.08 13.08 0 1 1 13.15-12.91A13.09 13.09 0 0 1 29.9 30.32zm6.49-13.09A6.4 6.4 0 1 0 30 23.64a6.36 6.36 0 0 0 6.36-6.41zm0 0" fill-rule="evenodd"></path>
		</symbol>
	
		<symbol id="s-tw" viewBox="0 0 612 612">
			<path d="M612 116.258a250.714 250.714 0 0 1-72.088 19.772c25.929-15.527 45.777-40.155 55.184-69.411-24.322 14.379-51.169 24.82-79.775 30.48-22.907-24.437-55.49-39.658-91.63-39.658-69.334 0-125.551 56.217-125.551 125.513 0 9.828 1.109 19.427 3.251 28.606-104.326-5.24-196.835-55.223-258.75-131.174-10.823 18.51-16.98 40.078-16.98 63.101 0 43.559 22.181 81.993 55.835 104.479a125.556 125.556 0 0 1-56.867-15.756v1.568c0 60.806 43.291 111.554 100.693 123.104-10.517 2.83-21.607 4.398-33.08 4.398-8.107 0-15.947-.803-23.634-2.333 15.985 49.907 62.336 86.199 117.253 87.194-42.947 33.654-97.099 53.655-155.916 53.655-10.134 0-20.116-.612-29.944-1.721 55.567 35.681 121.536 56.485 192.438 56.485 230.948 0 357.188-191.291 357.188-357.188l-.421-16.253c24.666-17.593 46.005-39.697 62.794-64.861z"></path>
		</symbol>
	
		<symbol id="s-vk" viewBox="0 0 60 60">
			<title>Монтажная область 2 копия 11</title><path d="M51 34.38a78.73 78.73 0 0 1 5.69 5.72 16.59 16.59 0 0 1 2 2.94c.78 1.52.07 3.19-1.29 3.28h-8.46a6.53 6.53 0 0 1-5.39-2.19c-1.18-1.2-2.26-2.47-3.39-3.7a8.18 8.18 0 0 0-1.52-1.36 1.77 1.77 0 0 0-2.82.69 8.82 8.82 0 0 0-.89 4c-.09 2-.7 2.52-2.7 2.61a21.64 21.64 0 0 1-12.11-2.61A26.79 26.79 0 0 1 12 36.08 102.21 102.21 0 0 1 1.24 17c-.68-1.51-.19-2.32 1.48-2.35q4.14-.07 8.29 0a2.44 2.44 0 0 1 2.3 1.72 51.49 51.49 0 0 0 5.61 10.41 8.92 8.92 0 0 0 2.13 2.33 1.29 1.29 0 0 0 2.19-.64 7.16 7.16 0 0 0 .48-2.19 32.64 32.64 0 0 0-.13-7.65 3.19 3.19 0 0 0-2.72-2.92c-.81-.15-.69-.45-.3-.91a3 3 0 0 1 2.6-1.3h9.57c1.51.3 1.84 1 2 2.49v10.59c0 .59.3 2.33 1.35 2.72.85.27 1.41-.4 1.91-.94a32.59 32.59 0 0 0 5.39-8.28c.65-1.31 1.21-2.67 1.75-4a2 2 0 0 1 2.16-1.48h9.21a5.42 5.42 0 0 1 .81.05c1.56.27 2 .94 1.5 2.45a22.74 22.74 0 0 1-3.66 6.35c-1.54 2.12-3.18 4.18-4.7 6.31-1.4 2-1.29 2.94.45 4.64zm0 0" fill-rule="evenodd"></path>
		</symbol>
	
		<symbol id="searcher" viewBox="0 0 20 20">
			<path d="M14.715 14.715l3.947 3.947m-1.606-9.634A8.028 8.028 0 1 1 1 9.028a8.028 8.028 0 0 1 16.056 0z" fill="transparent"></path>
		</symbol>
	
		<symbol id="slick-next" viewBox="0 0 10 20">
			<path d="M9.64 10.99l-7.543 8.6c-.48.547-1.258.547-1.737 0-.48-.547-.48-1.434 0-1.981l6.674-7.61L.36 2.392C-.12 1.844-.12.957.36.411c.48-.548 1.257-.548 1.737 0L9.64 9.01c.24.273.36.632.36.99s-.12.717-.36.99z" fill="#000"></path>
		</symbol>
	
		<symbol id="slick-prev" viewBox="0 0 10 20">
			<path d="M.36 9.01L7.903.41c.48-.547 1.258-.547 1.737 0 .48.547.48 1.434 0 1.981l-6.674 7.61 6.674 7.608c.48.547.48 1.434 0 1.98-.48.548-1.257.548-1.737 0L.36 10.99A1.502 1.502 0 0 1 0 10c0-.358.12-.717.36-.99z" fill="#000"></path>
		</symbol>
	
</svg>
