<svg width="56" height="56" viewBox="0 0 56 56" fill="none" xmlns="http://www.w3.org/2000/svg">
<path d="M20.125 17.5V15.75C16.2654 15.75 13.125 18.8904 13.125 22.75H14.875C14.875 19.8546 17.2296 17.5 20.125 17.5Z" fill="#4483CE"/>
<path d="M52.5 0.875H31.5C30.0528 0.875 28.875 2.05275 28.875 3.5V5.67875C27.4706 5.17387 25.9166 5.29462 24.6076 6.01825C23.6793 4.47737 21.9958 3.5 20.0813 3.5C18.2394 3.5 16.5681 4.47738 15.6415 6.01912C14.0674 5.14587 12.1328 5.13625 10.5385 6.05675L10.4615 6.10137C8.86725 7.02187 7.90913 8.70362 7.87675 10.5017C6.07863 10.5341 4.39688 11.4922 3.47638 13.0865L3.43175 13.1635C2.51125 14.7577 2.5235 16.6932 3.39413 18.2665C1.85238 19.194 0.875001 20.8644 0.875001 22.7054V22.7937C0.875001 24.6356 1.85238 26.3069 3.39413 27.2335C2.52263 28.8067 2.51125 30.7414 3.43175 32.3365L3.47638 32.4135C4.39775 34.0077 6.0795 34.9659 7.87675 34.9982C7.88638 35.5337 7.98788 36.0552 8.15325 36.5531L0.760376 48.6176L8.988 46.5605L11.0399 54.7662L18.7758 41.8197C19.2203 41.9379 19.6866 42 20.1688 42C20.6185 42 21.0578 41.9396 21.4795 41.8294L29.2101 54.7671L31.262 46.5614L39.4896 48.6185L32.0968 36.554C32.263 36.0561 32.3636 35.5346 32.3733 34.9991C34.1723 34.9667 35.854 34.0086 36.7736 32.4144L36.8183 32.3374C37.7396 30.7431 37.7274 28.8076 36.8559 27.2344C38.1526 26.4539 39.0416 25.1405 39.2945 23.6259H52.5C53.9473 23.6259 55.125 22.4481 55.125 21.0009V3.5C55.125 2.05275 53.9473 0.875 52.5 0.875ZM42.875 4.375V6.125H41.125V4.375H39.375V6.125H37.625V2.625H46.375V6.125H44.625V4.375H42.875ZM28.875 16.9584C26.9929 14.1242 23.7755 12.25 20.125 12.25C14.3351 12.25 9.625 16.9601 9.625 22.75C9.625 28.5399 14.3351 33.25 20.125 33.25C25.6778 33.25 30.2251 28.9152 30.5891 23.4526C30.8744 23.5585 31.1789 23.625 31.5 23.625H32.3304C31.8789 29.9714 26.5843 35 20.125 35C13.37 35 7.875 29.505 7.875 22.75C7.875 15.995 13.37 10.5 20.125 10.5C23.4133 10.5 26.579 11.8492 28.875 14.1951V16.9584ZM28.875 22.75C28.875 27.5747 24.9498 31.5 20.125 31.5C15.3003 31.5 11.375 27.5747 11.375 22.75C11.375 17.9252 15.3003 14 20.125 14C24.9498 14 28.875 17.9252 28.875 22.75ZM11.7101 50.2329L10.262 44.4386L4.48963 45.8815L9.14113 38.2909C9.51213 38.7222 9.9505 39.1029 10.4624 39.3986L10.5394 39.4432C12.1336 40.3629 14.07 40.3515 15.6433 39.4809C16.0326 40.1275 16.5611 40.6674 17.178 41.0847L11.7101 50.2329ZM35.7604 45.8824L29.988 44.4395L28.5399 50.2337L23.0764 41.0917C23.6889 40.6735 24.2174 40.1319 24.6085 39.4818C26.1818 40.3524 28.1164 40.3637 29.7115 39.4441L29.7885 39.3995C30.3004 39.1037 30.7388 38.7231 31.1098 38.2917L35.7604 45.8824ZM35.2643 26.0514L34.0165 26.4714L34.8871 27.4592C35.8724 28.5766 36.0386 30.1849 35.3028 31.4606L35.2581 31.5376C34.5214 32.8125 33.0514 33.4749 31.5849 33.1782L30.2943 32.9184L30.5541 34.209C30.8481 35.6694 30.1893 37.1455 28.9135 37.8822L28.8365 37.9269C27.5616 38.6628 25.9516 38.4956 24.8351 37.5112L23.8473 36.6406L23.4273 37.8884C22.9513 39.3015 21.6423 40.25 20.0813 40.25C18.6069 40.25 17.2979 39.3015 16.8228 37.8892L16.4028 36.6415L15.4149 37.5121C14.2984 38.4974 12.6901 38.6654 11.4135 37.9277L11.3365 37.8831C10.0608 37.1464 9.40188 35.6702 9.69588 34.2099L9.95575 32.9193L8.66513 33.1791C7.20213 33.4749 5.72863 32.8142 4.99188 31.5385L4.94725 31.4615C4.2105 30.1857 4.37763 28.5775 5.36288 27.4601L6.2335 26.4722L4.98575 26.0522C3.5735 25.5762 2.625 24.2672 2.625 22.7937V22.7054C2.625 21.2319 3.5735 19.9229 4.98575 19.4477L6.2335 19.0277L5.36288 18.0399C4.3785 16.9225 4.21138 15.3142 4.94725 14.0385L4.99188 13.9615C5.72863 12.6858 7.20825 12.0251 8.66513 12.3209L9.95575 12.5807L9.69588 11.2901C9.401 9.82887 10.0608 8.35275 11.3365 7.61687L11.4135 7.57225C12.6901 6.83462 14.2975 7.00262 15.4149 7.98787L16.4028 8.8585L16.8228 7.61075C17.2988 6.1985 18.6078 5.25 20.1688 5.25C21.6431 5.25 22.9521 6.1985 23.4273 7.61075L23.8473 8.8585L24.8351 7.98787C25.9543 7.00437 27.5625 6.83637 28.8365 7.57225L28.875 7.595V11.8466C26.4058 9.87 23.3179 8.75 20.125 8.75C12.4058 8.75 6.125 15.0307 6.125 22.75C6.125 30.4692 12.4058 36.75 20.125 36.75C27.5494 36.75 33.6254 30.9365 34.0804 23.625H37.5113C37.2295 24.7406 36.4026 25.669 35.2643 26.0514ZM53.375 21C53.375 21.483 52.983 21.875 52.5 21.875H31.5C31.017 21.875 30.625 21.483 30.625 21V3.5C30.625 3.017 31.017 2.625 31.5 2.625H35.875V7.875H48.125V2.625H52.5C52.983 2.625 53.375 3.017 53.375 3.5V21Z" fill="#4483CE"/>
<path d="M46.375 18.375H48.125V20.125H46.375V18.375Z" fill="#4483CE"/>
<path d="M49.875 18.375H51.625V20.125H49.875V18.375Z" fill="#4483CE"/>
<path d="M42.875 18.375H44.625V20.125H42.875V18.375Z" fill="#4483CE"/>
<path d="M42.875 14.875H51.625V16.625H42.875V14.875Z" fill="#4483CE"/>
<path d="M18.375 26.7627L16.3687 24.7563L15.1314 25.9936L18.375 29.2372L26.8687 20.7436L25.6314 19.5063L18.375 26.7627Z" fill="#4483CE"/>
</svg>
