<svg width="73" height="73" viewBox="0 0 73 73" fill="none" xmlns="http://www.w3.org/2000/svg">
<path d="M70.3845 39.1155L56.2248 24.9558C55.9078 24.6367 55.5307 24.3838 55.1152 24.2117C54.6997 24.0396 54.2542 23.9517 53.8044 23.9531H34.2188V26.2344H39.9219V43.3438H42.2031V26.2344H53.8044C53.9544 26.2343 54.1029 26.2637 54.2415 26.3211C54.3801 26.3784 54.506 26.4625 54.612 26.5686L56.559 28.5156H51.3281C50.7231 28.5156 50.1429 28.756 49.715 29.1838C49.2872 29.6116 49.0469 30.1919 49.0469 30.7969V41.0625C49.0469 41.6675 49.2872 42.2478 49.715 42.6756C50.1429 43.1034 50.7231 43.3438 51.3281 43.3438H68.4375V52.4688C68.4375 52.7713 68.3173 53.0614 68.1034 53.2753C67.8895 53.4892 67.5994 53.6094 67.2969 53.6094H64.9244C64.6516 51.7104 63.7034 49.9734 62.2537 48.717C60.8039 47.4605 58.9497 46.7689 57.0312 46.7689C55.1128 46.7689 53.2586 47.4605 51.8088 48.717C50.3591 49.9734 49.4109 51.7104 49.1381 53.6094H32.9869C32.7142 51.7104 31.7659 49.9734 30.3162 48.717C28.8664 47.4605 27.0122 46.7689 25.0938 46.7689C23.1753 46.7689 21.3211 47.4605 19.8713 48.717C18.4216 49.9734 17.4733 51.7104 17.2006 53.6094H14.8281C14.5256 53.6094 14.2355 53.4892 14.0216 53.2753C13.8077 53.0614 13.6875 52.7713 13.6875 52.4688V42.2031H11.4062V52.4688C11.4062 53.3763 11.7668 54.2467 12.4085 54.8884C13.0502 55.5301 13.9206 55.8906 14.8281 55.8906H17.2006C17.4496 57.625 18.2639 59.2288 19.5172 60.4531H2.28125V62.7344H57.0312C58.9492 62.7307 60.8019 62.0374 62.251 60.7809C63.7001 59.5245 64.649 57.7887 64.9244 55.8906H67.2969C68.2044 55.8906 69.0748 55.5301 69.7165 54.8884C70.3582 54.2467 70.7188 53.3763 70.7188 52.4688V39.9219C70.7187 39.6194 70.5985 39.3293 70.3845 39.1155ZM19.3906 54.75C19.3906 53.622 19.7251 52.5194 20.3518 51.5815C20.9784 50.6437 21.8691 49.9127 22.9113 49.481C23.9534 49.0494 25.1001 48.9364 26.2064 49.1565C27.3127 49.3765 28.3289 49.9197 29.1265 50.7173C29.9241 51.5149 30.4672 52.5311 30.6873 53.6374C30.9073 54.7437 30.7944 55.8904 30.3628 56.9325C29.9311 57.9746 29.2001 58.8653 28.2622 59.492C27.3244 60.1187 26.2217 60.4531 25.0938 60.4531C23.5817 60.4513 22.1322 59.8499 21.063 58.7807C19.9939 57.7116 19.3924 56.262 19.3906 54.75ZM30.6703 60.4531C31.9236 59.2288 32.7379 57.625 32.9869 55.8906H49.1381C49.3871 57.625 50.2014 59.2288 51.4547 60.4531H30.6703ZM57.0312 60.4531C55.9033 60.4531 54.8006 60.1187 53.8628 59.492C52.9249 58.8653 52.1939 57.9746 51.7623 56.9325C51.3306 55.8904 51.2177 54.7437 51.4377 53.6374C51.6578 52.5311 52.2009 51.5149 52.9985 50.7173C53.7961 49.9197 54.8123 49.3765 55.9186 49.1565C57.0249 48.9364 58.1716 49.0494 59.2137 49.481C60.2559 49.9127 61.1466 50.6437 61.7732 51.5815C62.3999 52.5194 62.7344 53.622 62.7344 54.75C62.7326 56.262 62.1311 57.7116 61.062 58.7807C59.9928 59.8499 58.5433 60.4513 57.0312 60.4531ZM51.3281 41.0625V30.7969H58.8403L68.4375 40.3941V41.0625H51.3281Z" fill="#4483CE"/>
<path d="M26.2344 53.6094H23.9531V55.8906H26.2344V53.6094Z" fill="#4483CE"/>
<path d="M58.1719 53.6094H55.8906V55.8906H58.1719V53.6094Z" fill="#4483CE"/>
<path d="M7.98438 50.1875H2.28125V52.4688H7.98438V50.1875Z" fill="#4483CE"/>
<path d="M7.98438 45.625H4.5625V47.9062H7.98438V45.625Z" fill="#4483CE"/>
<path d="M7.98438 41.0625H5.70312V43.3438H7.98438V41.0625Z" fill="#4483CE"/>
<path d="M17.1094 39.9219C20.0421 39.9219 22.909 39.0522 25.3474 37.4229C27.7859 35.7936 29.6865 33.4777 30.8088 30.7682C31.9311 28.0587 32.2247 25.0773 31.6526 22.2009C31.0804 19.3246 29.6682 16.6824 27.5944 14.6087C25.5207 12.5349 22.8786 11.1227 20.0022 10.5505C17.1258 9.9784 14.1444 10.272 11.4349 11.3944C8.72541 12.5167 6.40957 14.4172 4.78024 16.8557C3.1509 19.2942 2.28125 22.161 2.28125 25.0938C2.28578 29.025 3.84948 32.794 6.62931 35.5738C9.40914 38.3537 13.1781 39.9174 17.1094 39.9219ZM17.1094 12.5469C19.5909 12.5469 22.0167 13.2827 24.08 14.6614C26.1434 16.0401 27.7515 17.9996 28.7012 20.2923C29.6508 22.5849 29.8993 25.1077 29.4152 27.5415C28.931 29.9754 27.7361 32.211 25.9814 33.9657C24.2266 35.7204 21.991 36.9154 19.5571 37.3995C17.1233 37.8837 14.6005 37.6352 12.3079 36.6856C10.0153 35.7359 8.0557 34.1277 6.67703 32.0644C5.29836 30.0011 4.5625 27.5753 4.5625 25.0938C4.56642 21.7673 5.88958 18.5783 8.24173 16.2261C10.5939 13.874 13.7829 12.5508 17.1094 12.5469Z" fill="#4483CE"/>
<path d="M17.1094 35.3594C17.4119 35.3593 17.7019 35.2391 17.9158 35.0252C18.6504 34.2906 25.0938 27.7058 25.0938 22.8125C25.0938 20.6949 24.2525 18.6641 22.7552 17.1667C21.2578 15.6693 19.227 14.8281 17.1094 14.8281C14.9918 14.8281 12.9609 15.6693 11.4636 17.1667C9.96621 18.6641 9.125 20.6949 9.125 22.8125C9.125 27.7058 15.5684 34.2906 16.303 35.0252C16.5168 35.2391 16.8069 35.3593 17.1094 35.3594ZM17.1094 17.1094C18.6214 17.1112 20.0709 17.7126 21.1401 18.7818C22.2092 19.8509 22.8107 21.3005 22.8125 22.8125C22.8125 25.7393 19.223 30.2619 17.1094 32.566C14.9958 30.2619 11.4062 25.7393 11.4062 22.8125C11.4081 21.3005 12.0095 19.8509 13.0787 18.7818C14.1478 17.7126 15.5974 17.1112 17.1094 17.1094Z" fill="#4483CE"/>
<path d="M20.5312 22.8125C20.5312 22.1357 20.3306 21.4741 19.9546 20.9114C19.5786 20.3487 19.0441 19.9101 18.4189 19.6511C17.7936 19.3921 17.1056 19.3243 16.4418 19.4564C15.778 19.5884 15.1683 19.9143 14.6897 20.3929C14.2112 20.8714 13.8853 21.4811 13.7533 22.1449C13.6212 22.8087 13.689 23.4967 13.948 24.122C14.207 24.7473 14.6456 25.2817 15.2083 25.6577C15.771 26.0337 16.4326 26.2344 17.1094 26.2344C18.0169 26.2344 18.8873 25.8739 19.529 25.2321C20.1707 24.5904 20.5312 23.72 20.5312 22.8125ZM15.9688 22.8125C15.9688 22.5869 16.0356 22.3664 16.161 22.1788C16.2863 21.9912 16.4645 21.845 16.6729 21.7587C16.8813 21.6724 17.1106 21.6498 17.3319 21.6938C17.5532 21.7378 17.7564 21.8464 17.9159 22.006C18.0754 22.1655 18.1841 22.3687 18.2281 22.59C18.2721 22.8112 18.2495 23.0406 18.1632 23.249C18.0768 23.4574 17.9306 23.6356 17.7431 23.7609C17.5555 23.8862 17.335 23.9531 17.1094 23.9531C16.8069 23.9531 16.5167 23.833 16.3028 23.619C16.0889 23.4051 15.9688 23.115 15.9688 22.8125Z" fill="#4483CE"/>
<path d="M50.1875 45.625H45.625V47.9062H50.1875V45.625Z" fill="#4483CE"/>
</svg>
