<svg width="57" height="57" viewBox="0 0 57 57" fill="none" xmlns="http://www.w3.org/2000/svg">
<g clip-path="url(#clip0)">
<path d="M37.4778 34.6906H26.7787V25.0269C26.7787 24.5092 26.4336 24.1641 25.9159 24.1641C25.3981 24.1641 25.053 24.5092 25.053 25.0269V40.1264L24.8804 40.0401L19.272 29.7725C18.5818 28.1332 17.0287 27.0978 15.303 27.0978H3.82755C3.3098 27.0978 2.96468 27.4429 2.96468 27.9607V35.8987C1.23904 36.2437 0.0311584 37.7968 0.0311584 39.6088C0.0311584 43.9229 0.0311584 47.2879 0.0311584 51.8609C0.0311584 52.3787 0.376285 52.7238 0.89403 52.7238H3.0511C3.22372 55.0534 5.20816 56.9516 7.71036 56.9516C10.1262 56.9516 12.1108 55.0534 12.3696 52.7238H15.3894C15.6483 55.1397 17.6328 56.9516 20.0487 56.9516C22.4646 56.9516 24.4492 55.0534 24.708 52.7238H25.916C26.4337 52.7238 26.7788 52.2924 26.7788 51.8609C26.7788 43.2326 26.7788 45.1309 26.7788 36.4163H37.4779C37.9956 36.4163 38.3407 36.0712 38.3407 35.5534C38.3407 35.0357 37.9954 34.6906 37.4778 34.6906ZM4.69042 28.7371H15.3031V28.9097C16.3385 28.9097 17.2876 29.5137 17.719 30.5491C17.719 30.5491 17.719 30.6354 17.8053 30.6354L22.1195 38.5734L22.0332 38.4871C21.6017 38.3145 21.0841 38.3145 20.739 38.5734C20.3075 38.8322 20.135 39.2636 20.135 39.6951V41.6795H13.3187V37.4517C13.3187 36.5026 12.5421 35.7261 11.5931 35.7261H4.69042V28.7371ZM7.71025 55.2259C6.07092 55.2259 4.77662 53.9317 4.77662 52.2922C4.77662 50.6529 6.07081 49.3586 7.71025 49.3586C9.34968 49.3586 10.6439 50.6528 10.6439 52.2922C10.6439 53.9316 9.26337 55.2259 7.71025 55.2259ZM20.0487 55.2259C18.4094 55.2259 17.1151 53.9317 17.1151 52.2922C17.1151 50.6529 18.4093 49.3586 20.0487 49.3586C21.6881 49.3586 22.9823 50.6528 22.9823 52.2922C22.9822 53.9316 21.688 55.2259 20.0487 55.2259ZM25.0531 50.998H24.4492C23.8452 49.0136 22.1196 47.633 19.9625 47.633C17.8054 47.633 15.9935 49.0998 15.4759 50.998H12.1108C11.5069 49.0136 9.78123 47.633 7.62416 47.633C5.46709 47.633 3.65515 49.0998 3.13752 50.998H1.75679V46.5113H25.0531V50.998ZM25.1393 44.7857H1.75679V39.695C1.75679 38.487 2.70586 37.5379 3.82755 37.5379H11.5066V42.6286C11.5066 43.1463 11.8518 43.4915 12.3695 43.4915H20.9115C21.4292 43.4915 21.7743 43.1463 21.7743 42.6286V40.3852L25.1394 42.1972V44.7857H25.1393Z" fill="#4483CE"/>
<path d="M56.6325 18.9884L29.022 0.17878C28.7632 0.00616172 28.3318 0.00616172 28.073 0.17878L0.376319 18.9884C0.0311925 19.1611 -0.0551168 19.5924 0.0311925 19.9375C0.117502 20.2826 0.462628 20.5415 0.894064 20.5415H1.41181V25.4595C1.41181 25.9773 1.75694 26.3224 2.27468 26.3224C2.79243 26.3224 3.13755 25.9773 3.13755 25.4595V20.5415H53.8717V55.227H26.9513C26.4335 55.227 26.0884 55.5722 26.0884 56.0899C26.0884 56.6077 26.4335 56.9528 26.9513 56.9528H54.7342C55.252 56.9528 55.5971 56.6077 55.5971 56.0899V20.5415H56.1148C56.46 20.5415 56.8051 20.2826 56.9777 19.9375C57.0639 19.5924 56.8913 19.1609 56.6325 18.9884ZM3.65507 18.8158L28.5044 1.90452L53.3537 18.8159H3.65507V18.8158Z" fill="#4483CE"/>
<path d="M38.4268 42.4563H29.4534C28.9357 42.4563 28.5906 42.8014 28.5906 43.3192V52.2926C28.5906 52.8103 28.9357 53.1554 29.4534 53.1554H38.4268C38.9445 53.1554 39.2897 52.8103 39.2897 52.2926V43.3192C39.2897 42.8014 38.8583 42.4563 38.4268 42.4563ZM37.564 51.4296H30.3162V44.1818H37.564V51.4296Z" fill="#4483CE"/>
<path d="M51.024 42.4563H42.0506C41.5329 42.4563 41.1878 42.8014 41.1878 43.3192V52.2926C41.1878 52.8103 41.5329 53.1554 42.0506 53.1554H51.024C51.5418 53.1554 51.8869 52.8103 51.8869 52.2926V43.3192C51.8868 42.8014 51.5417 42.4563 51.024 42.4563ZM50.1612 51.4296H42.9134V44.1818H50.1612V51.4296Z" fill="#4483CE"/>
<path d="M51.024 29.8589H42.0506C41.5329 29.8589 41.1878 30.204 41.1878 30.7218V39.6951C41.1878 40.1266 41.5329 40.558 42.0506 40.558H51.024C51.5418 40.558 51.8869 40.2129 51.8869 39.6951V30.7218C51.8868 30.204 51.5417 29.8589 51.024 29.8589ZM50.1612 38.8323H42.9134V31.5845H50.1612V38.8323Z" fill="#4483CE"/>
<path d="M38.4268 22.8701H29.4534C28.9357 22.8701 28.5906 23.2152 28.5906 23.733V32.7064C28.5906 33.2241 28.9357 33.5692 29.4534 33.5692H38.4268C38.9445 33.5692 39.2897 33.2241 39.2897 32.7064V23.7329C39.2897 23.2152 38.9445 22.8701 38.4268 22.8701ZM37.564 31.7572H30.3162V24.5094H37.564V31.7572Z" fill="#4483CE"/>
<path d="M28.6768 6.21753C25.7432 6.21753 23.3273 8.63341 23.3273 11.567C23.3273 14.5007 25.7432 16.9166 28.6768 16.9166C31.6105 16.9166 34.0264 14.5007 34.0264 11.567C34.0264 8.63352 31.6105 6.21753 28.6768 6.21753ZM28.6768 15.1909C26.6924 15.1909 25.053 13.5516 25.053 11.567C25.053 9.58259 26.6923 7.94316 28.6768 7.94316C30.6614 7.94316 32.3007 9.58248 32.3007 11.567C32.3007 13.5516 30.6614 15.1909 28.6768 15.1909Z" fill="#4483CE"/>
</g>
<defs>
<clipPath id="clip0">
<rect width="57" height="57" fill="white"/>
</clipPath>
</defs>
</svg>
