<svg width="61" height="61" viewBox="0 0 61 61" fill="none" xmlns="http://www.w3.org/2000/svg">
<path d="M59.0938 0.953125H1.90625C1.38013 0.953125 0.953125 1.37917 0.953125 1.90625V38.125C0.953125 38.6521 1.38013 39.0781 1.90625 39.0781H18.158C18.4925 43.4415 21.0888 47.1749 24.7812 49.106V59.0938C24.7812 59.4369 24.9662 59.7533 25.2645 59.923C25.5628 60.0926 25.9298 60.0879 26.2243 59.9106L30.5 57.3457L34.7748 59.9106C34.9263 60.0011 35.096 60.0469 35.2656 60.0469C35.4277 60.0469 35.5897 60.0059 35.7355 59.923C36.0338 59.7533 36.2188 59.4369 36.2188 59.0938V49.106C39.9112 47.1749 42.5075 43.4415 42.842 39.0781H59.0938C59.6199 39.0781 60.0469 38.6521 60.0469 38.125V1.90625C60.0469 1.37917 59.6199 0.953125 59.0938 0.953125ZM30.5 25.7344C25.356 25.7344 20.9363 28.8864 19.0654 33.3594H13.2847C12.8529 29.9157 10.1155 27.1784 6.67188 26.7466V13.2847C10.1155 12.8538 12.8529 10.1165 13.2847 6.67188H47.7153C48.1471 10.1155 50.8845 12.8529 54.3281 13.2847V26.7475C50.8845 27.1784 48.1471 29.9157 47.7153 33.3603H41.9346C40.0637 28.8864 35.644 25.7344 30.5 25.7344ZM34.3125 57.4096L30.9909 55.4166C30.6887 55.2365 30.3122 55.2365 30.0101 55.4166L26.6875 57.4096V49.9085C27.8894 50.2993 29.1694 50.5156 30.5 50.5156C31.8306 50.5156 33.1106 50.2993 34.3125 49.9094V57.4096ZM30.5 48.6094C24.7193 48.6094 20.0156 43.9057 20.0156 38.125C20.0156 32.3443 24.7193 27.6406 30.5 27.6406C36.2807 27.6406 40.9844 32.3443 40.9844 38.125C40.9844 43.9057 36.2807 48.6094 30.5 48.6094ZM58.1406 37.1719H42.842C42.7925 36.5209 42.6914 35.8852 42.5437 35.2656H48.6094C49.1355 35.2656 49.5625 34.8396 49.5625 34.3125C49.5625 31.1586 52.1274 28.5938 55.2812 28.5938C55.8074 28.5938 56.2344 28.1677 56.2344 27.6406V12.3906C56.2344 11.8635 55.8074 11.4375 55.2812 11.4375C52.1274 11.4375 49.5625 8.87264 49.5625 5.71875C49.5625 5.19167 49.1355 4.76562 48.6094 4.76562H12.3906C11.8645 4.76562 11.4375 5.19167 11.4375 5.71875C11.4375 8.87264 8.87264 11.4375 5.71875 11.4375C5.19263 11.4375 4.76562 11.8635 4.76562 12.3906V27.6406C4.76562 28.1677 5.19263 28.5938 5.71875 28.5938C8.87264 28.5938 11.4375 31.1586 11.4375 34.3125C11.4375 34.8396 11.8645 35.2656 12.3906 35.2656H18.4554C18.3086 35.8852 18.2075 36.5209 18.157 37.1719H2.85938V2.85938H58.1406V37.1719Z" fill="#4483CE"/>
<path d="M30.5 29.5469C25.7706 29.5469 21.9219 33.3946 21.9219 38.125H23.8281C23.8281 34.4469 26.8209 31.4531 30.5 31.4531V29.5469Z" fill="#4483CE"/>
<path d="M30.5 44.7969V46.7031C35.2294 46.7031 39.0781 42.8554 39.0781 38.125H37.1719C37.1719 41.8031 34.1791 44.7969 30.5 44.7969Z" fill="#4483CE"/>
<path d="M15.25 8.57812H45.75V10.4844H15.25V8.57812Z" fill="#4483CE"/>
<path d="M15.25 12.3906H45.75V14.2969H15.25V12.3906Z" fill="#4483CE"/>
<path d="M15.25 16.2031H45.75V18.1094H15.25V16.2031Z" fill="#4483CE"/>
<path d="M15.25 20.0156H45.75V21.9219H15.25V20.0156Z" fill="#4483CE"/>
</svg>
