<svg width="66" height="66" viewBox="0 0 66 66" fill="none" xmlns="http://www.w3.org/2000/svg">
<path d="M64.9688 1.03125H1.03125V54.6562H35.0625V64.9688H56.7188V54.6562H64.9688V1.03125ZM62.9062 9.28125H50.5312V3.09375H62.9062V9.28125ZM48.4688 3.09375V9.28125H3.09375V3.09375H48.4688ZM54.6562 62.9062H51.5625V49.5H49.5V62.9062H37.125V52.6835C37.125 50.9376 35.8782 49.4433 34.1612 49.1329L30.8622 48.5327C27.918 47.9964 25.7812 45.4369 25.7812 42.4442V30.4219C25.7812 29.569 26.4753 28.875 27.3281 28.875C28.181 28.875 28.875 29.569 28.875 30.4219V40.2188C28.875 42.4937 30.7251 44.3438 33 44.3438H37.3519L39.6598 53.5796L43.3125 49.9269L46.9652 53.5796L49.0793 45.1203C52.3576 46.5537 54.6562 49.8238 54.6562 53.625V62.9062ZM38.1562 37.125C38.1562 34.2818 40.4693 31.9688 43.3125 31.9688C46.1557 31.9688 48.4688 34.2818 48.4688 37.125C48.4688 39.9682 46.1557 42.2812 43.3125 42.2812C40.4693 42.2812 38.1562 39.9682 38.1562 37.125ZM43.3125 46.6094L41.8027 44.3438H44.8233L43.3125 46.6094ZM40.7777 49.5454L39.5691 44.7119L41.9853 48.3368L40.7777 49.5454ZM47.0549 44.7129L45.8473 49.5454L44.6397 48.3378L47.0549 44.7129ZM56.6662 52.5938C56.2227 47.7067 52.668 43.7137 48.0026 42.6009C49.5474 41.2758 50.5312 39.3143 50.5312 37.125C50.5312 33.1444 47.2921 29.9062 43.3125 29.9062C39.3329 29.9062 36.0938 33.1444 36.0938 37.125C36.0938 39.1442 36.9291 40.9695 38.2707 42.2812H33C31.8625 42.2812 30.9375 41.3562 30.9375 40.2188V30.4219C30.9375 28.4316 29.3184 26.8125 27.3281 26.8125C25.3378 26.8125 23.7188 28.4316 23.7188 30.4219V42.4442C23.7188 46.4331 26.5681 49.8475 30.493 50.5601L33.792 51.1613C34.4974 51.2892 35.0037 51.8863 35.046 52.5938H3.09375V11.3438H62.9062V52.5938H56.6662Z" fill="white"/>
<path d="M20.9272 31.2397L17.5312 34.6356V34.0313H5.15625V46.4063H17.5312V37.552L22.3853 32.6979L20.9272 31.2397ZM15.4688 44.3438H7.21875V36.0938H15.4688V36.6981L11.3438 40.8231L8.97909 38.4584L7.52091 39.9166L11.3438 43.7395L15.4688 39.6145V44.3438Z" fill="white"/>
<path d="M17.5312 20.1981V19.5938H5.15625V31.9688H17.5312V23.1145L22.3853 18.2604L20.9272 16.8022L17.5312 20.1981ZM15.4688 29.9063H7.21875V21.6563H15.4688V22.2606L11.3438 26.3856L8.97909 24.0209L7.52091 25.4791L11.3438 29.302L15.4688 25.177V29.9063Z" fill="white"/>
<path d="M34.0312 21.6562H60.8438V23.7188H34.0312V21.6562Z" fill="white"/>
<path d="M34.0312 25.7812H60.8438V27.8438H34.0312V25.7812Z" fill="white"/>
<path d="M58.7812 29.9062H60.8438V31.9688H58.7812V29.9062Z" fill="white"/>
<path d="M54.6562 29.9062H56.7188V31.9688H54.6562V29.9062Z" fill="white"/>
<path d="M50.5312 29.9062H52.5938V31.9688H50.5312V29.9062Z" fill="white"/>
<path d="M42.2812 52.5938H44.3438V54.6562H42.2812V52.5938Z" fill="white"/>
<path d="M42.2812 56.7188H44.3438V58.7812H42.2812V56.7188Z" fill="white"/>
<path d="M5.15625 5.15625H7.21875V7.21875H5.15625V5.15625Z" fill="white"/>
<path d="M9.28125 5.15625H11.3438V7.21875H9.28125V5.15625Z" fill="white"/>
<path d="M13.4062 5.15625H15.4688V7.21875H13.4062V5.15625Z" fill="white"/>
</svg>
