<svg width="28" height="28" viewBox="0 0 28 28" fill="none" xmlns="http://www.w3.org/2000/svg">
<path d="M15.6406 22.2031C20.6161 22.2031 24.6641 18.1552 24.6641 13.1797C24.6641 8.20419 20.6161 4.15625 15.6406 4.15625C10.6651 4.15625 6.61719 8.20419 6.61719 13.1797C6.61719 18.1552 10.6651 22.2031 15.6406 22.2031ZM20.5623 12.6369C21.4702 12.6369 22.3289 12.9528 23.0149 13.5315C22.954 14.8227 22.5597 16.0277 21.9169 17.0631C21.6475 16.34 21.2237 15.6767 20.6616 15.1147C19.9325 14.3858 19.0336 13.8891 18.0539 13.661C18.0603 13.6292 18.0661 13.5971 18.0712 13.5648C18.7634 12.965 19.6373 12.6369 20.5623 12.6369ZM15.6406 14C15.1884 14 14.8203 13.6319 14.8203 13.1797C14.8203 12.7274 15.1884 12.3594 15.6406 12.3594C16.0929 12.3594 16.4609 12.7274 16.4609 13.1797C16.4609 13.6319 16.0929 14 15.6406 14ZM15.1563 15.5926C15.1888 15.599 15.2213 15.6049 15.2542 15.6101C15.8519 16.3016 16.179 17.174 16.179 18.0973C16.179 19.0069 15.8617 19.8672 15.2809 20.5537C13.9889 20.4914 12.7832 20.0951 11.7478 19.45C13.438 18.8187 14.7342 17.3729 15.1563 15.5926ZM17.0046 15.2268C17.0322 15.2085 17.0591 15.1892 17.0858 15.1698C17.9986 15.2356 18.848 15.6212 19.5014 16.2749C20.1434 16.9168 20.5273 17.7474 20.6031 18.6414C19.6898 19.472 18.5681 20.0769 17.327 20.3681C17.6495 19.6649 17.8196 18.8943 17.8196 18.0973C17.8196 17.067 17.5352 16.0805 17.0046 15.2268ZM16.1247 10.7668C16.0927 10.7604 16.0602 10.7546 16.0277 10.7495C14.8083 9.3349 14.797 7.23285 15.994 5.80542C17.2832 5.86652 18.4867 6.26001 19.5211 6.90152C18.8008 7.17111 18.14 7.59409 17.5799 8.15421C16.8495 8.88458 16.3524 9.78543 16.1247 10.7668ZM14.2781 11.1317C14.2516 11.1492 14.2258 11.1676 14.2002 11.1864C12.338 11.049 10.8433 9.57181 10.6792 7.71692C11.5923 6.88721 12.7133 6.28265 13.9539 5.99149C13.2064 7.63467 13.3145 9.57458 14.2781 11.1317ZM13.2284 12.6926C13.2218 12.7253 13.2158 12.7582 13.2107 12.7913C11.7948 14.0085 9.69272 14.0177 8.26678 12.8187C8.32916 11.5284 8.72458 10.3242 9.36865 9.28983C10.0016 10.9781 11.4481 12.2722 13.2284 12.6926ZM10.7228 15.352C11.7191 15.352 12.7159 15.0814 13.5916 14.5407C13.6106 14.5693 13.6302 14.5973 13.6505 14.6248C13.5089 16.4853 12.0295 17.9768 10.1744 18.1372C9.34494 17.2231 8.74081 16.1012 8.45071 14.8596C9.16998 15.1877 9.94629 15.352 10.7228 15.352ZM22.8271 11.4861C22.1254 11.1654 21.357 10.9962 20.5623 10.9962C19.5298 10.9962 18.5416 11.2814 17.6867 11.8142C17.6698 11.7888 17.6521 11.764 17.6342 11.7392C17.6978 10.823 18.084 9.97021 18.7399 9.31439C19.3799 8.67416 20.2075 8.29071 21.0987 8.21338C21.9295 9.12555 22.5349 10.246 22.8271 11.4861Z" fill="#F15E27"/>
<path d="M0 0.875V25.4844H3.33594V27.125H8.25781V25.4844H19.7422V27.125H24.6641V25.4844H28V0.875H0ZM26.3594 23.8438H23.0234V25.4844H21.3828V23.8438H6.61719V25.4844H4.97656V23.8438H1.64062V2.51562H26.3594V23.8438Z" fill="#F15E27"/>
<path d="M3.33594 15.6406H4.97656V17.2812H3.33594V15.6406Z" fill="#F15E27"/>
<path d="M3.33594 12.3594H4.97656V14H3.33594V12.3594Z" fill="#F15E27"/>
<path d="M3.33594 18.9219H4.97656V20.5625H3.33594V18.9219Z" fill="#F15E27"/>
<path d="M3.33594 3.99219H4.97656V10.5547H3.33594V3.99219Z" fill="#F15E27"/>
</svg>
