<svg width="36" height="36" viewBox="0 0 36 36" fill="none" xmlns="http://www.w3.org/2000/svg">
<g clip-path="url(#clip0)">
<path d="M5.87625 13.8732H4.12681C3.8355 13.8732 3.59946 14.1093 3.59946 14.4005C3.59946 14.6918 3.8355 14.9279 4.12681 14.9279H5.87632C6.16762 14.9279 6.40366 14.6918 6.40366 14.4005C6.40366 14.1093 6.16755 13.8732 5.87625 13.8732Z" fill="#F15E27"/>
<path d="M31.8732 13.8732H30.1238C29.8324 13.8732 29.5964 14.1093 29.5964 14.4005C29.5964 14.6918 29.8324 14.9279 30.1238 14.9279H31.8732C32.1645 14.9279 32.4005 14.6918 32.4005 14.4005C32.4005 14.1093 32.1646 13.8732 31.8732 13.8732Z" fill="#F15E27"/>
<path d="M9.80013 22.6004C9.59412 22.3945 9.26027 22.3945 9.05426 22.6004L7.81718 23.8375C7.61123 24.0435 7.61123 24.3774 7.81718 24.5833C8.02319 24.7893 8.35704 24.7893 8.56305 24.5833L9.80013 23.3462C10.0061 23.1403 10.0061 22.8064 9.80013 22.6004Z" fill="#F15E27"/>
<path d="M18 0C17.7087 0 17.4726 0.236109 17.4726 0.527343V2.27685C17.4726 2.56809 17.7087 2.8042 18 2.8042C18.2913 2.8042 18.5273 2.56809 18.5273 2.27685V0.527343C18.5274 0.236109 18.2913 0 18 0Z" fill="#F15E27"/>
<path d="M28.1828 23.8375L26.9457 22.6004C26.7397 22.3945 26.4059 22.3945 26.1998 22.6004C25.9939 22.8064 25.9939 23.1404 26.1998 23.3462L27.4369 24.5833C27.6429 24.7893 27.9768 24.7893 28.1828 24.5833C28.3887 24.3774 28.3887 24.0435 28.1828 23.8375Z" fill="#F15E27"/>
<path d="M9.80013 5.45498L8.56305 4.2179C8.35704 4.01196 8.02319 4.01196 7.81718 4.2179C7.61123 4.42385 7.61123 4.75776 7.81718 4.96371L9.05426 6.20078C9.26027 6.40673 9.59412 6.40673 9.80013 6.20078C10.0061 5.99477 10.0061 5.66086 9.80013 5.45498Z" fill="#F15E27"/>
<path d="M30.5571 3.34497H27.5101C26.7998 3.34497 26.2221 3.9228 26.2221 4.63295C26.2221 5.34311 26.7999 5.92094 27.5101 5.92094H27.5184L26.0248 7.43996C24.3118 5.45758 21.8912 4.15532 19.2943 3.83877C19.0065 3.80334 18.7422 4.00928 18.7069 4.29841C18.6717 4.58753 18.8775 4.85043 19.1666 4.88573C21.5328 5.17422 23.7373 6.37185 25.2828 8.19435L19.778 13.793L18.092 12.5957C17.5553 12.2147 16.8212 12.2981 16.3839 12.7898L12.0074 17.7097C11.5354 18.2404 11.5832 19.0561 12.1138 19.5282C12.6443 19.9999 13.4583 19.9547 13.9322 19.4218L17.5415 15.3643L19.1813 16.5288C19.6997 16.897 20.3997 16.835 20.8454 16.3817L26.697 10.4304C27.0602 11.2341 27.3085 12.0833 27.4372 12.9635C27.4793 13.2517 27.7472 13.4512 28.0354 13.409C28.3236 13.3669 28.523 13.0991 28.4809 12.8108C28.3182 11.6982 27.9829 10.6302 27.4837 9.6302L29.2689 7.81459V7.83146C29.2691 8.54169 29.8468 9.11945 30.557 9.11945C31.2673 9.11945 31.845 8.54162 31.845 7.83139V4.63295C31.8451 3.92273 31.2673 3.34497 30.5571 3.34497ZM30.7904 7.83153C30.7904 8.13964 30.3239 8.13992 30.3239 7.83153V6.52611C30.3239 6.05481 29.7503 5.82102 29.4204 6.15641L20.0936 15.642C20.0129 15.7241 19.8862 15.7354 19.7923 15.6687L17.7672 14.2306C17.5477 14.0749 17.2466 14.1092 17.0678 14.31L13.1443 18.7207C13.0576 18.8181 12.91 18.8243 12.815 18.7399C12.7189 18.6544 12.7103 18.5067 12.7957 18.4107L17.1722 13.4907C17.248 13.4055 17.3832 13.3857 17.4815 13.4556L19.5339 14.9131C19.7427 15.0613 20.0325 15.0388 20.2153 14.8529L29.1527 5.7633C29.4797 5.43079 29.2435 4.86618 28.7767 4.86618H27.5102C27.2021 4.86618 27.2019 4.39966 27.5102 4.39966H30.5572C30.6859 4.39966 30.7905 4.50428 30.7905 4.63288V7.83153H30.7904Z" fill="#F15E27"/>
<path d="M28.0696 14.8234C27.7795 14.7953 27.5217 15.007 27.4934 15.2968C27.208 18.2075 25.5526 20.8775 23.065 22.4393C22.0152 23.0985 21.3885 24.2265 21.3885 25.4568V27.6272H14.6116V25.4089C14.6116 24.2174 13.989 23.0919 12.9868 22.4716C10.1528 20.7173 8.46079 17.6828 8.46079 14.3543C8.46072 9.54836 12.0606 5.47818 16.8344 4.88693C17.1234 4.85114 17.3287 4.58775 17.2929 4.29877C17.257 4.00971 16.9931 3.80419 16.7046 3.84026C14.1678 4.15448 11.8223 5.39008 10.1005 7.31945C8.36278 9.26647 7.40597 11.7649 7.40597 14.3544C7.40597 16.1919 7.88388 18.0022 8.7881 19.5899C9.66475 21.1291 10.9246 22.4357 12.4315 23.3685C13.1256 23.7981 13.5568 24.5799 13.5568 25.409V27.7041C13.0206 27.8905 12.6339 28.3996 12.6339 28.9985V29.7503C12.6339 30.0686 12.7439 30.3612 12.9265 30.5941C12.7439 30.8271 12.6339 31.1196 12.6339 31.4379V32.1896C12.6339 32.9457 13.249 33.5608 14.0051 33.5608H15.663V34.753C15.663 35.4407 16.2224 36.0001 16.9102 36.0001H19.0896C19.7773 36.0001 20.3367 35.4407 20.3367 34.753V33.5608H21.9947C22.7507 33.5608 23.3658 32.9456 23.3658 32.1896V31.4379C23.3658 31.1196 23.2559 30.8271 23.0732 30.5941C23.2559 30.3612 23.3658 30.0687 23.3658 29.7503V28.9985C23.3658 28.3996 22.9792 27.8905 22.443 27.7041V25.457C22.443 24.5918 22.885 23.7977 23.6256 23.3327C24.9715 22.4877 26.1298 21.3299 26.9755 19.9844C27.842 18.6058 28.3839 17.0205 28.5427 15.3999C28.5714 15.1099 28.3594 14.8518 28.0696 14.8234ZM19.2822 34.7527C19.2821 34.857 19.194 34.9452 19.0898 34.9452H16.9104C16.8061 34.9452 16.718 34.8571 16.718 34.7527V33.5606H19.2822V34.7527ZM22.3113 32.1894C22.3113 32.3609 22.1664 32.5058 21.9949 32.5058C21.0639 32.5058 14.8836 32.5058 14.0051 32.5058C13.8336 32.5058 13.6887 32.3609 13.6887 32.1894V31.4377C13.6887 31.2662 13.8336 31.1213 14.0051 31.1213H21.9949C22.1664 31.1213 22.3113 31.2662 22.3113 31.4377V32.1894ZM22.3113 29.7501C22.3113 29.9216 22.1664 30.0665 21.9949 30.0665H14.0051C13.8336 30.0665 13.6887 29.9216 13.6887 29.7501V28.9983C13.6887 28.8268 13.8336 28.6819 14.0051 28.6819C15.7214 28.6819 20.5123 28.6819 21.9949 28.6819C22.1664 28.6819 22.3113 28.8268 22.3113 28.9983V29.7501Z" fill="#F15E27"/>
</g>
<defs>
<clipPath id="clip0">
<rect width="36" height="36" fill="white"/>
</clipPath>
</defs>
</svg>
