<svg width="28" height="40" viewBox="0 0 28 40" fill="none" xmlns="http://www.w3.org/2000/svg">
<g clip-path="url(#clip0)">
<path d="M0.00139427 24.0214L0.518545 24.3287C0.602978 24.0003 0.79295 23.693 1.09902 23.4175C1.35232 23.1844 1.4473 22.9618 1.4473 22.5486L1.45786 21.6479C1.47897 19.5711 1.51063 17.4307 1.59506 15.3221C1.60562 14.9406 1.60561 14.644 1.60561 14.3897C1.60561 13.1711 1.72171 13.0969 2.97765 12.6519C3.17817 12.5777 3.42092 12.493 3.69533 12.387C4.04361 12.2599 4.1386 12.1115 4.1386 11.7512C4.11749 10.7764 4.12804 9.78038 4.12804 8.81614C4.12804 7.98965 4.1386 7.13137 4.12804 6.29428C4.11749 5.4466 4.46577 4.9168 5.25733 4.59892L6.48161 4.09031C9.29955 2.92475 12.223 1.72739 15.0515 0.445274C16.3814 -0.1587 17.4368 -0.148104 18.5872 0.466466C19.3998 0.900903 20.2758 1.26117 21.1201 1.60024C21.4051 1.7168 21.7006 1.83335 21.9961 1.96051C22.1755 1.4413 22.4605 1.08104 22.8299 0.900903C23.2626 0.688983 23.8114 0.710175 24.4552 0.975076C24.6347 1.04925 24.8141 1.13402 24.9935 1.20819C25.3629 1.36713 25.7428 1.53667 26.1228 1.66382C26.6821 1.85455 26.9354 2.22541 26.8932 2.79759C26.8827 2.88236 26.8932 2.97773 26.8932 3.07309C26.8932 3.21084 26.9038 3.34859 26.8827 3.49693C26.8405 3.8572 26.9566 4.04792 27.3259 4.23865C27.6215 4.39759 27.9592 4.84263 27.9697 5.22408C28.0014 7.5976 28.0014 10.0877 27.9697 12.8638C27.9697 13.1817 27.7059 13.6691 27.3787 13.7751C26.9988 13.9022 26.9354 14.093 26.9354 14.5592C26.9566 18.4479 26.9566 21.987 26.9354 25.3989C26.9354 25.8863 27.0304 26.0559 27.3893 26.2042C27.6848 26.3208 27.9697 26.7658 27.9697 27.1049C28.0014 29.4678 28.0014 31.8731 27.9697 34.2678C27.9697 34.5857 27.7165 35.0519 27.3998 35.1897C24.3602 36.5036 20.3602 38.2095 16.3391 39.8625C16.1281 39.9473 15.8642 39.9897 15.6003 39.9897C15.2943 39.9897 14.9777 39.9367 14.7032 39.8201C12.8563 39.0784 10.9882 38.2943 9.1729 37.542C7.82198 36.9804 6.42884 36.3976 5.0568 35.836C4.3919 35.5605 4.09638 35.1155 4.11749 34.3844C4.12804 33.9393 4.11749 33.4837 4.11749 33.0387C4.10694 32.4029 4.10694 31.746 4.1386 31.0996C4.15971 30.6122 4.03306 30.4215 3.54757 30.2095C3.20984 30.0612 2.91432 29.9446 2.69269 29.8493C1.48952 29.3618 1.41564 29.2559 1.4262 27.8466C1.4262 27.6135 1.4262 27.3592 1.4262 27.0519C1.4262 27.0201 1.4262 26.9883 1.4262 26.9565C1.4262 26.9459 1.4262 26.9354 1.4262 26.9248C1.38398 26.8188 1.35232 26.7128 1.32065 26.6069C1.23622 26.3632 1.16234 26.1301 1.03569 25.9711C0.624084 25.4943 0.434113 24.9963 0.47633 24.5301L0.00139427 24.0214ZM5.1729 34.183C5.1729 34.4691 5.16235 34.6705 5.20456 34.734C5.24678 34.7976 5.43675 34.8718 5.7006 34.9777C5.85892 35.0413 6.05944 35.1261 6.31274 35.232C6.33385 35.2426 6.36551 35.2532 6.38662 35.2638C6.02778 34.8612 5.8167 34.289 5.82725 33.6956C5.82725 32.7314 6.38662 32.0532 7.17818 32.0532C7.52646 32.0532 7.8853 32.2122 8.18082 32.5089C8.59243 32.9221 8.82462 33.5261 8.82462 34.1407C8.82462 35.0307 8.31802 35.6983 7.6109 35.7724C7.96974 35.9208 8.32858 36.0691 8.69797 36.2281C8.96182 36.334 9.22567 36.4506 9.48953 36.5566V36.1009C9.48953 35.5181 9.48953 34.9777 9.48953 34.4268C9.48953 33.5685 9.48952 33.134 9.32066 32.8797C9.15179 32.6254 8.76129 32.4559 7.96973 32.1274C7.28372 31.8413 6.60826 31.5446 5.88002 31.2373L5.1729 30.9407C5.1729 31.1526 5.1729 31.3539 5.1729 31.5552C5.1729 32.2546 5.1729 32.9115 5.1729 33.5685C5.18345 33.8016 5.18345 34.0135 5.1729 34.183ZM12.793 36.2493C12.8774 36.4824 13.0357 36.6731 13.2679 36.8003C13.4051 36.5036 13.4262 36.1751 13.3207 35.8996C13.2362 35.6665 13.0674 35.4758 12.8352 35.3592C12.7085 35.6771 12.6874 35.9844 12.793 36.2493ZM11.7059 37.3513C11.4843 37.1075 11.3893 36.7685 11.3048 36.4506C11.2732 36.3234 11.2415 36.2069 11.1993 36.0903L11.1782 36.0268L11.1887 35.9632C11.3048 35.0519 11.7692 34.4479 12.413 34.3632C13.1201 34.2572 13.6795 34.6281 14.0067 35.391C14.1861 35.8148 14.2705 36.3128 14.2389 36.7579C14.1861 37.4042 13.7745 38.0506 13.0885 38.0506H13.0779C13.0674 38.0506 13.0674 38.0506 13.0568 38.0506C13.4156 38.1989 13.785 38.3579 14.1544 38.5168C14.3866 38.6122 14.6188 38.7075 14.851 38.8135V33.632C14.7032 33.6744 14.5555 33.7168 14.4183 33.7486C13.8273 33.9181 13.2151 34.0877 12.6241 34.0241C12.0225 33.9605 11.4631 33.685 10.8616 33.3883C10.7032 33.3142 10.5555 33.24 10.3866 33.1552V33.2506C10.3866 33.5685 10.3866 33.8546 10.3866 34.1301C10.3866 34.3526 10.3866 34.5645 10.3866 34.787C10.3866 35.3698 10.3866 35.9844 10.4077 36.5672C10.4183 36.7155 10.4816 36.9062 10.5238 36.9486C10.9988 37.1605 11.4842 37.3724 11.9592 37.5738C11.8536 37.4996 11.7692 37.4254 11.7059 37.3513ZM15.8748 31.9685V35.2003C16.0647 35.0201 16.3814 34.9248 16.9091 34.7976C16.8668 34.7764 16.8246 34.7552 16.793 34.734H16.7824V34.7234C16.4552 34.5009 16.2441 34.0771 16.2441 33.5579C16.2441 33.0705 16.4341 32.6042 16.7507 32.2969C16.9829 32.0744 17.2573 31.9685 17.5423 31.9791C17.669 31.9897 17.785 32.0215 17.9011 32.0638L17.9328 31.9791L17.9645 32.0956C18.3444 32.3075 18.5872 32.7844 18.5872 33.346C18.5766 34.1619 18.0278 34.8612 17.3734 34.8824V35.7089C17.3734 36.1963 17.3734 36.6519 17.3734 37.1075C17.3734 38.1883 17.0779 38.3791 15.9381 38.5698L15.8959 38.5804V38.9513C16.0225 38.8983 16.1492 38.8453 16.2653 38.8029C16.7402 38.6122 17.1412 38.4532 17.5529 38.2731C19.4737 37.4678 21.384 36.6519 23.3048 35.836C24.4025 35.3698 25.5106 34.9036 26.6083 34.4373C26.9354 34.2996 27.0199 34.2466 27.0199 33.9817C26.9988 32.5301 26.9988 31.0678 27.0093 29.6479C27.0093 29.0228 27.0093 28.3976 27.0093 27.783C27.0093 27.7724 27.0093 27.7618 27.0093 27.7407C26.6188 27.8466 26.3761 27.8678 26.1861 27.7195C25.9539 27.5393 25.9539 27.2214 25.9539 26.7022C25.9539 25.6214 25.9539 24.5512 25.9539 23.4705C25.9539 20.4612 25.9539 17.3565 25.9434 14.2943C25.9434 13.9446 25.9856 13.5844 26.2178 13.2983C26.165 13.3089 26.1017 13.3195 26.0489 13.3195C26.0383 13.3195 26.0383 13.3195 26.0278 13.3195C25.4473 13.3089 24.9302 12.6731 24.9302 11.9738C24.9302 11.1685 25.5001 10.4373 26.165 10.4161C26.4289 10.4055 26.6927 10.5009 26.8932 10.6916C26.9354 10.734 26.9777 10.7764 27.0199 10.8294C27.0199 9.22939 27.0199 7.61879 27.0199 6.05057V5.65852L25.7851 6.16713C24.7085 6.61216 23.632 7.06779 22.5555 7.51283L22.2811 7.62938C20.4658 8.3923 18.5872 9.1764 16.7402 9.96051C16.8352 9.96051 16.9091 9.9817 16.9935 10.0241C17.289 10.2042 17.289 10.6281 17.289 11.3486C17.289 11.444 17.289 11.5393 17.2784 11.6347C17.2679 11.836 17.2679 12.0161 17.289 12.1963C17.3312 12.5036 17.3523 12.9486 17.0674 13.2877C16.8457 13.5526 16.4658 13.7009 15.9064 13.7433C15.9064 13.9552 15.9064 14.1671 15.9064 14.3791C15.9064 15.0784 15.8959 15.8095 15.917 16.5195C15.9275 16.795 15.9592 17.6214 15.0199 17.791C14.0489 17.9711 13.6795 18.5009 13.8062 19.5605C13.8589 20.0691 13.8378 20.5777 13.8062 21.0757C13.7956 21.2877 13.785 21.4996 13.7745 21.7115C13.7745 21.7963 13.7745 21.881 13.7745 21.9658C13.7745 22.485 13.7745 23.0678 13.289 23.5446C13.2679 23.5976 13.2679 23.7248 13.2679 23.7883V23.8095C13.2679 26.4585 13.2679 29.3618 13.2679 32.9433C13.2679 32.9645 13.2679 32.9963 13.2784 33.0387L15.8748 31.9685ZM16.4236 36.4506C16.3919 36.7261 16.3708 36.9274 16.4763 37.0864V35.9314C16.4658 35.942 16.4552 35.9526 16.4447 35.9632C16.4658 36.1221 16.4447 36.2917 16.4236 36.4506ZM5.90113 6.53799C5.65839 6.44263 5.41564 6.33667 5.1729 6.23071V6.66515C5.1729 7.21614 5.1729 7.71415 5.1729 8.21217C5.1729 8.54064 5.1729 8.86912 5.1729 9.1976C5.1729 10.0771 5.1729 10.9883 5.16235 11.889C5.16235 12.2175 5.23622 12.3446 5.51063 12.4506C6.53438 12.8638 7.52646 13.2877 8.59243 13.7433C8.88794 13.8704 9.19401 13.9976 9.48953 14.1248C9.50008 14.0188 9.51063 13.934 9.51063 13.8493V13.5102C9.52119 11.836 9.52119 10.1089 9.51063 8.41349C9.51063 8.26515 9.44731 8.08501 9.40509 8.03203C8.2758 7.53402 7.12541 7.0466 5.90113 6.53799ZM10.4605 29.2135C10.4922 29.2135 10.5238 29.2241 10.5555 29.2241C10.5449 29.2135 10.5449 29.2135 10.5344 29.2135C10.5133 29.2029 10.4922 29.2029 10.4605 29.2135ZM10.5766 23.7777C10.5766 23.7671 10.5766 23.7671 10.5766 23.7671C10.2283 23.587 9.84836 23.4175 9.41565 23.2585C9.41565 23.2585 9.41565 23.2585 9.40509 23.2585V23.2691C9.72172 23.4175 10.0489 23.5552 10.3972 23.7036C10.4499 23.7354 10.5133 23.7565 10.5766 23.7777ZM10.2494 24.6042C10.1439 24.4983 9.90113 24.3605 9.41565 24.244C9.55285 24.3817 9.82726 24.4983 10.2494 24.6042ZM11.9064 23.8201L11.6531 23.7036C11.4104 24.2334 11.2732 24.8267 11.2521 25.3883C11.3576 24.8373 11.5687 24.3181 11.9064 23.8201ZM12.1808 27.0095V25.2824C12.1175 25.4943 12.0753 25.7274 12.0647 25.9817C12.0542 26.342 12.0964 26.6916 12.1808 27.0095ZM8.22303 22.2307C8.18082 22.1671 8.02251 22.1142 7.7481 22.0824C7.7481 22.2837 7.7481 22.4956 7.7481 22.6969C7.7481 23.587 7.73755 24.4983 7.77976 25.3883C7.80087 25.4095 7.83253 25.4413 7.86419 25.4731L7.87475 25.2506C7.91697 24.5936 7.95918 23.9685 8.01195 23.3539C8.02251 23.1632 8.07528 22.983 8.12805 22.8241C8.23359 22.4956 8.26525 22.2943 8.22303 22.2307ZM5.83781 23.1102C5.92224 22.6652 6.09111 22.2519 6.27053 21.8175C6.31274 21.7115 6.36551 21.595 6.40773 21.4784L6.21776 21.4042C5.94335 21.9764 5.78504 22.7499 5.79559 23.4387C5.80615 23.3327 5.82725 23.2161 5.83781 23.1102ZM3.95918 21.9446C4.21248 22.093 4.50799 22.2307 4.87738 22.3367H4.88794C4.58187 22.1883 4.26525 22.0612 3.95918 21.9446C3.94862 21.934 3.94862 21.934 3.95918 21.9446C3.94862 21.934 3.94862 21.9446 3.95918 21.9446ZM4.07527 21.0546C4.09638 21.0652 4.1386 21.0863 4.17026 21.0969L4.21248 21.1181C4.47633 21.2241 4.75073 21.3301 5.08847 21.4678C4.79295 21.3089 4.45522 21.1605 4.04361 21.0228C4.05416 21.0228 4.06472 21.0334 4.07527 21.0546ZM6.80878 24.742V22.7817C6.68213 23.1102 6.60826 23.5128 6.62937 23.9261C6.63992 24.2334 6.70324 24.5089 6.80878 24.742ZM2.74546 20.4082C2.86155 20.0585 2.851 19.9632 2.851 19.9526C2.82989 19.9314 2.76657 19.8996 2.53437 19.8784C2.36551 20.6943 2.40773 21.6585 2.52382 22.3579C2.52382 22.0188 2.52382 21.6797 2.53437 21.3406C2.54493 21.0334 2.63992 20.7579 2.72435 20.4824L2.74546 20.4082ZM2.7349 18.5327C5.83781 19.8572 9.00404 21.1923 12.0542 22.4744L12.2441 22.5592C12.2547 22.3897 12.2653 22.2201 12.2653 22.0612C12.2758 21.7433 12.2864 21.436 12.2864 21.1181C12.2969 20.7049 12.3075 20.2916 12.318 19.8784C12.3391 19.1049 12.3602 18.681 12.2125 18.4479C12.0753 18.2254 11.6848 18.0665 10.9882 17.7698L2.63992 14.2625C2.62936 14.485 2.61881 14.7075 2.60825 14.93C2.55548 16.0956 2.51327 17.1976 2.49216 18.2996C2.52382 18.3526 2.63992 18.4903 2.7349 18.5327ZM10.4183 12.7049C10.4183 13.6585 10.4183 14.1353 10.5977 14.4214C10.7771 14.6969 11.2204 14.8771 12.0858 15.2373C12.7824 15.5234 13.4684 15.8095 14.2072 16.1274L14.8932 16.4135V15.7777C14.8932 15.3751 14.8932 14.9724 14.8932 14.5698C14.8932 13.2877 14.9038 11.9738 14.8827 10.6704C14.8827 10.5327 14.7771 10.3208 14.7244 10.289C13.5317 9.74859 12.3075 9.22939 11.1149 8.73137L10.4183 8.43468V9.58965C10.4183 10.6493 10.4183 11.6771 10.4183 12.7049ZM14.0489 17.0281C13.7006 16.8691 13.3312 16.6996 12.9724 16.5512C12.6874 16.4347 12.3919 16.3075 12.1069 16.2016C11.5476 15.9791 10.9565 15.7459 10.4077 15.4704C9.96446 15.2479 9.62673 15.3645 9.1729 15.5976C9.44731 15.7142 9.71116 15.8307 9.97501 15.9473C11.0515 16.4135 12.0753 16.8585 13.1096 17.2082C13.3523 17.293 13.7006 17.1976 14.0489 17.1128C14.0806 17.1022 14.1228 17.0916 14.1544 17.081C14.1228 17.0493 14.0911 17.0387 14.0489 17.0281ZM5.65839 26.4797C6.75601 26.9671 7.8853 27.4758 9.0357 27.8784C9.50008 28.0373 10.0383 28.0691 10.566 28.0903C10.6716 28.0903 10.7666 28.1009 10.8721 28.1009C10.9038 28.1009 10.9777 28.0479 11.0304 28.0056L10.1439 27.6347C9.34177 27.2956 8.55021 26.9565 7.7481 26.6175C7.29427 26.4267 6.851 26.236 6.39717 26.0453C5.00403 25.4519 3.55812 24.8373 2.12277 24.2546C2.08055 24.2334 1.9539 24.2652 1.84836 24.2969C1.88002 24.3817 1.92224 24.4559 1.96445 24.5089C2.66102 25.2506 3.56868 25.6214 4.5291 26.0029C4.80351 26.1089 5.07791 26.2254 5.35232 26.3526L5.65839 26.4797ZM12.1808 30.1354C10.5766 30.7711 9.13069 30.2201 7.7481 29.5738C7.7481 29.6056 7.7481 29.6479 7.7481 29.6797C7.7481 30.0824 7.73755 30.432 7.75865 30.7711C7.75865 30.8029 7.81142 30.8877 7.83253 30.9089C9.06736 31.4493 10.2916 31.9685 11.5898 32.5301L12.1914 32.7844V30.1354H12.1808ZM4.38134 13.5526C5.13068 13.8704 5.83781 14.1777 6.53438 14.4744C6.69269 14.538 6.851 14.6016 7.00931 14.6651C7.14652 14.7181 7.27316 14.7711 7.41037 14.8241C7.98029 15.0572 8.22303 15.0996 8.76129 14.7817C8.70852 14.7499 8.6452 14.7287 8.59243 14.7075C8.26525 14.5698 7.93807 14.432 7.6109 14.3049C6.92488 14.0294 6.2072 13.7433 5.53174 13.3936C5.01459 13.1287 4.56076 13.1181 3.98029 13.383L4.38134 13.5526ZM6.04889 5.46779C6.43939 5.64793 6.81934 5.80687 7.18873 5.96581C7.48425 6.09296 7.79032 6.2413 8.07528 6.38965C8.75074 6.73932 9.39454 7.06779 10.0172 7.06779C10.0172 7.06779 10.0172 7.06779 10.0278 7.06779C10.6505 7.06779 11.2943 6.73932 11.9803 6.40024C12.2653 6.2519 12.5608 6.10356 12.8563 5.987C15.5898 4.84263 18.3127 3.69826 20.8457 2.62806C20.8563 2.62806 20.8563 2.61746 20.8668 2.61746C20.6769 2.53269 20.4869 2.44792 20.2969 2.36316C19.1465 1.85455 18.0595 1.38832 16.9513 0.922096C16.8668 0.890307 16.698 0.900903 16.5924 0.943288C13.1835 2.37375 9.72172 3.836 6.36551 5.25587L5.96446 5.42541C6.00667 5.4466 6.02778 5.4572 6.04889 5.46779ZM21.975 3.16845C21.975 3.13667 21.975 3.11547 21.9645 3.10488C21.9011 3.11547 21.785 3.16845 21.7217 3.20024C21.6795 3.22143 21.6478 3.23203 21.6162 3.24263C20.7296 3.60289 19.822 3.98435 18.9566 4.35521C18.5344 4.53534 18.1122 4.71548 17.6901 4.89561C16.7085 5.30885 15.727 5.7221 14.7455 6.13534C13.5845 6.62276 12.4236 7.11018 11.2626 7.5976C11.2415 7.60819 11.2098 7.61879 11.1782 7.62938C11.2521 7.66117 11.3154 7.69296 11.3893 7.72475C11.8959 7.94727 12.3708 8.15919 12.8457 8.36051C13.1096 8.46647 13.3734 8.60422 13.6162 8.72078C14.2283 9.02806 14.8088 9.31415 15.3682 9.31415C15.9381 9.31415 16.5186 9.02806 17.1412 8.72078C17.384 8.59362 17.6478 8.46647 17.9011 8.36051C20.0964 7.43866 22.3339 6.49561 24.4975 5.58435L25.9434 4.96978C25.88 4.96978 25.8273 4.96978 25.7639 4.96978C25.669 4.96978 25.574 4.96978 25.4684 4.98038C25.2046 4.99097 24.9302 5.01216 24.6663 4.9274C24.2442 4.78965 23.8325 4.62011 23.442 4.43998C23.2415 4.35521 23.0304 4.25985 22.8299 4.17508C22.4711 4.04792 22.0278 3.8572 21.975 3.16845ZM25.8484 3.41216C25.8484 3.35918 25.8378 3.3168 25.8378 3.26382C25.8273 3.27441 25.8167 3.28501 25.8167 3.29561C25.7534 3.41216 25.7534 3.61349 25.8167 3.92077C25.88 3.80422 25.8695 3.64528 25.8484 3.41216ZM7.31538 33.8016C7.37871 34.0665 7.55813 34.3102 7.82198 34.5221C7.94863 34.2254 7.98029 33.9287 7.89586 33.6638C7.82198 33.4095 7.65311 33.2082 7.39981 33.0599C7.28372 33.3142 7.25206 33.5579 7.31538 33.8016ZM6.82989 29.542C6.79823 29.3512 6.63992 29.1181 6.52382 29.0546C5.44731 28.546 4.36023 28.0691 3.22039 27.5605C2.96709 27.4546 2.72435 27.338 2.47105 27.232C2.47105 27.2532 2.47105 27.2638 2.47105 27.285C2.47105 27.6877 2.4605 28.1115 2.49216 28.5142C2.50271 28.5671 2.58715 28.6625 2.62936 28.6837C3.77976 29.1923 4.95126 29.6903 6.18609 30.2095L6.87211 30.4956C6.87211 30.4638 6.87211 30.4214 6.87211 30.3897C6.87211 30.0824 6.88266 29.7963 6.82989 29.542Z" fill="#F15E27"/>
<path d="M15.3456 19.7192C15.6306 19.7192 15.8733 19.8146 16.0739 20.0053C16.3166 20.2384 16.4433 20.5987 16.4433 21.0331C16.4433 21.5099 16.2427 22.0079 15.9261 22.3152C15.715 22.5271 15.4512 22.6437 15.1979 22.6437C15.1873 22.6437 15.1768 22.6437 15.1662 22.6437C14.5752 22.6225 14.1108 22.0185 14.1214 21.2662C14.1214 20.4185 14.6702 19.7298 15.3456 19.7192Z" fill="#F15E27"/>
<path d="M16.496 29.1179C16.7704 28.3444 17.1082 27.5497 17.4987 26.755C17.6253 26.4901 17.9736 26.1722 18.3113 26.1404C18.5752 26.1192 18.7441 26.3523 18.8918 26.5536C18.9235 26.596 18.9551 26.649 18.9763 26.6702L19.0712 26.7656L19.0501 26.9033C18.8179 28.1854 18.5119 29.2027 17.7625 30.008C17.6042 30.1881 17.3509 30.2093 17.1293 30.2199C17.0554 30.2305 16.9815 30.2305 16.9182 30.2411L16.6438 30.294L16.6227 30.1775L16.4749 30.2411L16.591 29.9656C16.5805 29.9126 16.5594 29.849 16.5488 29.7854C16.4749 29.5947 16.4116 29.351 16.496 29.1179Z" fill="#F15E27"/>
<path d="M13.0449 2.79734L13.2665 2.70198C13.4354 2.6384 13.5937 2.55363 13.7625 2.47946C14.1425 2.29933 14.5435 2.098 14.9763 2.03443C15.4406 1.96025 16.0106 2.04502 16.6544 2.26754C16.9604 2.3735 17.2032 2.6384 17.2454 2.92449C17.2665 3.07284 17.2665 3.34833 16.9499 3.59204C16.4433 3.98409 15.7995 4.40793 15.2823 4.28078C14.7546 4.14303 14.3641 4.32317 13.9208 4.53509C13.8048 4.58807 13.6781 4.65164 13.5515 4.69403C13.372 4.7682 13.1926 4.81058 13.0343 4.81058C12.6966 4.81058 12.3905 4.64105 12.0633 4.30197L11.8206 4.03707L13.1926 3.34833L13.0449 2.79734ZM14.4063 3.1788C14.4274 3.23178 14.4486 3.29535 14.4697 3.34833C15.1346 3.40131 15.7256 3.4331 16.2427 3.04105C15.7995 2.68078 15.3773 2.67019 14.4063 3.1788Z" fill="#F15E27"/>
<path d="M7.70448 4.90595C7.78891 4.89535 7.8839 4.87416 7.98944 4.84237C8.24274 4.77879 8.5277 4.70462 8.80211 4.79999C9.20316 4.93773 9.54089 4.91654 9.9525 4.71522C10.438 4.48211 10.8602 4.56687 11.1557 4.94833H11.1979L11.1768 4.96952C11.219 5.0225 11.2612 5.08608 11.2929 5.16025L11.3879 5.34038L10.9763 5.73243L11.6412 6.46356L11.1873 6.56952C11.0501 6.60131 10.9235 6.64369 10.8074 6.68608C10.6069 6.74965 10.4169 6.81323 10.2269 6.81323C10.153 6.81323 10.0686 6.80263 9.99472 6.77084C9.40369 6.55892 8.83377 6.29402 8.28496 6.03972C8.07387 5.94436 7.86279 5.8384 7.64116 5.74303L7.47229 5.66886L7.4934 4.93773L7.70448 4.90595ZM9.57256 5.66886H9.58311H9.57256Z" fill="#F15E27"/>
<path d="M22.2586 5.90199L22.1636 5.96556C21.7203 6.26225 21.1821 6.62252 20.6755 6.54834C20.095 6.46357 19.6517 6.6543 19.1346 6.86622C19.029 6.90861 18.934 6.95099 18.8285 6.99338C18.6491 7.06755 18.4908 7.09934 18.3325 7.09934C17.9736 7.09934 17.657 6.90861 17.4037 6.53775L17.2243 6.28344L18.4274 5.66887L18.3747 5.61589L18.5013 5.42517C18.533 5.38278 18.5646 5.3298 18.5858 5.27682C18.6702 5.12848 18.7652 4.95894 18.934 4.85298C19.219 4.67285 19.5673 4.51391 19.9261 4.40795C20.5172 4.23841 21.3826 4.06888 22.1741 4.67285C22.438 4.87417 22.5858 5.13907 22.5752 5.38278C22.5752 5.52053 22.5119 5.73245 22.2586 5.90199ZM19.7467 5.64768C19.7995 5.64768 19.8522 5.64768 19.905 5.64768C19.9472 5.64768 19.9895 5.64768 20.0317 5.64768C20.6121 5.64768 21.1187 5.64768 21.562 5.31921C21.0765 4.94835 20.4538 5.00133 19.7045 5.47815L19.7467 5.64768Z" fill="#F15E27"/>
<path d="M16.6016 7.4914L16.686 7.68212L16.2744 8.04239L16.9393 8.60398L16.5277 8.77352C16.4222 8.8159 16.3166 8.87948 16.2111 8.93246C16.0106 9.03842 15.8206 9.14438 15.6306 9.14438C15.5778 9.14438 15.5251 9.13378 15.4723 9.11259C14.8179 8.87948 14.1847 8.59338 13.5726 8.31789C13.3509 8.22252 13.1293 8.11656 12.8971 8.0212L12.7071 7.93643L12.8232 7.18411L13.0237 7.16292C13.1293 7.15232 13.2243 7.14173 13.3298 7.12053C13.562 7.08875 13.7942 7.05696 14.0369 7.04636C14.2058 7.03577 14.3641 7.03577 14.5224 7.03577C14.7757 7.03577 15.0079 7.03577 15.2296 6.99338C15.2718 6.98279 15.3245 6.97219 15.3668 6.97219C15.6728 6.90861 16.1161 6.82384 16.4327 7.2053L16.9921 7.12053L16.5594 7.39603C16.5805 7.42782 16.591 7.45961 16.6016 7.4914Z" fill="#F15E27"/>
<path d="M12.591 9.98145C12.9393 9.98145 13.2981 10.1404 13.5937 10.4371C14.0053 10.8503 14.2586 11.4649 14.248 12.0583C14.248 12.9907 13.657 13.7007 12.876 13.7007H12.8654C12.5171 13.7007 12.1583 13.5417 11.8733 13.2556C11.4723 12.853 11.2295 12.2384 11.2295 11.6132C11.2401 10.6702 11.7889 9.99205 12.591 9.98145ZM12.7916 10.9669C12.6649 11.253 12.6332 11.5391 12.7071 11.804C12.781 12.0689 12.9604 12.2914 13.2137 12.4609C13.3404 12.2066 13.3826 11.9523 13.3193 11.7086C13.2665 11.4437 13.0871 11.1894 12.7916 10.9669Z" fill="#F15E27"/>
<path d="M7.65172 11.4013C7.56729 11.4225 7.48285 11.4225 7.39842 11.4225C6.90238 11.4225 6.45911 11.1364 6.1636 10.5854C6.03695 10.3523 5.95252 10.098 5.86808 9.8543C5.83642 9.74834 5.80476 9.65297 5.76254 9.54701L5.74144 9.49403V9.44105C5.7731 8.54039 6.19526 7.87284 6.83906 7.69271C7.50396 7.51258 8.27441 7.99999 8.56992 8.7841C8.68601 9.09138 8.81266 9.5682 8.781 10.0132C8.70712 10.7761 8.29552 11.2848 7.65172 11.4013ZM7.37731 8.69933C7.22956 8.94304 7.19789 9.21854 7.26122 9.49403C7.3351 9.78012 7.52507 10.0238 7.78892 10.1722C7.91557 9.88609 7.94723 9.61059 7.87335 9.35628C7.81003 9.09138 7.63061 8.86887 7.37731 8.69933Z" fill="#F15E27"/>
</g>
<defs>
<clipPath id="clip0">
<rect width="28" height="40" fill="white" transform="matrix(-1 0 0 1 28 0)"/>
</clipPath>
</defs>
</svg>
