<svg width="36" height="36" viewBox="0 0 36 36" fill="none" xmlns="http://www.w3.org/2000/svg">
<g clip-path="url(#clip0)">
<path d="M13.3518 15.1348C13.4785 15.353 13.7538 15.4337 13.9782 15.3184V17.6717C13.9781 17.8409 14.0685 17.9974 14.215 18.0821L18.3581 20.4737C18.5047 20.5584 18.6853 20.5583 18.8318 20.4737C18.9783 20.389 19.0686 20.2327 19.0686 20.0634V18.5072C19.2109 18.581 19.381 18.5775 19.5201 18.4979L20.5559 17.9081C20.6656 17.8456 20.7459 17.7419 20.7788 17.6199C20.8117 17.4979 20.7946 17.3679 20.7312 17.2586L16.9258 10.7053C16.7951 10.48 16.507 10.4025 16.281 10.5319L12.4909 12.6996C12.3813 12.7622 12.3012 12.8659 12.2684 12.9878C12.2356 13.1096 12.2527 13.2395 12.316 13.3487L13.3518 15.1348ZM16.3426 11.588L19.6719 17.321L19.4596 17.4418L19.0048 16.6577C18.8973 16.4724 18.6788 16.3822 18.4719 16.4379C18.2651 16.4936 18.1213 16.6812 18.1213 16.8955V19.2432L14.9256 17.3983V14.5038C14.9256 14.335 14.8358 14.179 14.6899 14.0942C14.544 14.0094 14.3641 14.0086 14.2174 14.0921L13.9357 14.2526L13.375 13.2853L16.3426 11.588Z" fill="#F15E27"/>
<path d="M11.4533 20.4473L14.9057 22.4407C15.1324 22.5713 15.4219 22.4937 15.5527 22.2671C15.6835 22.0405 15.6059 21.7509 15.3795 21.62L11.927 19.6267C11.7804 19.5419 11.5998 19.5419 11.4531 19.6265C11.3064 19.7112 11.2161 19.8676 11.2162 20.037C11.2162 20.2063 11.3066 20.3627 11.4533 20.4473Z" fill="#F15E27"/>
<path d="M19.1776 24.6335C19.3243 24.5488 19.4146 24.3924 19.4145 24.2231C19.4144 24.0538 19.3241 23.8973 19.1774 23.8127L16.7603 22.417C16.6137 22.3323 16.433 22.3322 16.2864 22.4169C16.1397 22.5015 16.0494 22.658 16.0495 22.8273C16.0495 22.9966 16.1399 23.1531 16.2866 23.2377L18.7037 24.6334C18.8503 24.7181 19.0309 24.7182 19.1776 24.6335Z" fill="#F15E27"/>
<path d="M20.1986 24.5623C20.0772 24.5949 19.9738 24.6744 19.9111 24.7833C19.8482 24.8921 19.8312 25.0214 19.8637 25.1428C19.8963 25.2642 19.9757 25.3677 20.0846 25.4305L21.1203 26.0286C21.2669 26.1134 21.4476 26.1134 21.5943 26.0288C21.7409 25.9441 21.8312 25.7877 21.8312 25.6183C21.8311 25.449 21.7407 25.2926 21.5941 25.208L20.5583 24.6098C20.4494 24.5469 20.3201 24.5298 20.1986 24.5623Z" fill="#F15E27"/>
<path d="M21.594 27.5839L19.1774 26.1887C19.0308 26.1039 18.8502 26.1039 18.7035 26.1885C18.5568 26.2732 18.4665 26.4296 18.4666 26.599C18.4667 26.7683 18.557 26.9247 18.7037 27.0092L21.1203 28.4044C21.2669 28.4892 21.4476 28.4892 21.5942 28.4046C21.7409 28.3199 21.8312 28.1635 21.8311 27.9942C21.8311 27.8248 21.7407 27.6685 21.594 27.5839Z" fill="#F15E27"/>
<path d="M15.0342 23.7965C14.9254 23.7336 14.7961 23.7164 14.6746 23.749C14.5532 23.7816 14.4498 23.8611 14.387 23.97C14.3242 24.0788 14.3072 24.2082 14.3397 24.3295C14.3723 24.4509 14.4517 24.5544 14.5605 24.6172L17.3222 26.2118C17.5488 26.3424 17.8384 26.2647 17.9692 26.0382C18.1 25.8116 18.0224 25.522 17.7959 25.3911L15.0342 23.7965Z" fill="#F15E27"/>
<path d="M11.4533 22.8232L13.1793 23.8202C13.4059 23.9508 13.6955 23.8731 13.8263 23.6466C13.957 23.42 13.8795 23.1304 13.653 22.9995L11.927 22.0026C11.7804 21.9178 11.5998 21.9178 11.4531 22.0024C11.3064 22.0871 11.2161 22.2435 11.2162 22.4129C11.2162 22.5823 11.3066 22.7386 11.4533 22.8232Z" fill="#F15E27"/>
<path d="M14.3436 25.7742L11.927 24.379C11.7804 24.2942 11.5998 24.2942 11.4531 24.3788C11.3064 24.4635 11.2161 24.6199 11.2162 24.7893C11.2163 24.9586 11.3066 25.115 11.4533 25.1996L13.8699 26.5948C14.0165 26.6795 14.1972 26.6796 14.3439 26.595C14.4905 26.5103 14.5808 26.3538 14.5807 26.1845C14.5807 26.0152 14.4903 25.8588 14.3436 25.7742Z" fill="#F15E27"/>
<path d="M18.8318 28.3652L15.7245 26.5713C15.5779 26.4865 15.3973 26.4865 15.2506 26.5711C15.1039 26.6558 15.0136 26.8122 15.0137 26.9815C15.0137 27.1509 15.1041 27.3073 15.2508 27.3918L18.3581 29.1858C18.5847 29.3164 18.8743 29.2387 19.0051 29.0122C19.1359 28.7857 19.0583 28.4961 18.8318 28.3652Z" fill="#F15E27"/>
<path d="M21.594 29.9598L20.2131 29.1627C20.0665 29.0779 19.8859 29.0779 19.7392 29.1625C19.5925 29.2472 19.5023 29.4036 19.5023 29.573C19.5024 29.7423 19.5928 29.8987 19.7394 29.9833L21.1203 30.7803C21.2669 30.8651 21.4475 30.8651 21.5942 30.7805C21.7409 30.6958 21.8312 30.5394 21.8311 30.3701C21.8311 30.2008 21.7407 30.0444 21.594 29.9598Z" fill="#F15E27"/>
<path d="M28.5228 9.8474C28.5216 9.83489 28.5199 9.82314 28.5178 9.81063C28.4995 9.69637 28.4394 9.59293 28.3492 9.52044C28.3415 9.51425 28.3343 9.50855 28.3263 9.50293C28.3141 9.49428 28.3041 9.48331 28.291 9.47579L14.481 1.50468L14.4799 1.50433L12.8073 0.538756C11.5585 -0.179728 10.0217 -0.179587 8.77295 0.539248L8.59899 0.639659C7.92678 1.02379 7.50221 1.72941 7.47774 2.5033C7.47725 2.51244 7.47254 2.52011 7.47254 2.52939V2.58473L7.47205 2.5919L7.47254 2.599V25.4953C7.47387 26.3414 7.92516 27.1229 8.65728 27.5469L9.38266 27.9656L9.39068 27.9689L23.1919 35.9367L23.1936 35.9374C23.22 35.9513 23.2476 35.9627 23.2762 35.9714C23.2869 35.9752 23.2968 35.9814 23.3078 35.9843C23.3346 35.9902 23.3619 35.9937 23.3893 35.9949C23.4026 35.9961 23.4155 36.0001 23.4287 36.0001H23.429H23.4292C23.5121 36.0001 23.5937 35.9783 23.6656 35.9367L28.2906 33.2661C28.3055 33.2546 28.3197 33.2421 28.333 33.2288C28.3606 33.2094 28.386 33.1869 28.4087 33.162C28.4701 33.0937 28.5076 33.0074 28.5158 32.916C28.5212 32.8962 28.5253 32.8761 28.528 32.8558V9.88608C28.528 9.87279 28.5239 9.86041 28.5228 9.8474ZM9.14492 26.7342L9.13107 26.7262C8.69174 26.4718 8.42095 26.0029 8.42004 25.4952V4.42383C8.47847 4.46517 8.53641 4.50715 8.59956 4.54351L9.14499 4.85838V26.7342H9.14492ZM9.0732 3.72285C8.6679 3.49222 8.41828 3.06118 8.41997 2.59485V2.58775C8.41828 2.1217 8.66769 1.69088 9.07271 1.46024L9.24667 1.35983C10.2021 0.809823 11.378 0.809612 12.3336 1.35934L13.2963 1.9149L9.61997 4.03871L9.0732 3.72285ZM10.0924 27.28V5.40578L22.955 12.8315V34.7056L10.0924 27.28ZM23.4286 12.011L10.5671 4.5857L11.2718 4.17864L15.2134 6.45313C15.36 6.53786 15.5406 6.53793 15.6873 6.45327C15.834 6.36861 15.9243 6.21216 15.9242 6.04284C15.9241 5.87352 15.8338 5.71707 15.6871 5.63255L12.2193 3.63151L12.6168 3.40193L19.5665 7.41498C19.7131 7.49971 19.8937 7.49978 20.0404 7.41512C20.1871 7.33046 20.2773 7.17401 20.2773 7.00469C20.2772 6.83537 20.1868 6.67892 20.0402 6.5944L13.564 2.85488L14.244 2.4621L27.1077 9.88678L23.4286 12.011ZM27.5805 32.5818L26.8996 32.9749V28.4679C26.8996 28.2062 26.6875 27.9941 26.4259 27.9941C26.1642 27.9941 25.9522 28.2062 25.9522 28.4679V33.5221L25.54 33.7601V30.3771C25.54 30.1154 25.3279 29.9034 25.0663 29.9034C24.8046 29.9034 24.5925 30.1154 24.5925 30.3771V34.3071L23.9023 34.7057V12.8317L24.5925 12.4331V15.9198C24.5925 16.1814 24.8046 16.3935 25.0663 16.3935C25.3279 16.3935 25.54 16.1814 25.54 15.9198V11.886L25.9568 11.6453V14.0151C25.9568 14.2768 26.1689 14.4889 26.4305 14.4889C26.6922 14.4889 26.9042 14.2768 26.9042 14.0151V11.0982L27.5805 10.7077V32.5818Z" fill="#F15E27"/>
<path d="M25.7227 19.4203C25.597 19.4202 25.4765 19.4701 25.3876 19.559C25.2988 19.6478 25.2489 19.7684 25.249 19.894V24.631C25.249 24.8927 25.4611 25.1048 25.7227 25.1048C25.9843 25.1048 26.1964 24.8927 26.1964 24.631V19.894C26.1965 19.7684 26.1466 19.6478 26.0578 19.559C25.9689 19.4701 25.8484 19.4202 25.7227 19.4203Z" fill="#F15E27"/>
</g>
<defs>
<clipPath id="clip0">
<rect width="36" height="36" fill="white"/>
</clipPath>
</defs>
</svg>
