<svg width="41" height="38" viewBox="0 0 41 38" fill="none" xmlns="http://www.w3.org/2000/svg">
<path d="M20.4318 15H2.56817C1.1521 15 0 16.1521 0 17.5682V35.4318C0 36.8479 1.1521 38 2.56817 38H20.4318C21.8479 38 23 36.8479 23 35.4318V17.5682C23 16.1521 21.8479 15 20.4318 15ZM22.266 35.4318C22.266 36.4432 21.4432 37.266 20.4318 37.266H2.56817C1.55681 37.266 0.734043 36.4432 0.734043 35.4318V17.5682C0.734043 16.5568 1.55681 15.734 2.56817 15.734H20.4318C21.4432 15.734 22.266 16.5568 22.266 17.5682V35.4318Z" fill="#F15E27"/>
<path d="M19.5989 18.034H3.40106C3.19832 18.034 3.03404 18.1984 3.03404 18.4011V34.5989C3.03404 34.8016 3.19832 34.966 3.40106 34.966H5.35851C5.56125 34.966 5.72553 34.8016 5.72553 34.5989C5.72553 34.3962 5.56125 34.2319 5.35851 34.2319H3.76809V18.7681H19.2319V19.3798C19.2319 19.5825 19.3962 19.7468 19.5989 19.7468C19.8017 19.7468 19.966 19.5825 19.966 19.3798V18.4011C19.966 18.1984 19.8017 18.034 19.5989 18.034Z" fill="#F15E27"/>
<path d="M19.5989 20.4809C19.3962 20.4809 19.2319 20.6452 19.2319 20.8479V34.2319H6.82659C6.62385 34.2319 6.45957 34.3962 6.45957 34.5989C6.45957 34.8016 6.62385 34.966 6.82659 34.966H19.5989C19.8017 34.966 19.966 34.8016 19.966 34.5989V20.8479C19.966 20.6452 19.8017 20.4809 19.5989 20.4809Z" fill="#F15E27"/>
<path d="M11.5 33.3511C15.2777 33.3511 18.3511 30.2777 18.3511 26.5C18.3511 22.7223 15.2777 19.6489 11.5 19.6489C7.72232 19.6489 4.64893 22.7223 4.64893 26.5C4.64893 30.2777 7.72232 33.3511 11.5 33.3511ZM11.133 20.3943V21.484C11.133 21.6867 11.2973 21.8511 11.5 21.8511C11.7027 21.8511 11.867 21.6867 11.867 21.484V20.3943C15.0697 20.5848 17.617 23.2503 17.617 26.5C17.617 29.7497 15.0697 32.4152 11.867 32.6057V31.516C11.867 31.3133 11.7027 31.1489 11.5 31.1489C11.2973 31.1489 11.133 31.3133 11.133 31.516V32.6057C7.9303 32.4152 5.38298 29.7497 5.38298 26.5C5.38298 23.2503 7.9303 20.5848 11.133 20.3943Z" fill="#F15E27"/>
<path d="M8.51675 27.6011C9.12385 27.6011 9.61782 27.1072 9.61782 26.5C9.61782 25.8929 9.12385 25.3989 8.51675 25.3989C7.90965 25.3989 7.41569 25.8929 7.41569 26.5C7.41569 27.1072 7.90965 27.6011 8.51675 27.6011ZM8.51675 26.133C8.71915 26.133 8.88377 26.2976 8.88377 26.5C8.88377 26.7024 8.71915 26.867 8.51675 26.867C8.31435 26.867 8.14973 26.7024 8.14973 26.5C8.14973 26.2976 8.31435 26.133 8.51675 26.133Z" fill="#F15E27"/>
<path d="M14.4832 27.6011C15.0903 27.6011 15.5843 27.1072 15.5843 26.5C15.5843 25.8929 15.0903 25.3989 14.4832 25.3989C13.8761 25.3989 13.3822 25.8929 13.3822 26.5C13.3822 27.1072 13.8761 27.6011 14.4832 27.6011ZM14.4832 26.133C14.6856 26.133 14.8503 26.2976 14.8503 26.5C14.8503 26.7024 14.6856 26.867 14.4832 26.867C14.2808 26.867 14.1162 26.7024 14.1162 26.5C14.1162 26.2976 14.2808 26.133 14.4832 26.133Z" fill="#F15E27"/>
<path d="M40.5443 14.6783C40.3527 14.6783 40.1806 14.5543 40.1153 14.3738C40.0512 14.1967 40.1064 13.9914 40.2493 13.8698C40.399 13.7423 40.6183 13.7265 40.785 13.8301C40.9444 13.9292 41.0283 14.1242 40.9913 14.3089C40.9488 14.521 40.7596 14.6783 40.5443 14.6783Z" fill="#F15E27"/>
<path d="M24.9631 23.4222H38.4379C39.8506 23.4222 41 22.2729 41 20.8602V15.4029C41 15.0901 40.7463 14.8364 40.4335 14.8364C40.1207 14.8364 39.867 15.0901 39.867 15.4029V20.8602C39.867 21.6482 39.2259 22.2893 38.4379 22.2893H24.9631V23.4222Z" fill="#F15E27"/>
<path d="M18.1005 12.5367V3.21536C18.1005 1.80266 19.2499 0.65332 20.6626 0.65332H38.4379C39.8506 0.65332 41 1.80266 41 3.21536V10.2811C41 10.594 40.7463 10.8476 40.4335 10.8476C40.1207 10.8476 39.867 10.594 39.867 10.2811V3.21536C39.867 2.42738 39.226 1.78629 38.4379 1.78629H20.6626C19.8746 1.78629 19.2335 2.42738 19.2335 3.21536V12.5367H18.1005Z" fill="#F15E27"/>
<path fill-rule="evenodd" clip-rule="evenodd" d="M23.4454 4.28894H35.7767C36.6473 4.28894 37.3555 5.00327 37.3555 5.8812V18.1855C37.3555 19.0635 36.6473 19.7778 35.7767 19.7778H24.6V18.6673H29.0605V17.0987H24.6V15.9882H29.0605V5.39947H23.4454C23.182 5.39947 22.9677 5.61557 22.9677 5.8812V12.4889H21.8666V5.8812C21.8666 5.00322 22.5749 4.28894 23.4454 4.28894ZM36.2544 15.5065V5.8812C36.2544 5.61557 36.0401 5.39947 35.7767 5.39947H30.1616V15.9882H35.7767C36.0401 15.9882 36.2544 15.7721 36.2544 15.5065ZM30.1616 18.6673H35.7767C36.0401 18.6673 36.2544 18.4512 36.2544 18.1855V17.0242C36.1037 17.0726 35.9432 17.0987 35.7767 17.0987H30.1616V18.6673Z" fill="#F15E27"/>
</svg>
