<svg width="41" height="29" viewBox="0 0 41 29" fill="none" xmlns="http://www.w3.org/2000/svg">
<g clip-path="url(#clip0)">
<path d="M0.071312 28.6393C0.140495 28.7859 0.264206 28.8998 0.416042 28.9566C0.567879 29.0134 0.735863 29.0087 0.884258 28.9434L22.586 18.9349C23.0001 18.8748 23.3999 18.7406 23.7665 18.5388C25.3429 17.6617 25.965 16.5654 25.8519 14.889L33.8822 10.7937C34.0354 10.7417 34.1824 10.6729 34.3205 10.5885C34.9779 10.1783 35.3101 9.36488 35.2465 8.35341L40.3079 5.52415L40.2937 5.49585C41.142 4.77438 41.248 3.33146 40.5058 2.14317C39.9544 1.24488 39.0637 0.693179 38.1872 0.693179C37.8712 0.691472 37.5602 0.771289 37.2841 0.924922C37.008 1.07855 36.7761 1.30081 36.6108 1.57024L36.5684 1.49951C36.0312 0.58707 35.1122 0 34.2356 0C33.9246 0 33.6348 0.0707231 33.3662 0.212187H33.3591L33.2884 0.254624L33.1894 0.304141V0.318301L33.0693 0.417314L28.1351 3.99634C27.7929 3.86273 27.4255 3.80615 27.059 3.8306C26.6925 3.85505 26.3359 3.95994 26.0144 4.13781L25.9862 4.15195C25.8094 4.25805 25.6539 4.3783 25.5196 4.51977L21.6317 7.6461C20.9389 7.26879 20.1652 7.06494 19.3767 7.05195C18.769 7.04611 18.1701 7.19715 17.6377 7.49049L17.567 7.53292C17.4398 7.60365 17.2984 7.70975 17.1641 7.81585L0.276337 19.4371C-0.00642014 19.6281 -0.0771408 20.0171 0.113724 20.3C0.172119 20.3822 0.249611 20.449 0.339504 20.4945C0.429394 20.5401 0.529018 20.5632 0.629787 20.5617C0.75581 20.5643 0.879456 20.5272 0.983234 20.4556L15.7573 10.2844C15.507 11.9959 15.8381 13.7419 16.6975 15.2427C17.4957 16.7351 18.7626 17.9232 20.3027 18.6236L0.368237 27.8188C0.294136 27.8523 0.227394 27.9002 0.171925 27.9598C0.116459 28.0193 0.073349 28.0892 0.0450783 28.1655C0.0168076 28.2419 0.00394821 28.323 0.0072403 28.4043C0.0105286 28.4856 0.0299339 28.5655 0.0642776 28.6393H0.071312ZM39.4596 2.80097C39.8837 3.47999 39.8837 4.31464 39.4525 4.58342C39.3465 4.64001 39.2405 4.6683 39.1203 4.6683C38.6749 4.6683 38.1731 4.32878 37.8479 3.80537C37.4237 3.12635 37.4237 2.2917 37.8549 2.02292C37.9547 1.9612 38.0699 1.92932 38.1872 1.93098C38.6325 1.93098 39.1274 2.27048 39.4596 2.80097ZM27.4212 7.94318C27.6683 8.2298 27.9743 8.45968 28.3183 8.61715C28.6624 8.77461 29.0363 8.85594 29.4146 8.8556H29.4853L29.5984 8.84854C29.4636 8.99409 29.2992 9.10914 29.1164 9.18599C28.9335 9.26284 28.7363 9.29972 28.538 9.29416C27.923 9.29416 27.0041 8.96879 26.4598 8.05635C25.8943 7.0944 25.8518 5.98391 26.3749 5.41805L26.6577 5.19171C26.7485 5.14363 26.8463 5.11023 26.9475 5.09269C26.8556 5.27659 26.7849 5.47463 26.7496 5.69389C26.6941 6.09506 26.7254 6.50347 26.8412 6.89151C26.9571 7.27955 27.1549 7.6382 27.4212 7.94318ZM18.4577 12.2932C18.4789 11.9042 18.6344 11.6 18.8819 11.4444C18.9015 11.4314 18.9204 11.4172 18.9384 11.4019L24.7844 6.69829C24.8214 7.40383 25.0328 8.08917 25.3994 8.69293C25.8587 9.46025 26.5712 10.0431 27.4141 10.341L20.9318 14.6415C20.6915 14.7971 20.3451 14.8112 19.9846 14.6698C19.5534 14.5071 19.1505 14.1746 18.8606 13.7149C18.5708 13.2622 18.4224 12.7529 18.4577 12.3003V12.2932ZM27.9655 5.9061C28.0008 5.69391 28.0998 5.53829 28.227 5.46049C28.244 5.45198 28.2605 5.44253 28.2765 5.43219L32.3694 2.45439C32.4299 2.95322 32.6034 3.43167 32.8765 3.85331C33.1497 4.27495 33.5154 4.62868 33.9458 4.88756L30.3265 7.21464C30.1639 7.23586 30.0225 7.32781 29.9236 7.45513C29.8741 7.52586 29.7115 7.60367 29.457 7.61074H29.4075C29.0117 7.61074 28.6017 7.4339 28.3755 7.15805C28.0432 6.75488 27.8948 6.3022 27.9655 5.9061ZM32.7017 7.9644C32.4896 7.87952 32.2775 7.73805 32.1008 7.54L36.1089 4.97244C36.3622 4.81596 36.5733 4.59985 36.7239 4.34294C36.9843 4.81451 37.3585 5.2133 37.8125 5.50293L33.4439 7.94318C33.2318 8.07757 32.9844 8.08464 32.7087 7.9644H32.7017ZM33.96 9.07487C33.9034 9.28706 33.7974 9.44976 33.663 9.53464C33.3591 9.72562 32.8784 9.76097 32.4401 9.62658C31.8706 9.43028 31.3845 9.04622 31.0617 8.53732C31.0774 8.45305 31.0892 8.36806 31.097 8.28268C31.4222 8.66463 31.818 8.94757 32.2493 9.11733C32.532 9.2305 32.8148 9.28708 33.0905 9.28708C33.4015 9.28708 33.6984 9.21633 33.96 9.07487ZM31.5424 10.5956L23.102 14.8961C23.0667 14.9102 22.897 14.9598 22.6779 14.9668L29.9094 10.1712C30.1215 10.0439 30.2982 9.90244 30.4467 9.74683C30.7719 10.1005 31.1465 10.3905 31.5424 10.5956ZM24.6148 15.5185C24.5441 16.4946 24.021 16.9756 23.1656 17.4566C22.4234 17.8668 21.462 17.8244 20.4794 17.3434C19.3288 16.7375 18.3877 15.7982 17.7791 14.6485C17.1207 13.522 16.8176 12.2228 16.9096 10.921C16.9293 10.5179 17.0289 10.1228 17.2024 9.75859C17.3759 9.39434 17.62 9.06818 17.9204 8.79903L18.2669 8.55854C18.6219 8.39082 19.0086 8.30089 19.4011 8.29479C19.7937 8.28869 20.183 8.36655 20.5431 8.52316L18.175 10.4188C17.6165 10.7937 17.2701 11.4302 17.2206 12.2154C17.1856 12.9846 17.396 13.7451 17.8215 14.3868C18.2277 15.0415 18.8319 15.5494 19.5463 15.8368C20.126 16.049 20.7198 16.0702 21.2358 15.8722C21.5968 16.0689 21.9962 16.1847 22.4063 16.2115C22.8164 16.2384 23.2275 16.1757 23.611 16.0278L23.6463 16.0137L24.6148 15.5185ZM33.8398 1.37928L33.9105 1.33684L34.0165 1.47829L33.9387 1.3156L33.9458 1.30854C34.035 1.26124 34.1347 1.23693 34.2356 1.2378C34.681 1.2378 35.19 1.59853 35.5081 2.13609C35.7272 2.51097 35.8332 2.91416 35.7908 3.28196C35.7625 3.57904 35.6494 3.80537 35.4586 3.91854C35.3667 3.96806 35.2606 3.99634 35.1475 3.99634C34.7022 3.99634 34.1932 3.64269 33.8751 3.10513C33.5005 2.46855 33.4863 1.6905 33.8398 1.37928Z" fill="#F15E27"/>
</g>
<defs>
<clipPath id="clip0">
<rect width="41" height="29" fill="white" transform="matrix(-1 0 0 1 41 0)"/>
</clipPath>
</defs>
</svg>
