<svg width="17" height="24" viewBox="0 0 17 24" fill="none" xmlns="http://www.w3.org/2000/svg">
<path d="M8.5 0.529846C3.81307 0.529846 0 4.34292 0 9.0298C0 14.8464 7.60667 23.3854 7.93053 23.7461C8.23472 24.0849 8.76583 24.0843 9.06947 23.7461C9.39333 23.3854 17 14.8464 17 9.0298C16.9999 4.34292 13.1869 0.529846 8.5 0.529846ZM8.5 13.3064C6.14189 13.3064 4.22348 11.3879 4.22348 9.0298C4.22348 6.67169 6.14194 4.75328 8.5 4.75328C10.8581 4.75328 12.7765 6.67174 12.7765 9.02985C12.7765 11.388 10.8581 13.3064 8.5 13.3064Z" fill="#4483CE"/>
</svg>
