<svg width="22" height="21" viewBox="0 0 22 21" fill="none" xmlns="http://www.w3.org/2000/svg">
<path d="M15.9657 13.8919C15.2797 13.2145 14.4231 13.2145 13.7414 13.8919C13.2214 14.4075 12.7014 14.9232 12.1901 15.4476C12.0502 15.5918 11.9322 15.6224 11.7618 15.5262C11.4253 15.3427 11.067 15.1941 10.7436 14.9931C9.23594 14.0448 7.973 12.8256 6.85428 11.4534C6.29929 10.7717 5.80548 10.0419 5.46025 9.22031C5.39033 9.05425 5.40344 8.945 5.53891 8.80953C6.05894 8.30698 6.56586 7.79132 7.07715 7.27566C7.78946 6.55898 7.78946 5.71994 7.07278 4.99889C6.66637 4.58811 6.25996 4.18606 5.85355 3.77528C5.43403 3.35576 5.01888 2.93187 4.59499 2.51672C3.9089 1.84811 3.05238 1.84811 2.37065 2.52109C1.84625 3.03675 1.3437 3.56552 0.810561 4.07244C0.31675 4.54004 0.0676592 5.11251 0.0152191 5.78112C-0.0678111 6.86925 0.198759 7.8962 0.57458 8.89693C1.3437 10.9683 2.51486 12.8081 3.93512 14.4949C5.85355 16.7761 8.14344 18.5809 10.8223 19.8831C12.0284 20.4687 13.2782 20.9188 14.6373 20.9931C15.5724 21.0456 16.3853 20.8096 17.0364 20.0798C17.4821 19.5816 17.9847 19.1271 18.4567 18.6508C19.1559 17.9429 19.1602 17.0863 18.4654 16.3871C17.6351 15.5525 16.8004 14.7222 15.9657 13.8919Z" fill="#4483CE"/>
<path d="M15.1316 10.4089L16.7442 10.1336C16.4907 8.65217 15.7915 7.31058 14.7296 6.2443C13.6065 5.1212 12.1862 4.41326 10.6218 4.19476L10.3945 5.81604C11.605 5.98647 12.7063 6.53272 13.5759 7.40235C14.3975 8.22391 14.935 9.26397 15.1316 10.4089Z" fill="#4483CE"/>
<path d="M17.6538 3.39944C15.7922 1.53782 13.4368 0.362283 10.8366 -0.000427246L10.6094 1.62085C12.8556 1.93549 14.892 2.9537 16.5001 4.55749C18.0253 6.08262 19.026 8.0098 19.3887 10.1293L21.0013 9.85394C20.5774 7.398 19.4193 5.16929 17.6538 3.39944Z" fill="#4483CE"/>
</svg>
