<svg width="34" height="34" viewBox="0 0 34 34" fill="none" xmlns="http://www.w3.org/2000/svg">
<path d="M28.0806 0H5.9194L0 9.4707V34H34V9.4707L28.0806 0ZM32.4111 9.06667H17.5667V1.13333H27.4527L32.4111 9.06667ZM6.54727 1.13333H16.4333V9.06667H1.58893L6.54727 1.13333ZM1.13333 32.8667V10.2H32.8667V32.8667H1.13333Z" />
<path d="M20.4004 13.0333H13.6004C12.6631 13.0333 11.9004 13.7961 11.9004 14.7333C11.9004 15.6706 12.6631 16.4333 13.6004 16.4333H20.4004C21.3377 16.4333 22.1004 15.6706 22.1004 14.7333C22.1004 13.7961 21.3377 13.0333 20.4004 13.0333ZM20.4004 15.3H13.6004C13.2882 15.3 13.0337 15.0461 13.0337 14.7333C13.0337 14.4205 13.2882 14.1667 13.6004 14.1667H20.4004C20.7126 14.1667 20.9671 14.4205 20.9671 14.7333C20.9671 15.0461 20.7126 15.3 20.4004 15.3Z" />
<path d="M21.5337 29.4667H12.4671C12.1543 29.4667 11.9004 29.72 11.9004 30.0333C11.9004 30.3467 12.1543 30.6 12.4671 30.6H21.5337C21.8465 30.6 22.1004 30.3467 22.1004 30.0333C22.1004 29.72 21.8465 29.4667 21.5337 29.4667Z" />
<path d="M14.1672 28.3333C14.48 28.3333 14.7339 28.08 14.7339 27.7667V24.0346L15.4666 24.7673C15.5771 24.8778 15.7221 24.9333 15.8672 24.9333C16.0123 24.9333 16.1573 24.8778 16.2678 24.7673C16.4894 24.5457 16.4894 24.1876 16.2678 23.966L14.5684 22.2666C14.5163 22.2139 14.4534 22.1725 14.3837 22.1436C14.2454 22.0864 14.089 22.0864 13.9507 22.1436C13.881 22.1725 13.8187 22.2139 13.766 22.2666L12.0666 23.966C11.845 24.1876 11.845 24.5457 12.0666 24.7673C12.1771 24.8778 12.3221 24.9333 12.4672 24.9333C12.6123 24.9333 12.7573 24.8778 12.8678 24.7673L13.6005 24.0346V27.7667C13.6005 28.08 13.8544 28.3333 14.1672 28.3333Z" />
<path d="M20.2344 22.2666C20.1823 22.2139 20.1194 22.1725 20.0497 22.1436C19.9114 22.0864 19.755 22.0864 19.6167 22.1436C19.547 22.1725 19.4847 22.2139 19.432 22.2666L17.7326 23.966C17.511 24.1876 17.511 24.5457 17.7326 24.7673C17.8431 24.8778 17.9881 24.9333 18.1332 24.9333C18.2783 24.9333 18.4233 24.8778 18.5338 24.7673L19.2665 24.0346V27.7667C19.2665 28.08 19.5204 28.3333 19.8332 28.3333C20.146 28.3333 20.3999 28.08 20.3999 27.7667V24.0346L21.1326 24.7673C21.2431 24.8778 21.3881 24.9333 21.5332 24.9333C21.6783 24.9333 21.8233 24.8778 21.9338 24.7673C22.1554 24.5457 22.1554 24.1876 21.9338 23.966L20.2344 22.2666Z" />
</svg>
