<svg width="32" height="32" viewBox="0 0 32 32" fill="none" xmlns="http://www.w3.org/2000/svg">
<path d="M30.0637 13.3853H23.7244C23.4028 13.3853 23.1428 13.6452 23.1428 13.9669C23.1428 14.2885 23.4028 14.5485 23.7244 14.5485H29.0185L30.7047 30.2528H1.31916L3.29847 14.5485H8.60185C8.9235 14.5485 9.18349 14.2885 9.18349 13.9669C9.18349 13.6452 8.9235 13.3853 8.60185 13.3853H2.27246L0 31.416H32L30.0637 13.3853Z" />
<path d="M15.5029 22.6652C15.4174 22.7159 15.3261 22.7606 15.2441 22.8136C15.1161 22.8962 14.9911 22.9828 14.8684 23.0724C14.6095 23.2626 14.5537 23.6267 14.7433 23.8855C14.8573 24.0408 15.0341 24.1228 15.2133 24.1228C15.3325 24.1228 15.4529 24.0862 15.557 24.0106C15.6605 23.9344 15.7658 23.8611 15.8758 23.7901C16.0625 23.6692 16.2608 23.5557 16.4655 23.4522C16.7377 23.3144 16.8483 22.9921 16.7342 22.7141C16.7389 22.7095 16.7447 22.706 16.7488 22.7013C17.801 21.5869 21.3466 17.4107 22.8147 10.4532C23.1125 9.04211 23.1794 7.68806 23.0136 6.42881C22.5134 2.60454 20.1374 0.582764 16.1427 0.582764C12.1492 0.582764 9.7732 2.60454 9.27183 6.42881C9.10664 7.68864 9.17353 9.0427 9.47133 10.4532C10.9248 17.3433 14.4147 21.5031 15.5029 22.6652ZM10.4252 6.58062C10.8516 3.3281 12.7221 1.74662 16.1433 1.74662C19.5651 1.74662 21.4351 3.3281 21.8608 6.58062C22.0091 7.709 21.9469 8.93218 21.677 10.2141C20.3573 16.4685 17.2106 20.437 16.1433 21.641C15.0748 20.4358 11.9288 16.4656 10.6096 10.2141C10.3391 8.93218 10.2775 7.70958 10.4252 6.58062Z" />
<path d="M16.1438 11.5891C18.5 11.5891 20.4165 9.67263 20.4165 7.31642C20.4165 4.9602 18.5 3.0437 16.1438 3.0437C13.7876 3.0437 11.8711 4.9602 11.8711 7.31642C11.8711 9.67263 13.7876 11.5891 16.1438 11.5891ZM16.1438 4.20756C17.8579 4.20756 19.2532 5.60233 19.2532 7.317C19.2532 9.03167 17.8585 10.4264 16.1438 10.4264C14.4291 10.4264 13.0344 9.03167 13.0344 7.317C13.0344 5.60233 14.4297 4.20756 16.1438 4.20756Z" />
<path d="M18.2805 21.6194C17.9664 21.6857 17.7663 21.9952 17.8332 22.3098C17.8914 22.5832 18.1327 22.7699 18.4015 22.7699C18.4416 22.7699 18.4829 22.7658 18.5236 22.7571C18.8644 22.685 19.2338 22.6239 19.6206 22.5751C19.9393 22.5361 20.1662 22.2453 20.126 21.9265C20.0865 21.6072 19.7986 21.3769 19.4775 21.4211C19.057 21.4729 18.6539 21.5397 18.2805 21.6194Z" />
<path d="M21.2877 21.8556C21.3005 22.168 21.5587 22.4123 21.8681 22.4123C21.8769 22.4123 21.885 22.4123 21.8937 22.4117L23.0576 22.3634C23.3781 22.3489 23.627 22.0767 23.6119 21.7562C23.5974 21.4345 23.2984 21.1838 23.0047 21.2013L21.8437 21.2496C21.5227 21.263 21.2737 21.534 21.2877 21.8556Z" />
<path d="M13.0472 24.5317C12.7482 24.7574 12.4394 24.9743 12.1282 25.1756C11.8589 25.3506 11.7821 25.7107 11.9572 25.9806C12.0683 26.1521 12.2556 26.2452 12.4458 26.2452C12.5546 26.2452 12.6639 26.215 12.7622 26.1516C13.0955 25.9352 13.4276 25.7025 13.7481 25.4606C14.004 25.2669 14.0552 24.9022 13.8621 24.6457C13.6684 24.3915 13.3049 24.338 13.0472 24.5317Z" />
<path d="M26.0107 20.6964C25.8141 20.8343 25.5587 20.9343 25.2278 21.0024C24.9131 21.0669 24.7107 21.3752 24.7759 21.6899C24.8329 21.965 25.0748 22.154 25.3453 22.154C25.3843 22.154 25.4238 22.1499 25.4634 22.1418C25.9531 22.0406 26.3509 21.8789 26.6825 21.6456L26.7604 21.5886C27.0163 21.3944 27.0669 21.0297 26.8733 20.7738C26.679 20.5178 26.3149 20.4678 26.0584 20.6609L26.0107 20.6964Z" />
<path d="M5.15262 25.2442C5.23695 24.9342 5.05316 24.6149 4.74314 24.5311C4.43546 24.4445 4.11381 24.6294 4.03005 24.9406C3.95677 25.2105 3.91314 25.4862 3.89918 25.7578C3.89628 25.8247 3.89453 25.8922 3.89453 25.9631C3.89511 26.0771 3.90035 26.1911 3.9114 26.3046C3.94223 26.6041 4.19466 26.8269 4.48955 26.8269C4.50874 26.8269 4.52852 26.8257 4.54946 26.824C4.86878 26.7908 5.10143 26.5058 5.06944 26.1859C5.0613 26.1097 5.05839 26.0323 5.05781 25.9591C5.05781 25.9108 5.05955 25.8625 5.06188 25.8148C5.07119 25.6264 5.10143 25.4338 5.15262 25.2442Z" />
<path d="M25.9989 16.1753C25.5371 16.1136 25.0659 16.1514 24.6111 16.2805C24.3017 16.3672 24.1219 16.6889 24.2098 16.9977C24.2819 17.2542 24.5151 17.4217 24.7687 17.4217C24.8217 17.4217 24.8746 17.4147 24.9269 17.3996C25.2294 17.3147 25.5406 17.2879 25.843 17.3287C26.1699 17.3694 26.4549 17.1478 26.4974 16.8302C26.5404 16.5109 26.3171 16.2183 25.9989 16.1753Z" />
<path d="M27.1549 19.0568C27.0601 19.3633 27.2323 19.6896 27.5388 19.7839C27.5964 19.8019 27.6534 19.81 27.7104 19.81C27.9594 19.81 28.1891 19.6501 28.2659 19.4C28.3235 19.215 28.3589 19.0272 28.3723 18.8399C28.3752 18.7916 28.377 18.7427 28.377 18.6945C28.377 18.4222 28.3269 18.1495 28.2286 17.8848C28.117 17.5829 27.7802 17.4306 27.4812 17.5417C27.1794 17.6533 27.0264 17.9883 27.1381 18.2891C27.1881 18.424 27.2137 18.5607 27.2137 18.6939L27.2119 18.7619C27.205 18.8585 27.1864 18.955 27.1549 19.0568Z" />
<path d="M10.1674 26.2691C9.82661 26.4291 9.47937 26.5774 9.13562 26.7106C8.83608 26.8258 8.68718 27.1625 8.80292 27.4627C8.89192 27.693 9.11177 27.8349 9.34559 27.8349C9.41539 27.8349 9.48635 27.8227 9.55498 27.7959C9.92432 27.6534 10.2966 27.4941 10.6618 27.3231C10.9527 27.187 11.0777 26.8403 10.941 26.5495C10.8055 26.2581 10.46 26.1319 10.1674 26.2691Z" />
<path d="M5.93412 23.8476C6.02776 23.8476 6.12315 23.825 6.21214 23.7767C6.37965 23.6854 6.55821 23.6284 6.74201 23.6086C6.82053 23.5993 6.9008 23.5993 6.97816 23.6098C7.30562 23.6522 7.58888 23.4277 7.63075 23.1095C7.67263 22.7908 7.4487 22.4988 7.13055 22.4569C6.95722 22.4343 6.78098 22.4331 6.61231 22.4523C6.27845 22.4889 5.95622 22.5913 5.65493 22.7553C5.37283 22.9095 5.26872 23.2619 5.42286 23.544C5.52871 23.7383 5.72822 23.8476 5.93412 23.8476Z" />
<path d="M5.81241 28.4083C5.93804 28.4409 6.06601 28.4653 6.1928 28.4804C6.3417 28.4985 6.4906 28.5078 6.64008 28.5078C6.82214 28.5078 7.00477 28.495 7.18682 28.4717C7.50556 28.4316 7.73182 28.1408 7.6911 27.822C7.65039 27.5033 7.36131 27.2788 7.04141 27.3178C6.80643 27.348 6.56912 27.355 6.33414 27.3265C6.25736 27.3166 6.18059 27.3021 6.10498 27.2829C5.7938 27.1997 5.47681 27.3881 5.39538 27.6993C5.31569 28.0105 5.50182 28.3281 5.81241 28.4083Z" />
</svg>
