<svg width="46" height="37" viewBox="0 0 46 37" fill="none" xmlns="http://www.w3.org/2000/svg">
<path d="M33.0625 30.2188C32.636 30.2188 32.2191 30.3452 31.8646 30.5821C31.51 30.8191 31.2336 31.1558 31.0704 31.5498C30.9072 31.9438 30.8645 32.3774 30.9477 32.7957C31.0309 33.2139 31.2362 33.5981 31.5378 33.8997C31.8394 34.2013 32.2236 34.4066 32.6418 34.4898C33.0601 34.573 33.4937 34.5303 33.8877 34.3671C34.2817 34.2039 34.6184 33.9275 34.8554 33.573C35.0923 33.2184 35.2188 32.8015 35.2188 32.375C35.2188 31.8031 34.9916 31.2547 34.5872 30.8503C34.1828 30.4459 33.6344 30.2188 33.0625 30.2188ZM33.0625 33.0938C32.9203 33.0938 32.7814 33.0516 32.6632 32.9726C32.545 32.8936 32.4529 32.7814 32.3985 32.6501C32.3441 32.5187 32.3298 32.3742 32.3576 32.2348C32.3853 32.0954 32.4538 31.9673 32.5543 31.8668C32.6548 31.7662 32.7829 31.6978 32.9223 31.6701C33.0617 31.6423 33.2062 31.6566 33.3376 31.711C33.4689 31.7654 33.5811 31.8575 33.6601 31.9757C33.7391 32.0939 33.7813 32.2328 33.7813 32.375C33.7813 32.5656 33.7055 32.7484 33.5707 32.8832C33.4359 33.018 33.2531 33.0938 33.0625 33.0938Z" />
<path d="M7.90625 30.2188C7.47978 30.2188 7.0629 30.3452 6.7083 30.5821C6.35371 30.8191 6.07734 31.1558 5.91414 31.5498C5.75093 31.9438 5.70823 32.3774 5.79143 32.7957C5.87463 33.2139 6.07999 33.5981 6.38155 33.8997C6.68311 34.2013 7.06732 34.4066 7.48559 34.4898C7.90386 34.573 8.33741 34.5303 8.73141 34.3671C9.12541 34.2039 9.46217 33.9275 9.6991 33.573C9.93604 33.2184 10.0625 32.8015 10.0625 32.375C10.0625 31.8031 9.83532 31.2547 9.43095 30.8503C9.02657 30.4459 8.47812 30.2188 7.90625 30.2188ZM7.90625 33.0938C7.76409 33.0938 7.62513 33.0516 7.50693 32.9726C7.38874 32.8936 7.29661 32.7814 7.24221 32.6501C7.18781 32.5187 7.17358 32.3742 7.20131 32.2348C7.22904 32.0954 7.2975 31.9673 7.39802 31.8668C7.49854 31.7662 7.6266 31.6978 7.76603 31.6701C7.90545 31.6423 8.04997 31.6566 8.1813 31.711C8.31264 31.7654 8.42489 31.8575 8.50387 31.9757C8.58285 32.0939 8.625 32.2328 8.625 32.375C8.625 32.5656 8.54927 32.7484 8.41448 32.8832C8.27969 33.018 8.09687 33.0938 7.90625 33.0938Z" />
<path d="M41.6885 35.25H36.2691C36.9813 34.4617 37.3757 33.4373 37.376 32.375H38.8135C39.0041 32.375 39.1869 32.2992 39.3217 32.1644C39.4565 32.0296 39.5322 31.8468 39.5322 31.6562V17.6557C40.9206 16.9339 42.1054 15.8747 42.9776 14.5756C43.8499 13.2765 44.3818 11.7789 44.5243 10.2206C44.6669 8.66233 44.4156 7.09318 43.7935 5.65733C43.1714 4.22148 42.1985 2.96497 40.9642 2.00321C39.7298 1.04145 38.2735 0.405285 36.7292 0.153152C35.1848 -0.0989817 33.6018 0.0409997 32.1257 0.560237C30.6495 1.07948 29.3275 1.96132 28.2811 3.12477C27.2346 4.28822 26.4973 5.69597 26.1369 7.21871H11.501C11.3103 7.21871 11.1275 7.29443 10.9927 7.42922C10.8579 7.56401 10.7822 7.74683 10.7822 7.93746V14.4062H4.31346C4.15323 14.4062 3.9976 14.4598 3.87128 14.5583C3.74497 14.6569 3.65521 14.7949 3.61628 14.9503L2.89753 17.8253C2.87098 17.9313 2.86894 18.0419 2.89156 18.1488C2.91419 18.2557 2.96088 18.356 3.0281 18.4421C3.09531 18.5283 3.18128 18.5979 3.27946 18.6459C3.37764 18.6938 3.48546 18.7187 3.59471 18.7187H4.11221L3.03409 23.0312H2.15721C1.97729 23.0305 1.80363 23.0973 1.67055 23.2184C1.53747 23.3395 1.45466 23.5061 1.43846 23.6853L0.719714 31.5915C0.710706 31.6912 0.722615 31.7917 0.75468 31.8865C0.786744 31.9813 0.838257 32.0684 0.905919 32.1421C0.973581 32.2159 1.0559 32.2747 1.14761 32.3148C1.23931 32.3549 1.33838 32.3754 1.43846 32.375H3.59471C3.595 33.4373 3.98941 34.4617 4.70159 35.25H1.43846C1.24784 35.25 1.06502 35.3257 0.930231 35.4605C0.79544 35.5953 0.719714 35.7781 0.719714 35.9687C0.719714 36.1593 0.79544 36.3421 0.930231 36.4769C1.06502 36.6117 1.24784 36.6875 1.43846 36.6875H41.6885C41.8791 36.6875 42.0619 36.6117 42.1967 36.4769C42.3315 36.3421 42.4072 36.1593 42.4072 35.9687C42.4072 35.7781 42.3315 35.5953 42.1967 35.4605C42.0619 35.3257 41.8791 35.25 41.6885 35.25ZM12.2197 32.375H28.751C28.7512 33.4373 29.1457 34.4617 29.8578 35.25H11.1128C11.825 34.4617 12.2194 33.4373 12.2197 32.375ZM30.1885 32.375C30.1885 31.8063 30.3571 31.2505 30.673 30.7777C30.9889 30.3049 31.4379 29.9364 31.9632 29.7188C32.4886 29.5012 33.0667 29.4443 33.6243 29.5552C34.182 29.6661 34.6943 29.9399 35.0964 30.342C35.4985 30.7441 35.7723 31.2564 35.8832 31.8141C35.9942 32.3718 35.9372 32.9498 35.7196 33.4752C35.502 34.0005 35.1335 34.4495 34.6607 34.7654C34.1879 35.0813 33.6321 35.25 33.0635 35.25C32.301 35.25 31.5697 34.9471 31.0305 34.4079C30.4914 33.8687 30.1885 33.1375 30.1885 32.375ZM38.0947 30.9375H37.1244C36.8284 30.0968 36.2788 29.3687 35.5514 28.8536C34.824 28.3386 33.9547 28.062 33.0635 28.062C32.1722 28.062 31.3029 28.3386 30.5755 28.8536C29.8481 29.3687 29.2985 30.0968 29.0025 30.9375H12.2197V24.4687H38.0947V30.9375ZM35.2197 1.46871C36.7834 1.46871 38.312 1.9324 39.6122 2.80115C40.9124 3.6699 41.9257 4.90469 42.5241 6.34936C43.1225 7.79404 43.2791 9.38373 42.974 10.9174C42.669 12.4511 41.916 13.8598 40.8103 14.9655C39.7046 16.0712 38.2958 16.8242 36.7621 17.1293C35.2285 17.4344 33.6388 17.2778 32.1941 16.6794C30.7494 16.081 29.5147 15.0676 28.6459 13.7674C27.7772 12.4673 27.3135 10.9387 27.3135 9.37496C27.3159 7.27885 28.1497 5.2693 29.6319 3.78712C31.1141 2.30495 33.1236 1.47118 35.2197 1.46871ZM12.2197 8.65621H25.9126C25.8939 8.89411 25.876 9.13202 25.876 9.37496C25.8744 10.8488 26.2219 12.3021 26.89 13.6159C27.558 14.9296 28.5278 16.0665 29.7197 16.9334C30.9117 17.8003 32.292 18.3726 33.7477 18.6035C35.2034 18.8343 36.693 18.7172 38.0947 18.2616V23.0312H12.2197V8.65621ZM4.87481 15.8437H10.7822V17.2812H4.51543L4.87481 15.8437ZM5.59356 18.7187H10.7822V23.0312H4.51543L5.59356 18.7187ZM2.22909 30.9375L2.81703 24.4687H10.7822V29.1693C10.2563 28.6948 9.62128 28.3577 8.93363 28.1878C8.24598 28.0179 7.527 28.0205 6.84063 28.1955C6.15425 28.3705 5.52174 28.7123 4.99935 29.1907C4.47695 29.6691 4.08086 30.2691 3.84628 30.9375H2.22909ZM5.03221 32.375C5.03221 31.8063 5.20083 31.2505 5.51674 30.7777C5.83265 30.3049 6.28166 29.9364 6.807 29.7188C7.33234 29.5012 7.9104 29.4443 8.4681 29.5552C9.02579 29.6661 9.53807 29.9399 9.94015 30.342C10.3422 30.7441 10.616 31.2564 10.727 31.8141C10.8379 32.3718 10.781 32.9498 10.5634 33.4752C10.3458 34.0005 9.97727 34.4495 9.50448 34.7654C9.03169 35.0813 8.47583 35.25 7.90721 35.25C7.14472 35.25 6.41345 34.9471 5.87428 34.4079C5.33511 33.8687 5.03221 33.1375 5.03221 32.375Z" />
<path d="M44.5625 35.25H43.8438C43.6531 35.25 43.4703 35.3257 43.3355 35.4605C43.2007 35.5953 43.125 35.7781 43.125 35.9688C43.125 36.1594 43.2007 36.3422 43.3355 36.477C43.4703 36.6118 43.6531 36.6875 43.8438 36.6875H44.5625C44.7531 36.6875 44.9359 36.6118 45.0707 36.477C45.2055 36.3422 45.2812 36.1594 45.2812 35.9688C45.2812 35.7781 45.2055 35.5953 45.0707 35.4605C44.9359 35.3257 44.7531 35.25 44.5625 35.25Z" />
<path d="M14.375 27.3438H28.75C28.9406 27.3438 29.1234 27.268 29.2582 27.1332C29.393 26.9984 29.4688 26.8156 29.4688 26.625C29.4688 26.4344 29.393 26.2516 29.2582 26.1168C29.1234 25.982 28.9406 25.9062 28.75 25.9062H14.375C14.1844 25.9062 14.0016 25.982 13.8668 26.1168C13.732 26.2516 13.6562 26.4344 13.6562 26.625C13.6562 26.8156 13.732 26.9984 13.8668 27.1332C14.0016 27.268 14.1844 27.3438 14.375 27.3438Z" />
<path d="M34.8177 9.97228L38.4114 12.383C38.5698 12.4893 38.7638 12.5285 38.951 12.4917C39.1382 12.455 39.3031 12.3454 39.4094 12.1871C39.5158 12.0288 39.5549 11.8347 39.5182 11.6476C39.4815 11.4604 39.3719 11.2955 39.2136 11.1891L35.9375 8.99191V3.625C35.9375 3.43438 35.8618 3.25156 35.727 3.11677C35.5922 2.98198 35.4094 2.90625 35.2188 2.90625C35.0281 2.90625 34.8453 2.98198 34.7105 3.11677C34.5757 3.25156 34.5 3.43438 34.5 3.625V9.375C34.4999 9.49299 34.5288 9.60919 34.5842 9.71336C34.6396 9.81753 34.7198 9.90645 34.8177 9.97228Z" />
</svg>
