<svg width="13" height="13" viewBox="0 0 13 13" fill="none" xmlns="http://www.w3.org/2000/svg">
<path d="M6.5 0C2.89545 0 0 2.89545 0 6.5C0 10.1045 2.89545 13 6.5 13C10.1045 13 13 10.1045 13 6.5C13 2.89545 10.1045 0 6.5 0ZM10.2523 4.46136L5.525 9.36591C5.46591 9.425 5.40682 9.45455 5.31818 9.45455C5.22955 9.45455 5.14091 9.425 5.11136 9.36591L2.80682 6.88409L2.74773 6.825C2.68864 6.76591 2.65909 6.67727 2.65909 6.61818C2.65909 6.55909 2.68864 6.47045 2.74773 6.41136L3.16136 5.99773C3.27955 5.87954 3.45682 5.87954 3.575 5.99773L3.60455 6.02727L5.22955 7.77045C5.28864 7.82955 5.37727 7.82955 5.43636 7.77045L9.39545 3.66364H9.425C9.54318 3.54545 9.72045 3.54545 9.83864 3.66364L10.2523 4.07727C10.3705 4.16591 10.3705 4.34318 10.2523 4.46136Z" fill="#22CC99"/>
</svg>
