<svg width="19" height="19" viewBox="0 0 19 19" fill="none" xmlns="http://www.w3.org/2000/svg">
<path d="M10.9142 9.50001L18.7071 1.70711C19.0976 1.31657 19.0976 0.683407 18.7071 0.292904C18.3166 -0.0976348 17.6834 -0.0976348 17.2929 0.292904L9.49998 8.0858L1.7071 0.292904C1.31656 -0.0976348 0.683405 -0.0976348 0.292904 0.292904C-0.0975974 0.683444 -0.0976345 1.3166 0.292904 1.70711L8.08578 9.50001L0.292904 17.2929C-0.0976345 17.6834 -0.0976345 18.3166 0.292904 18.7071C0.683442 19.0976 1.3166 19.0976 1.7071 18.7071L9.49998 10.9142L17.2928 18.7071C17.6834 19.0976 18.3165 19.0976 18.707 18.7071C19.0975 18.3166 19.0975 17.6834 18.707 17.2929L10.9142 9.50001Z" />
</svg>
