<svg width="32" height="32" viewBox="0 0 32 32" fill="none" xmlns="http://www.w3.org/2000/svg">
<path d="M25.0001 9.49997H16C15.6548 9.49997 15.375 9.77978 15.375 10.125C15.375 10.4702 15.6548 10.75 16 10.75H25.0001C25.3453 10.75 25.6251 10.4702 25.6251 10.125C25.6251 9.77978 25.3453 9.49997 25.0001 9.49997Z"/>
<path d="M22.8132 12.6832C22.6969 12.5669 22.5357 12.5 22.3713 12.5C22.2069 12.5 22.0457 12.5669 21.9294 12.6832C21.8132 12.7994 21.7463 12.9607 21.7463 13.125C21.7463 13.2894 21.8132 13.4507 21.9294 13.5669C22.0457 13.6832 22.2069 13.75 22.3713 13.75C22.5357 13.75 22.6969 13.6832 22.8132 13.5669C22.9294 13.4507 22.9963 13.2894 22.9963 13.125C22.9963 12.9607 22.9294 12.7994 22.8132 12.6832Z"/>
<path d="M16.4413 2.87069C16.325 2.75444 16.1638 2.68756 15.9994 2.68756C15.835 2.68756 15.6738 2.75444 15.5575 2.87069C15.4413 2.98693 15.3744 3.14818 15.3744 3.31256C15.3744 3.47693 15.4413 3.63818 15.5575 3.75443C15.6738 3.87068 15.835 3.93756 15.9994 3.93756C16.1638 3.93756 16.325 3.87068 16.4413 3.75443C16.5575 3.63818 16.6244 3.47693 16.6244 3.31256C16.6244 3.14818 16.5575 2.98693 16.4413 2.87069Z"/>
<path d="M19.7423 12.5H16C15.6548 12.5 15.375 12.7798 15.375 13.125C15.375 13.4702 15.6548 13.75 16 13.75H19.7423C20.0875 13.75 20.3673 13.4702 20.3673 13.125C20.3673 12.7798 20.0875 12.5 19.7423 12.5Z"/>
<path d="M25.0001 16.25H16C15.6548 16.25 15.375 16.5298 15.375 16.875C15.375 17.2202 15.6548 17.5 16 17.5H25.0001C25.3453 17.5 25.6251 17.2202 25.6251 16.875C25.6251 16.5298 25.3453 16.25 25.0001 16.25Z"/>
<path d="M22.8132 19.4332C22.6969 19.3169 22.5357 19.25 22.3713 19.25C22.2069 19.25 22.0457 19.3169 21.9294 19.4332C21.8132 19.5494 21.7463 19.7107 21.7463 19.875C21.7463 20.0394 21.8132 20.2007 21.9294 20.3169C22.0457 20.4332 22.2069 20.5 22.3713 20.5C22.5357 20.5 22.6969 20.4332 22.8132 20.3169C22.9294 20.2007 22.9963 20.0394 22.9963 19.875C22.9963 19.7107 22.9294 19.5494 22.8132 19.4332Z"/>
<path d="M19.7423 19.25H16C15.6548 19.25 15.375 19.5298 15.375 19.875C15.375 20.2202 15.6548 20.5 16 20.5H19.7423C20.0875 20.5 20.3673 20.2202 20.3673 19.875C20.3673 19.5298 20.0875 19.25 19.7423 19.25Z"/>
<path d="M25.0001 23H16C15.6548 23 15.375 23.2798 15.375 23.625C15.375 23.9702 15.6548 24.25 16 24.25H25.0001C25.3453 24.25 25.6251 23.9702 25.6251 23.625C25.6251 23.2798 25.3453 23 25.0001 23Z"/>
<path d="M22.8132 26.1831C22.6969 26.0669 22.5357 26 22.3713 26C22.2069 26 22.0457 26.0669 21.9294 26.1831C21.8132 26.2994 21.7463 26.4606 21.7463 26.625C21.7463 26.7894 21.8132 26.9506 21.9294 27.0669C22.0457 27.1831 22.2069 27.25 22.3713 27.25C22.5357 27.25 22.6969 27.1831 22.8132 27.0669C22.9294 26.9506 22.9963 26.7894 22.9963 26.625C22.9963 26.4606 22.9294 26.2994 22.8132 26.1831Z"/>
<path d="M19.7423 25.9999H16C15.6548 25.9999 15.375 26.2798 15.375 26.6249C15.375 26.9701 15.6548 27.2499 16 27.2499H19.7423C20.0875 27.2499 20.3673 26.9701 20.3673 26.6249C20.3673 26.2798 20.0875 25.9999 19.7423 25.9999Z"/>
<path d="M26.2026 2.43756H21.429C20.7389 1.78 19.8061 1.375 18.7799 1.375H18.2324C17.8138 0.546374 16.9539 0 16 0C15.046 0 14.1862 0.546374 13.7675 1.375H13.2187C12.1925 1.375 11.2598 1.78 10.5697 2.43756H5.79743C4.11712 2.43756 2.75006 3.80462 2.75006 5.48493V28.9526C2.75006 30.6329 4.11712 32 5.79743 32H26.2026C27.8829 32 29.2499 30.6329 29.2499 28.9526V5.48493C29.25 3.80462 27.883 2.43756 26.2026 2.43756ZM13.2188 2.62499H14.1929C14.474 2.62499 14.7205 2.43731 14.7954 2.16637C14.9444 1.62681 15.4398 1.25 16 1.25C16.5603 1.25 17.0557 1.62681 17.2047 2.16637C17.2795 2.43731 17.526 2.62499 17.8071 2.62499H18.7799C20.1365 2.62499 21.2531 3.67187 21.3645 5.00005H10.6342C10.7456 3.67187 11.8623 2.62499 13.2188 2.62499ZM28 28.9527C28 29.9438 27.1937 30.7501 26.2026 30.7501H5.79743C4.80637 30.7501 4.00006 29.9438 4.00006 28.9527V5.48493C4.00006 4.49387 4.80637 3.68756 5.79743 3.68756H9.69411C9.48936 4.15705 9.37505 4.67468 9.37505 5.2188V5.62505C9.37505 5.97024 9.65486 6.25005 10 6.25005H21.9987C22.3439 6.25005 22.6237 5.97024 22.6237 5.62505V5.2188C22.6237 4.67474 22.5094 4.15705 22.3046 3.68756H26.2026C27.1937 3.68756 28 4.49387 28 5.48493V28.9527Z"/>
<path d="M12.0256 9.34974C11.7816 9.10568 11.3858 9.10568 11.1417 9.34968L8.46912 12.0224L7.64581 11.199C7.40175 10.955 7.006 10.955 6.76187 11.199C6.51781 11.4431 6.51781 11.8388 6.76187 12.0829L8.02718 13.3482C8.14925 13.4703 8.30918 13.5313 8.46912 13.5313C8.62906 13.5313 8.78906 13.4703 8.91106 13.3482L12.0256 10.2337C12.2697 9.98962 12.2697 9.59387 12.0256 9.34974Z"/>
<path d="M10.5 23H7.50006C7.15487 23 6.87506 23.2798 6.87506 23.625V26.625C6.87506 26.9701 7.15487 27.25 7.50006 27.25H10.5C10.8452 27.25 11.125 26.9701 11.125 26.625V23.625C11.125 23.2798 10.8452 23 10.5 23ZM9.87505 26H8.12506V24.25H9.87505V26Z"/>
<path d="M10.5 16.25H7.50006C7.15487 16.25 6.87506 16.5298 6.87506 16.875V19.875C6.87506 20.2201 7.15487 20.5 7.50006 20.5H10.5C10.8452 20.5 11.125 20.2201 11.125 19.875V16.875C11.125 16.5298 10.8452 16.25 10.5 16.25ZM9.87505 19.25H8.12506V17.5H9.87505V19.25Z"/>
</svg>
