<svg width="9" height="9" viewBox="0 0 9 9" fill="none" xmlns="http://www.w3.org/2000/svg">
<path d="M6.02429 4.50079L8.68467 1.84062C9.10562 1.41968 9.10562 0.737284 8.68467 0.316554C8.26416 -0.104175 7.58133 -0.104175 7.16082 0.316554L4.50043 2.97715L1.84005 0.316554C1.41954 -0.104175 0.736712 -0.104175 0.316197 0.316554C-0.104748 0.7375 -0.104748 1.41989 0.316197 1.84062L2.97637 4.50079L0.316197 7.16096C-0.104748 7.5819 -0.104748 8.2643 0.316197 8.68503C0.526347 8.89561 0.802451 9.00057 1.07812 9.00057C1.35358 9.00057 1.6299 8.89561 1.84005 8.68503L4.50043 6.02486L7.16082 8.68524C7.37118 8.89582 7.64707 9.00079 7.92274 9.00079C8.19842 9.00079 8.47452 8.89582 8.68467 8.68524C9.10562 8.2643 9.10562 7.5819 8.68467 7.16117L6.02429 4.50079Z" />
</svg>
