<svg width="19" height="10" viewBox="0 0 19 10" fill="none" xmlns="http://www.w3.org/2000/svg">
<path d="M18.8214 4.62944C18.6521 4.44063 14.5808 0 9.4815 0C4.38217 0 0.310907 4.44063 0.141611 4.62944C-0.0472037 4.84048 -0.0472037 5.15952 0.141611 5.37056C0.310907 5.55937 4.38224 10 9.4815 10C14.5808 10 18.6521 5.55937 18.8214 5.37056C19.0102 5.15952 19.0102 4.84048 18.8214 4.62944ZM9.4815 8.88889C7.33739 8.88889 5.59261 7.14411 5.59261 5C5.59261 2.85589 7.33739 1.11111 9.4815 1.11111C11.6256 1.11111 13.3704 2.85589 13.3704 5C13.3704 7.14411 11.6256 8.88889 9.4815 8.88889Z" fill="#4483CE"/>
<path d="M10.0374 3.8889C10.0374 3.33001 10.3149 2.83834 10.737 2.53593C10.3582 2.34204 9.93577 2.22223 9.48188 2.22223C7.95029 2.22223 6.7041 3.46841 6.7041 5.00001C6.7041 6.5316 7.95029 7.77778 9.48188 7.77778C10.8531 7.77778 11.9881 6.77653 12.2123 5.46823C11.0936 5.82841 10.0374 4.9823 10.0374 3.8889Z" fill="#4483CE"/>
</svg>
