<svg width="28" height="28" viewBox="0 0 28 28" fill="none" xmlns="http://www.w3.org/2000/svg">
<path d="M14.0014 16.4131C15.3341 16.4131 16.4145 15.3327 16.4145 14C16.4145 12.6673 15.3341 11.5869 14.0014 11.5869C12.6687 11.5869 11.5884 12.6673 11.5884 14C11.5884 15.3327 12.6687 16.4131 14.0014 16.4131Z" fill="#4483CE"/>
<path d="M27.4316 11.6084L24.059 10.976C23.854 10.2938 23.5853 9.63948 23.2523 9.02391L25.2038 6.17075C25.3845 5.90668 25.3468 5.50943 25.1204 5.28359L22.7143 2.8769C22.4879 2.65048 22.0912 2.614 21.8283 2.79409L18.9734 4.74677C18.3399 4.40511 17.6653 4.1312 16.9617 3.92447L16.3328 0.569242C16.2737 0.254798 15.968 0 15.6471 0H12.2444C11.9242 0 11.6179 0.254798 11.5582 0.569242L10.9224 3.95748C10.2477 4.16363 9.60089 4.43233 8.9917 4.76357L6.17386 2.83579C5.9098 2.65511 5.51254 2.69217 5.2867 2.9186L2.88001 5.32528C2.65359 5.5517 2.61711 5.94838 2.7972 6.21244L4.73715 9.04765C4.41054 9.65685 4.1459 10.3031 3.94322 10.9766L0.570616 11.6084C0.256751 11.668 0.00195312 11.9744 0.00195312 12.2946V15.6973C0.00195312 16.0175 0.256751 16.3239 0.570616 16.3841L3.9409 17.0159C4.14648 17.7038 4.41749 18.364 4.7522 18.9842L2.83427 21.7881C2.65359 22.0522 2.69065 22.4495 2.91708 22.6747L5.32318 25.0808C5.5496 25.3078 5.94628 25.3437 6.21034 25.1648L9.01312 23.2463C9.61595 23.5723 10.2558 23.8375 10.9235 24.0425L11.5588 27.4319C11.6184 27.7464 11.9248 28 12.245 28H15.6483C15.9691 28 16.2743 27.7464 16.3345 27.4319L16.964 24.0761C17.6589 23.8711 18.3272 23.6007 18.9549 23.2648L21.793 25.2071C22.0571 25.3877 22.4543 25.3507 22.6801 25.1231L25.0851 22.7181C25.3127 22.4911 25.3486 22.0956 25.1691 21.831L23.2378 19.0091C23.5789 18.3814 23.8528 17.7137 24.0618 17.017L27.4316 16.3853C27.7448 16.325 27.9991 16.0187 27.9991 15.6985V12.2957C28.0014 11.9744 27.746 11.668 27.4316 11.6084ZM14.002 19.8401C10.7776 19.8401 8.16302 17.2255 8.16302 13.9994C8.16302 10.7756 10.7776 8.16049 14.002 8.16049C17.2275 8.16049 19.8426 10.7756 19.8426 13.9994C19.8426 17.2255 17.2263 19.8401 14.002 19.8401Z" fill="#4483CE"/>
</svg>
