<svg width="34" height="34" viewBox="0 0 34 34" fill="none" xmlns="http://www.w3.org/2000/svg">
<path d="M17.5667 9.06665H9.63333V17H17.5667V9.06665ZM16.4333 15.8666H10.7667V10.2H16.4333V15.8666Z" fill="black"/>
<path d="M29.4667 9.06665H20.4C20.0866 9.06665 19.8333 9.31995 19.8333 9.63332C19.8333 9.94668 20.0866 10.2 20.4 10.2H29.4667C29.78 10.2 30.0333 9.94668 30.0333 9.63332C30.0333 9.31995 29.78 9.06665 29.4667 9.06665Z" fill="black"/>
<path d="M29.4667 12.4666H20.4C20.0866 12.4666 19.8333 12.7199 19.8333 13.0332C19.8333 13.3466 20.0866 13.5999 20.4 13.5999H29.4667C29.78 13.5999 30.0333 13.3466 30.0333 13.0332C30.0333 12.7199 29.78 12.4666 29.4667 12.4666Z" fill="black"/>
<path d="M29.4667 15.8667H20.4C20.0866 15.8667 19.8333 16.12 19.8333 16.4334C19.8333 16.7467 20.0866 17 20.4 17H29.4667C29.78 17 30.0333 16.7467 30.0333 16.4334C30.0333 16.12 29.78 15.8667 29.4667 15.8667Z" fill="black"/>
<path d="M29.4667 19.2666H10.7667C10.4533 19.2666 10.2 19.5199 10.2 19.8333C10.2 20.1466 10.4533 20.3999 10.7667 20.3999H29.4667C29.78 20.3999 30.0333 20.1466 30.0333 19.8333C30.0333 19.5199 29.78 19.2666 29.4667 19.2666Z" fill="black"/>
<path d="M19.2667 22.6667H10.7667C10.4533 22.6667 10.2 22.92 10.2 23.2334C10.2 23.5468 10.4533 23.8001 10.7667 23.8001H19.2667C19.58 23.8001 19.8333 23.5468 19.8333 23.2334C19.8333 22.92 19.58 22.6667 19.2667 22.6667Z" fill="black"/>
<path d="M19.2667 26.0667H10.7667C10.4533 26.0667 10.2 26.3199 10.2 26.6333C10.2 26.9467 10.4533 27.2 10.7667 27.2H19.2667C19.58 27.2 19.8333 26.9467 19.8333 26.6333C19.8333 26.3199 19.58 26.0667 19.2667 26.0667Z" fill="black"/>
<path d="M19.2667 29.4666H10.7667C10.4533 29.4666 10.2 29.7199 10.2 30.0332C10.2 30.3466 10.4533 30.5999 10.7667 30.5999H19.2667C19.58 30.5999 19.8333 30.3466 19.8333 30.0332C19.8333 29.7199 19.58 29.4666 19.2667 29.4666Z" fill="black"/>
<path d="M22.1 30.6001H30.0333V22.6667H22.1V30.6001ZM23.2333 23.8001H28.9V29.4667H23.2333V23.8001Z" fill="black"/>
<path d="M33.4333 7.36667C33.4333 7.35703 33.4282 7.3491 33.4277 7.33947V0H6.23333V17H0.566666V30.6C0.566666 32.4751 2.09157 34 3.96667 34H30.0333C31.905 34 33.4277 32.4768 33.4277 30.6057V7.39387C33.4282 7.38423 33.4333 7.3763 33.4333 7.36667ZM32.2943 1.13333V6.8H7.36667V1.13333H32.2943ZM1.7 30.6V18.1333H6.23333V30.6C6.23333 31.8501 5.21673 32.8667 3.96667 32.8667C2.7166 32.8667 1.7 31.8501 1.7 30.6ZM30.0333 32.8667H6.4991C6.50817 32.8565 6.5144 32.8446 6.5229 32.8344C6.6385 32.7023 6.7439 32.5612 6.83797 32.4122C6.85327 32.3884 6.86743 32.3646 6.88217 32.3397C6.97397 32.1867 7.055 32.0269 7.12187 31.8591C7.13093 31.8359 7.13887 31.8127 7.14737 31.7894C7.21253 31.616 7.2658 31.437 7.30207 31.2517C7.30547 31.2347 7.3066 31.2171 7.31 31.2007C7.34513 31.0057 7.36667 30.8051 7.36667 30.6V17V7.93333H32.2943V30.6057C32.2943 31.8523 31.28 32.8667 30.0333 32.8667Z" fill="black"/>
<path d="M26.6333 2.2666H13.0333V5.6666H26.6333V2.2666ZM25.5 4.53327H14.1667V3.39993H25.5V4.53327Z" fill="black"/>
</svg>
