<svg width="19" height="19" viewBox="0 0 19 19" fill="none" xmlns="http://www.w3.org/2000/svg">
<g>
<path d="M5.53231 9.73541C5.53231 9.22378 5.17704 8.91843 4.55009 8.91843C4.29434 8.91843 4.12107 8.94309 4.03021 8.96782V10.6107C4.13763 10.6351 4.26968 10.6435 4.45078 10.6435C5.11968 10.6435 5.53231 10.3051 5.53231 9.73541Z"/>
<path d="M9.4129 8.93491C9.13194 8.93491 8.95077 8.95964 8.84308 8.98441V12.6244C8.95057 12.6496 9.12394 12.6496 9.28082 12.6496C10.4197 12.6576 11.1627 12.0305 11.1627 10.7015C11.171 9.54547 10.494 8.93491 9.4129 8.93491Z"/>
<path d="M16.8484 6.79621H16.3921V4.59487C16.3921 4.58114 16.39 4.5673 16.3881 4.5534C16.3874 4.46599 16.3596 4.38013 16.2998 4.31211L12.6365 0.127425C12.6354 0.126356 12.6343 0.125977 12.6335 0.124804C12.6117 0.100416 12.5862 0.0801324 12.5593 0.0625743C12.5514 0.0572276 12.5433 0.0527432 12.535 0.0481208C12.5117 0.0353921 12.4869 0.0248366 12.4615 0.0172131C12.4546 0.0152814 12.4484 0.0124528 12.4415 0.010659C12.4138 0.00410493 12.3851 0 12.3559 0H3.35293C2.94182 0 2.60783 0.334362 2.60783 0.745131V6.79604H2.1517C1.56359 6.79604 1.08673 7.2727 1.08673 7.86101V13.399C1.08673 13.9869 1.56359 14.4639 2.1517 14.4639H2.60787V18.2549C2.60787 18.6656 2.94185 19 3.35297 19H15.6471C16.0578 19 16.3922 18.6656 16.3922 18.2549V14.4639H16.8484C17.4363 14.4639 17.9133 13.9869 17.9133 13.399V7.86118C17.9133 7.2729 17.4363 6.79621 16.8484 6.79621ZM3.35293 0.745269H11.9834V4.55744C11.9834 4.76327 12.1504 4.92999 12.3559 4.92999H15.647V6.79645H3.35293V0.745269ZM12.4997 10.6598C12.4997 11.7249 12.1118 12.4593 11.5745 12.9135C10.9891 13.4005 10.0974 13.6315 9.00818 13.6315C8.35623 13.6315 7.89409 13.5902 7.58005 13.5491V8.08447C8.04225 8.01034 8.64519 7.96905 9.2808 7.96905C10.3368 7.96905 11.0221 8.15905 11.5588 8.56326C12.1364 8.99256 12.4997 9.67753 12.4997 10.6598ZM2.78376 13.5738V8.08447C3.17152 8.01879 3.71658 7.96905 4.48424 7.96905C5.26007 7.96905 5.81324 8.11766 6.18454 8.415C6.53957 8.69549 6.77838 9.15782 6.77838 9.70264C6.77838 10.2476 6.59728 10.7098 6.26685 11.0233C5.83766 11.4279 5.20215 11.6096 4.45906 11.6096C4.29424 11.6096 4.14515 11.6012 4.03011 11.5846V13.574H2.78376V13.5738ZM15.6471 18.0532H3.35293V14.4639H15.647V18.0532H15.6471ZM16.7267 9.04213H14.5883V10.3133H16.5861V11.3369H14.5883V13.5739H13.3261V8.01034H16.7267V9.04213Z"/>
</g>
</svg>
