<svg width="18" height="18" viewBox="0 0 18 18" fill="none" xmlns="http://www.w3.org/2000/svg">
<g clip-path="url(#clip0)">
<path d="M8.9997 0C4.02936 0 0 4.02966 0 8.99982C0 13.97 4.02936 18 8.9997 18C13.97 18 17.9999 13.9702 17.9999 8.99982C17.9999 4.02942 13.97 0 8.9997 0ZM13.2781 6.4767L12.4232 7.33152L10.6832 5.59158L10.0231 6.2517L11.7631 7.99176L7.4952 12.2593L5.75526 10.5196L5.09514 11.1797L6.83508 12.9196L6.4098 13.3449L6.4017 13.3368C6.35454 13.4144 6.27786 13.4711 6.18678 13.4913L4.5642 13.8531C4.5399 13.8586 4.51518 13.8612 4.49076 13.8612C4.4022 13.8612 4.31616 13.8263 4.25238 13.7624C4.17054 13.6808 4.13646 13.5631 4.16166 13.4502L4.52328 11.8281C4.54368 11.7371 4.60044 11.6602 4.67796 11.6132L4.66974 11.605L11.5379 4.73646C11.6386 4.63596 11.8022 4.63596 11.9029 4.73676L13.2782 6.11178C13.3789 6.21246 13.3789 6.37602 13.2781 6.4767Z" fill="#C4C4C4"/>
</g>
<defs>
<clipPath id="clip0">
<rect width="18" height="18" fill="white"/>
</clipPath>
</defs>
</svg>
