<svg width="17" height="17" viewBox="0 0 17 17" fill="none" xmlns="http://www.w3.org/2000/svg">
<path d="M12.9245 11.2458C12.3692 10.6975 11.6758 10.6975 11.1239 11.2458C10.703 11.6633 10.282 12.0807 9.86811 12.5052C9.75491 12.622 9.65939 12.6467 9.52143 12.5689C9.24904 12.4203 8.95896 12.3 8.69718 12.1373C7.47673 11.3697 6.45438 10.3827 5.54877 9.2719C5.09951 8.72005 4.69977 8.12928 4.4203 7.46422C4.3637 7.32979 4.37431 7.24135 4.48397 7.13169C4.90494 6.72487 5.3153 6.30744 5.72919 5.89001C6.30581 5.30986 6.30581 4.63065 5.72565 4.04696C5.39666 3.71443 5.06767 3.38897 4.73868 3.05644C4.39907 2.71684 4.06301 2.3737 3.71987 2.03763C3.16447 1.49639 2.47112 1.49639 1.91926 2.04117C1.49475 2.4586 1.08794 2.88664 0.656358 3.297C0.256616 3.67551 0.0549764 4.13893 0.0125259 4.68017C-0.0546873 5.56102 0.161103 6.39234 0.465331 7.20244C1.08794 8.87923 2.036 10.3685 3.1857 11.734C4.73868 13.5806 6.59235 15.0416 8.76086 16.0958C9.73722 16.5698 10.749 16.9342 11.8491 16.9943C12.6062 17.0368 13.2641 16.8458 13.7912 16.255C14.1521 15.8517 14.5589 15.4838 14.9409 15.0982C15.5069 14.5251 15.5105 13.8318 14.948 13.2658C14.2759 12.5901 13.6002 11.918 12.9245 11.2458Z"/>
<path d="M12.2489 8.42641L13.5542 8.20354C13.3491 7.00432 12.7831 5.91829 11.9234 5.05513C11.0143 4.14598 9.86459 3.5729 8.59815 3.39603L8.4142 4.70845C9.3941 4.84642 10.2856 5.28861 10.9895 5.99258C11.6546 6.65764 12.0897 7.49957 12.2489 8.42641Z"/>
<path d="M14.29 2.75221C12.783 1.24521 10.8763 0.293616 8.77148 0L8.58752 1.31243C10.4058 1.56713 12.0543 2.39138 13.3561 3.68965C14.5907 4.92425 15.4008 6.48431 15.6944 8.20002L16.9998 7.97715C16.6567 5.98905 15.7192 4.18491 14.29 2.75221Z"/>
</svg>
