<svg width="13" height="14" viewBox="0 0 13 14" fill="none" xmlns="http://www.w3.org/2000/svg">
<path d="M12.5 6.5C12.2239 6.5 12 6.72386 12 7.00001C11.9994 10.0376 9.53652 12.4995 6.49893 12.4989C4.95625 12.4986 3.48464 11.8504 2.44302 10.7125L4.65801 9.97402C4.92033 9.88674 5.06228 9.60335 4.975 9.34103C4.88772 9.07871 4.60434 8.93676 4.34201 9.02404L1.34201 10.024C1.13723 10.0922 0.999329 10.2842 1 10.5V13.5C1 13.7762 1.22386 14 1.50001 14C1.77616 14 2.00002 13.7762 2.00002 13.5V11.6735C4.57422 14.1657 8.68135 14.0992 11.1735 11.525C12.348 10.3119 13.0032 8.68856 13 7.00001C13.0001 6.72386 12.7762 6.5 12.5 6.5Z" fill="black"/>
<path d="M11.5 0C11.2238 0 11 0.223857 11 0.500009V2.32649C8.42579 -0.165703 4.31869 -0.0991991 1.8265 2.47497C0.651984 3.68812 -0.0032399 5.31142 1.20472e-05 6.99998C1.20472e-05 7.27613 0.223869 7.49998 0.500021 7.49998C0.776174 7.49998 1 7.27613 1 6.99998C1.00062 3.96242 3.46352 1.50047 6.5011 1.50108C8.04379 1.50137 9.5154 2.14957 10.557 3.28748L8.34203 4.02597C8.0797 4.11324 7.93776 4.39663 8.02504 4.65896C8.11231 4.92128 8.3957 5.06322 8.65802 4.97595L11.658 3.97596C11.8628 3.90776 12.0007 3.7158 12 3.49997V0.499979C12 0.223857 11.7761 0 11.5 0Z" fill="black"/>
</svg>
