<svg width="33" height="33" viewBox="0 0 33 33" fill="none" xmlns="http://www.w3.org/2000/svg">
<path d="M32.5112 19.8301L30.9176 18.236C30.2867 17.6056 29.1871 17.6056 28.5561 18.236L19.948 26.8446L18.7617 31.1957L18.4714 31.486C18.2544 31.703 18.2538 32.0531 18.468 32.2718L18.4652 32.283L18.4759 32.2802C18.5844 32.387 18.7253 32.4413 18.8668 32.4413C19.01 32.4413 19.1532 32.3865 19.2623 32.2774L19.5531 31.9866L23.9036 30.8002L32.5117 22.1916C33.1628 21.5405 33.1628 20.4811 32.5112 19.8301ZM21.2395 27.1355L26.9687 21.4062L29.342 23.7795L23.6128 29.5087L21.2395 27.1355ZM20.7344 28.2128L22.5355 30.0138L20.0588 30.6895L20.7344 28.2128ZM31.7203 21.4007L30.1329 22.9886L27.7596 20.6154L29.3476 19.0274C29.5557 18.8188 29.9187 18.8188 30.1267 19.0274L31.7208 20.6215C31.9356 20.8357 31.9356 21.1859 31.7203 21.4007Z" fill="black"/>
<path d="M20.136 18.4573H25.1699V12.3047H20.136H19.0173H15.102H13.9833H10.068H8.94933H3.91534V17.3387V18.4573V22.3727V23.4913V28.5253H8.94933H10.068H15.102V23.4913V22.3727V18.4573H19.0173H20.136ZM20.136 13.4234H24.0513V17.3387H20.136V13.4234ZM10.068 13.4234H13.9833V17.3387H10.068V13.4234ZM5.03401 13.4234H8.94933V17.3387H5.03401V13.4234ZM5.03401 18.4573H8.94933V22.3727H5.03401V18.4573ZM8.94933 27.4066H5.03401V23.4913H8.94933V27.4066ZM13.9833 27.4066H10.068V23.4913H13.9833V27.4066ZM13.9833 22.3727H10.068V18.4573H13.9833V22.3727ZM15.102 17.3387V13.4234H19.0173V17.3387H15.102Z" fill="black"/>
<path d="M14.5426 31.3221H1.11866V9.50814H27.9666V16.7795C27.9666 17.0888 28.2172 17.3388 28.5259 17.3388C28.8347 17.3388 29.0852 17.0888 29.0852 16.7795V8.94881V3.3555C29.0852 3.04619 28.8347 2.79616 28.5259 2.79616H25.7292V1.11817C25.7292 0.808859 25.4787 0.558838 25.1699 0.558838H21.2546C20.9458 0.558838 20.6953 0.808859 20.6953 1.11817V2.79616H8.38997V1.11817C8.38997 0.808859 8.13939 0.558838 7.83064 0.558838H3.91532C3.60657 0.558838 3.35599 0.808859 3.35599 1.11817V2.79616H0.559331C0.250581 2.79616 0 3.04619 0 3.3555V8.94881V31.8814C0 32.1907 0.250581 32.4407 0.559331 32.4407H14.5426C14.8514 32.4407 15.1019 32.1907 15.1019 31.8814C15.1019 31.5721 14.8514 31.3221 14.5426 31.3221ZM21.8139 1.6775H24.6106V3.3555V5.03349H21.8139V3.3555V1.6775ZM4.47465 1.6775H7.27131V3.3555V5.03349H4.47465V3.3555V1.6775ZM1.11866 3.91483H3.35599V5.59282C3.35599 5.90213 3.60657 6.15215 3.91532 6.15215H7.83064C8.13939 6.15215 8.38997 5.90213 8.38997 5.59282V3.91483H20.6953V5.59282C20.6953 5.90213 20.9458 6.15215 21.2546 6.15215H25.1699C25.4787 6.15215 25.7292 5.90213 25.7292 5.59282V3.91483H27.9666V8.38948H1.11866V3.91483Z" fill="black"/>
</svg>
