<svg width="20" height="25" viewBox="0 0 20 25" fill="none" xmlns="http://www.w3.org/2000/svg">
<path d="M8.60776 1.30323L0.376651 9.61553C-0.12555 10.1227 -0.12555 10.9452 0.376651 11.4523C0.878954 11.9596 1.69322 11.9596 2.19552 11.4523L8.23109 5.35724L8.23109 23.4005C8.23109 24.1178 8.80696 24.6993 9.5172 24.6993C10.2273 24.6993 10.8033 24.1178 10.8033 23.4005L10.8033 5.35724L16.8389 11.4521C17.3412 11.9594 18.1554 11.9594 18.6577 11.4521C18.9087 11.1986 19.0344 10.8661 19.0344 10.5337C19.0344 10.2013 18.9087 9.86895 18.6577 9.61532L10.4266 1.30323C9.92433 0.795977 9.11007 0.795977 8.60776 1.30323Z"/>
</svg>
