<svg width="23" height="23" viewBox="0 0 23 23" fill="none" xmlns="http://www.w3.org/2000/svg">
<path d="M11.4998 0C5.14871 0 0 5.14883 0 11.4999C0 17.8508 5.14871 23 11.4998 23C17.8509 23 23 17.8508 23 11.4999C23 5.14868 17.8509 0 11.4998 0ZM11.5348 16.9253V16.9252H11.4646H6.55235C6.55235 13.3328 9.70739 13.3337 10.4075 12.3944L10.4876 11.966C9.50399 11.4675 8.80961 10.2657 8.80961 8.86007C8.80961 7.00825 10.0142 5.50679 11.4998 5.50679C12.9854 5.50679 14.19 7.00825 14.19 8.86007C14.19 10.2537 13.508 11.4481 12.5374 11.9544L12.6287 12.4412C13.3968 13.335 16.4469 13.3933 16.4469 16.9253H11.5348Z" fill="#4483CE"/>
</svg>
