<svg width="18" height="18" viewBox="0 0 18 18" fill="none" xmlns="http://www.w3.org/2000/svg">
<path d="M15.8314 5.9414V3.07033H13.0902V2.17968H8.44391V3.48046H5.70268V5.9414H4.46852L3.19531 0H0.00927734V1.05469H2.34273L5.06551 13.7602H16.3164L17.9914 5.9414H15.8314ZM13.0902 4.12502H14.7767V5.9414H13.0902V4.12502ZM9.4986 3.23437H12.0355V5.9414H9.4986V3.23437ZM6.75744 4.53515H8.44398V5.9414H6.75744V4.53515ZM15.4638 12.7055H5.91812L4.69458 6.99608H16.6868L15.4638 12.7055Z"/>
<path d="M7.73131 14.4895C6.7635 14.4895 5.97607 15.2769 5.97607 16.2448C5.97607 17.2126 6.76347 18 7.73131 18C8.69916 18 9.48655 17.2126 9.48655 16.2448C9.48655 15.2769 8.69912 14.4895 7.73131 14.4895ZM7.73131 16.9453C7.34505 16.9453 7.03076 16.631 7.03076 16.2447C7.03076 15.8584 7.34502 15.5442 7.73131 15.5442C8.11757 15.5442 8.43187 15.8584 8.43187 16.2447C8.43187 16.631 8.11757 16.9453 7.73131 16.9453Z"/>
<path d="M13.8519 14.4895C12.8841 14.4895 12.0967 15.2769 12.0967 16.2448C12.0967 17.2126 12.8841 18 13.8519 18C14.8198 18 15.6072 17.2126 15.6072 16.2448C15.6072 15.2769 14.8198 14.4895 13.8519 14.4895ZM13.8519 16.9453C13.4657 16.9453 13.1514 16.631 13.1514 16.2447C13.1514 15.8584 13.4656 15.5442 13.8519 15.5442C14.2382 15.5442 14.5525 15.8584 14.5525 16.2447C14.5525 16.631 14.2383 16.9453 13.8519 16.9453Z"/>
<path d="M8.58691 8.1376H7.53223V11.6346H8.58691V8.1376Z"/>
<path d="M11.2939 8.1376H10.2393V11.6346H11.2939V8.1376Z"/>
<path d="M14.001 8.1376H12.9463V11.6346H14.001V8.1376Z"/>
</svg>
