<svg width="14" height="13" viewBox="0 0 14 13" fill="none" xmlns="http://www.w3.org/2000/svg">
<path d="M6.94096 4.33749C6.72048 4.53141 6.36187 4.50219 6.16795 4.28171L4.12254 1.97598V11.1909C4.12254 11.4938 3.87285 11.7435 3.57002 11.7435C3.26719 11.7435 3.01749 11.4938 3.01749 11.1909V1.97598L0.972085 4.28171C0.751606 4.50219 0.419559 4.53141 0.19908 4.33749C-0.0213987 4.11701 -0.0506188 3.78497 0.143297 3.56449L3.15562 0.193549C3.38142 -0.0853701 3.77987 -0.0428686 3.95785 0.193549L6.99674 3.56449C7.19066 3.78231 7.16409 4.14358 6.94096 4.33749Z"/>
<path d="M13.8566 9.42178L10.8708 12.7927C10.6052 13.061 10.2732 13.077 10.0421 12.7927L7.00316 9.42178C6.80924 9.20131 6.83846 8.84269 7.05894 8.64878C7.39896 8.37783 7.74163 8.56378 7.83195 8.70456L9.87736 11.0103V1.8219C9.87736 1.51907 10.1271 1.26937 10.4299 1.26937C10.7327 1.26937 10.9824 1.48985 10.9824 1.79534V11.0076L13.0278 8.70191C13.2483 8.48143 13.5803 8.45221 13.8008 8.64612C14.0213 8.86926 14.0505 9.20131 13.8566 9.42178Z"/>
</svg>
